{"glyphs":{"0":{"ha":714,"x_min":53,"x_max":661,"o":"m 358 958 q 584 835 507 958 q 661 468 661 711 q 358 -24 661 -24 q 53 468 53 -24 q 358 958 53 958 m 358 803 q 304 775 324 803 q 276 676 285 747 q 267 468 267 604 q 276 258 267 329 q 304 159 285 186 q 358 132 324 132 q 412 159 393 132 q 439 258 431 186 q 447 468 447 329 q 439 677 447 606 q 412 776 431 749 q 358 803 393 803 z "},"1":{"ha":543,"x_min":1,"x_max":457,"o":"m 457 938 l 457 0 l 253 0 l 253 733 l 94 615 l 1 747 l 269 938 l 457 938 z "},"2":{"ha":585,"x_min":-12,"x_max":561,"o":"m 265 958 q 417 924 354 958 q 513 830 481 889 q 544 699 544 771 q 519 554 544 622 q 431 395 494 486 q 242 163 367 304 l 561 163 l 539 0 l 18 0 l 18 150 q 215 404 150 313 q 306 558 281 496 q 331 685 331 619 q 308 768 331 740 q 242 796 285 796 q 175 776 203 796 q 108 707 147 756 l -12 797 q 265 958 93 958 z "},"3":{"ha":604,"x_min":-12,"x_max":574,"o":"m 278 958 q 421 926 360 958 q 515 838 482 893 q 547 717 547 782 q 368 496 547 546 q 519 428 465 483 q 574 268 574 372 q 538 122 574 189 q 432 16 501 56 q 268 -24 363 -24 q 113 12 179 -24 q -12 117 46 47 l 100 218 q 175 155 142 174 q 250 136 208 136 q 329 173 299 136 q 360 278 360 210 q 326 385 360 351 q 229 418 293 418 l 169 418 l 192 561 l 232 561 q 316 595 285 561 q 347 690 347 629 q 321 774 347 744 q 249 803 294 803 q 106 728 174 803 l 1 832 q 278 958 119 958 z "},"4":{"ha":658,"x_min":25,"x_max":639,"o":"m 639 363 l 639 204 l 557 204 l 557 0 l 361 0 l 360 204 l 25 204 l 25 346 l 240 963 l 417 900 l 235 363 l 363 363 l 386 589 l 557 589 l 557 363 l 639 363 z "},"5":{"ha":632,"x_min":11,"x_max":597,"o":"m 535 788 l 258 788 l 258 578 q 317 606 290 597 q 376 614 344 614 q 535 535 474 614 q 597 310 597 456 q 558 135 597 211 q 447 18 519 60 q 279 -24 375 -24 q 126 13 190 -24 q 11 117 61 49 l 125 218 q 194 156 161 176 q 269 135 226 135 q 355 178 325 135 q 385 308 385 221 q 360 433 385 397 q 290 469 336 469 q 247 462 267 469 q 201 436 226 454 l 63 436 l 63 939 l 558 939 l 535 788 z "},"6":{"ha":681,"x_min":53,"x_max":651,"o":"m 432 629 q 590 548 529 629 q 651 321 651 467 q 575 69 651 163 q 360 -24 499 -24 q 128 92 204 -24 q 53 429 53 208 q 96 710 53 590 q 219 894 139 829 q 407 958 299 958 q 589 896 510 958 l 515 775 q 418 807 465 807 q 316 741 356 807 q 268 543 276 675 q 432 629 331 629 m 443 336 q 424 454 443 421 q 371 488 406 488 q 267 404 317 488 q 276 239 268 299 q 305 153 285 179 q 358 128 325 128 q 424 177 404 128 q 443 336 443 226 z "},"7":{"ha":544,"x_min":10,"x_max":531,"o":"m 531 939 l 531 796 l 249 -22 l 61 39 l 319 781 l 10 781 l 10 939 l 531 939 z "},"8":{"ha":675,"x_min":26,"x_max":649,"o":"m 485 504 q 610 395 572 456 q 649 253 649 335 q 566 53 649 129 q 332 -24 483 -24 q 107 52 188 -24 q 26 250 26 128 q 65 387 26 331 q 179 482 103 443 q 85 582 113 528 q 57 706 57 636 q 133 890 57 822 q 333 958 208 958 q 542 894 465 958 q 619 717 619 831 q 485 504 619 585 m 339 815 q 276 791 297 815 q 256 703 256 767 q 274 622 256 651 q 339 567 292 592 l 361 556 q 408 624 396 590 q 421 706 421 658 q 401 790 421 764 q 339 815 381 815 m 340 126 q 419 158 393 126 q 446 254 446 189 q 422 346 446 313 q 335 410 397 379 l 301 426 q 231 260 231 369 q 258 158 231 190 q 340 126 286 126 z "},"9":{"ha":669,"x_min":26,"x_max":632,"o":"m 328 958 q 554 862 476 958 q 632 593 632 765 q 578 278 632 403 q 413 79 524 154 q 124 -39 303 4 l 82 110 q 310 220 233 153 q 411 411 386 288 q 340 348 378 369 q 253 326 301 326 q 141 364 193 326 q 58 472 89 401 q 26 635 26 542 q 65 810 26 736 q 173 921 104 883 q 328 958 242 958 m 321 472 q 418 550 376 472 q 411 708 419 653 q 383 788 403 764 q 329 811 364 811 q 236 642 236 811 q 259 513 236 553 q 321 472 282 472 z "},"\r":{"ha":257,"x_min":0,"x_max":0,"o":""}," ":{"ha":257,"x_min":0,"x_max":0,"o":""},"A":{"ha":703,"x_min":-12,"x_max":715,"o":"m 494 0 l 456 211 l 242 211 l 204 0 l -12 0 l 221 963 l 482 963 l 715 0 l 494 0 m 271 368 l 428 368 l 349 803 l 271 368 z "},"Á":{"ha":703,"x_min":-12,"x_max":715,"o":"m 494 0 l 456 211 l 242 211 l 204 0 l -12 0 l 221 963 l 482 963 l 715 0 l 494 0 m 271 368 l 428 368 l 349 803 l 271 368 m 439 1313 l 518 1161 l 236 1043 l 183 1146 l 439 1313 z "},"Ă":{"ha":703,"x_min":-12,"x_max":715,"o":"m 494 0 l 456 211 l 242 211 l 204 0 l -12 0 l 221 963 l 482 963 l 715 0 l 494 0 m 271 368 l 428 368 l 349 803 l 271 368 m 353 1044 q 207 1103 258 1044 q 147 1263 156 1163 l 257 1285 q 353 1190 279 1190 q 414 1215 390 1190 q 446 1285 438 1239 l 557 1263 q 497 1103 549 1163 q 353 1044 446 1044 z "},"Ắ":{"ha":703,"x_min":-12,"x_max":715,"o":"m 494 0 l 456 211 l 242 211 l 204 0 l -12 0 l 221 963 l 482 963 l 715 0 l 494 0 m 271 368 l 428 368 l 349 803 l 271 368 m 351 1024 q 206 1083 257 1024 q 146 1242 154 1142 l 256 1264 q 351 1169 278 1169 q 413 1194 389 1169 q 444 1264 436 1218 l 556 1242 q 496 1083 547 1142 q 351 1024 444 1024 m 443 1557 l 565 1451 l 365 1251 l 283 1318 l 443 1557 z "},"Ặ":{"ha":703,"x_min":-12,"x_max":715,"o":"m 494 0 l 456 211 l 242 211 l 204 0 l -12 0 l 221 963 l 482 963 l 715 0 l 494 0 m 271 368 l 428 368 l 349 803 l 271 368 m 353 1044 q 207 1103 258 1044 q 147 1263 156 1163 l 257 1285 q 353 1190 279 1190 q 414 1215 390 1190 q 446 1285 438 1239 l 557 1263 q 497 1103 549 1163 q 353 1044 446 1044 m 351 -326 q 265 -292 297 -326 q 232 -206 232 -258 q 265 -120 232 -154 q 351 -86 299 -86 q 438 -120 404 -86 q 471 -206 471 -154 q 438 -292 471 -258 q 351 -326 404 -326 z "},"Ằ":{"ha":703,"x_min":-12,"x_max":715,"o":"m 494 0 l 456 211 l 242 211 l 204 0 l -12 0 l 221 963 l 482 963 l 715 0 l 494 0 m 271 368 l 428 368 l 349 803 l 271 368 m 353 1024 q 207 1083 258 1024 q 147 1242 156 1142 l 257 1264 q 353 1169 279 1169 q 414 1194 390 1169 q 446 1264 438 1218 l 557 1242 q 497 1083 549 1142 q 353 1024 446 1024 m 271 1557 l 432 1318 l 350 1251 l 149 1451 l 271 1557 z "},"Ẳ":{"ha":703,"x_min":-12,"x_max":715,"o":"m 494 0 l 456 211 l 242 211 l 204 0 l -12 0 l 221 963 l 482 963 l 715 0 l 494 0 m 271 368 l 428 368 l 349 803 l 271 368 m 353 1024 q 207 1083 258 1024 q 147 1242 156 1142 l 257 1264 q 353 1169 279 1169 q 414 1194 390 1169 q 446 1264 438 1218 l 557 1242 q 497 1083 549 1142 q 353 1024 446 1024 m 292 1372 q 354 1386 336 1375 q 372 1425 372 1397 q 360 1458 372 1447 q 329 1469 349 1469 q 294 1465 310 1469 q 260 1451 279 1461 l 228 1540 q 358 1575 283 1575 q 468 1537 429 1575 q 507 1436 507 1499 q 482 1351 507 1383 q 410 1308 457 1318 l 410 1249 l 292 1249 l 292 1372 z "},"Ẵ":{"ha":703,"x_min":-12,"x_max":715,"o":"m 494 0 l 456 211 l 242 211 l 204 0 l -12 0 l 221 963 l 482 963 l 715 0 l 494 0 m 271 368 l 428 368 l 349 803 l 271 368 m 350 1024 q 204 1083 256 1024 q 144 1242 153 1142 l 254 1264 q 350 1169 276 1169 q 411 1194 388 1169 q 443 1264 435 1218 l 554 1242 q 494 1083 546 1142 q 350 1024 443 1024 m 419 1310 q 374 1318 393 1310 q 332 1342 354 1326 q 283 1363 300 1363 q 253 1350 265 1363 q 224 1308 240 1338 l 126 1351 q 190 1457 150 1417 q 281 1497 229 1497 q 325 1489 307 1497 q 368 1465 343 1481 q 418 1443 397 1443 q 448 1456 436 1443 q 475 1496 460 1468 l 574 1454 q 511 1349 551 1388 q 419 1310 471 1310 z "},"Ǎ":{"ha":703,"x_min":-12,"x_max":715,"o":"m 494 0 l 456 211 l 242 211 l 204 0 l -12 0 l 221 963 l 482 963 l 715 0 l 494 0 m 271 368 l 428 368 l 349 803 l 271 368 m 506 1300 l 578 1224 l 414 1042 l 289 1042 l 125 1224 l 197 1300 l 351 1183 l 506 1300 z "},"Â":{"ha":703,"x_min":-12,"x_max":715,"o":"m 494 0 l 456 211 l 242 211 l 204 0 l -12 0 l 221 963 l 482 963 l 715 0 l 494 0 m 271 368 l 428 368 l 349 803 l 271 368 m 197 1056 l 125 1131 l 289 1313 l 414 1313 l 578 1131 l 506 1056 l 351 1171 l 197 1056 z "},"Ấ":{"ha":703,"x_min":-12,"x_max":751,"o":"m 494 0 l 456 211 l 242 211 l 204 0 l -12 0 l 221 963 l 482 963 l 715 0 l 494 0 m 271 368 l 428 368 l 349 803 l 271 368 m 197 1008 l 125 1083 l 289 1265 l 414 1265 l 578 1083 l 506 1008 l 351 1124 l 197 1008 m 629 1508 l 751 1403 l 551 1203 l 469 1269 l 629 1508 z "},"Ậ":{"ha":703,"x_min":-12,"x_max":715,"o":"m 494 0 l 456 211 l 242 211 l 204 0 l -12 0 l 221 963 l 482 963 l 715 0 l 494 0 m 271 368 l 428 368 l 349 803 l 271 368 m 197 1056 l 125 1131 l 289 1313 l 414 1313 l 578 1131 l 506 1056 l 351 1171 l 197 1056 m 351 -326 q 265 -292 297 -326 q 232 -206 232 -258 q 265 -120 232 -154 q 351 -86 299 -86 q 438 -120 404 -86 q 471 -206 471 -154 q 438 -292 471 -258 q 351 -326 404 -326 z "},"Ầ":{"ha":703,"x_min":-49,"x_max":715,"o":"m 494 0 l 456 211 l 242 211 l 204 0 l -12 0 l 221 963 l 482 963 l 715 0 l 494 0 m 271 368 l 428 368 l 349 803 l 271 368 m 196 1008 l 124 1083 l 288 1265 l 413 1265 l 576 1083 l 504 1008 l 350 1124 l 196 1008 m 74 1508 l 235 1269 l 153 1203 l -49 1403 l 74 1508 z "},"Ẩ":{"ha":703,"x_min":-12,"x_max":715,"o":"m 494 0 l 456 211 l 242 211 l 204 0 l -12 0 l 221 963 l 482 963 l 715 0 l 494 0 m 271 368 l 428 368 l 349 803 l 271 368 m 197 1008 l 125 1083 l 289 1265 l 414 1265 l 578 1083 l 506 1008 l 351 1124 l 197 1008 m 499 1308 q 561 1322 543 1311 q 579 1361 579 1333 q 567 1394 579 1383 q 536 1406 556 1406 q 501 1401 517 1406 q 467 1388 486 1397 l 435 1476 q 565 1511 490 1511 q 675 1473 636 1511 q 714 1372 714 1435 q 689 1287 714 1319 q 617 1244 664 1254 l 617 1185 l 499 1185 l 499 1308 z "},"Ẫ":{"ha":703,"x_min":-12,"x_max":715,"o":"m 494 0 l 456 211 l 242 211 l 204 0 l -12 0 l 221 963 l 482 963 l 715 0 l 494 0 m 271 368 l 428 368 l 349 803 l 271 368 m 196 1008 l 124 1083 l 288 1265 l 413 1265 l 576 1083 l 504 1008 l 350 1124 l 196 1008 m 419 1311 q 374 1319 393 1311 q 332 1343 354 1328 q 283 1364 300 1364 q 253 1351 265 1364 q 224 1310 240 1339 l 126 1353 q 190 1458 150 1418 q 281 1499 229 1499 q 325 1490 307 1499 q 368 1467 343 1482 q 418 1444 397 1444 q 448 1457 436 1444 q 475 1497 460 1469 l 574 1456 q 511 1350 551 1389 q 419 1311 471 1311 z "},"Ȁ":{"ha":703,"x_min":-12,"x_max":715,"o":"m 494 0 l 456 211 l 242 211 l 204 0 l -12 0 l 221 963 l 482 963 l 715 0 l 494 0 m 271 368 l 428 368 l 349 803 l 271 368 m 196 1363 l 308 1093 l 211 1044 l 65 1293 l 196 1363 m 406 1363 l 510 1093 l 410 1051 l 274 1297 l 406 1363 z "},"Ä":{"ha":703,"x_min":-12,"x_max":715,"o":"m 494 0 l 456 211 l 242 211 l 204 0 l -12 0 l 221 963 l 482 963 l 715 0 l 494 0 m 271 368 l 428 368 l 349 803 l 271 368 m 222 1279 q 296 1249 267 1279 q 325 1174 325 1218 q 297 1098 325 1128 q 222 1068 268 1068 q 148 1099 178 1068 q 118 1174 118 1129 q 148 1249 118 1218 q 222 1279 178 1279 m 494 1279 q 568 1249 539 1279 q 597 1174 597 1218 q 569 1098 597 1128 q 494 1068 540 1068 q 422 1099 451 1068 q 392 1174 392 1129 q 422 1249 392 1218 q 494 1279 451 1279 z "},"Ǟ":{"ha":703,"x_min":-12,"x_max":715,"o":"m 494 0 l 456 211 l 242 211 l 204 0 l -12 0 l 221 963 l 482 963 l 715 0 l 494 0 m 271 368 l 428 368 l 349 803 l 271 368 m 217 1247 q 290 1217 261 1247 q 319 1142 319 1186 q 291 1066 319 1096 q 217 1036 263 1036 q 142 1067 172 1036 q 113 1142 113 1097 q 142 1217 113 1186 q 217 1247 172 1247 m 489 1247 q 563 1217 533 1247 q 592 1142 592 1186 q 563 1066 592 1096 q 489 1036 535 1036 q 416 1067 446 1036 q 386 1142 386 1097 q 416 1217 386 1186 q 489 1247 446 1247 m 533 1310 l 172 1310 l 172 1451 l 533 1451 l 533 1310 z "},"Ȧ":{"ha":703,"x_min":-12,"x_max":715,"o":"m 494 0 l 456 211 l 242 211 l 204 0 l -12 0 l 221 963 l 482 963 l 715 0 l 494 0 m 271 368 l 428 368 l 349 803 l 271 368 m 350 1296 q 437 1262 404 1296 q 469 1175 469 1228 q 436 1090 469 1124 q 350 1056 403 1056 q 264 1090 297 1056 q 231 1175 231 1124 q 264 1262 231 1228 q 350 1296 297 1296 z "},"Ạ":{"ha":703,"x_min":-12,"x_max":715,"o":"m 494 0 l 456 211 l 242 211 l 204 0 l -12 0 l 221 963 l 482 963 l 715 0 l 494 0 m 271 368 l 428 368 l 349 803 l 271 368 m 351 -326 q 265 -292 297 -326 q 232 -206 232 -258 q 265 -120 232 -154 q 351 -86 299 -86 q 438 -120 404 -86 q 471 -206 471 -154 q 438 -292 471 -258 q 351 -326 404 -326 z "},"Ǡ":{"ha":703,"x_min":-12,"x_max":715,"o":"m 494 0 l 456 211 l 242 211 l 204 0 l -12 0 l 221 963 l 482 963 l 715 0 l 494 0 m 271 368 l 428 368 l 349 803 l 271 368 m 350 1264 q 437 1230 404 1264 q 469 1143 469 1196 q 436 1058 469 1092 q 350 1024 403 1024 q 264 1058 297 1024 q 231 1143 231 1092 q 264 1230 231 1196 q 350 1264 297 1264 m 532 1310 l 171 1310 l 171 1451 l 532 1451 l 532 1310 z "},"À":{"ha":703,"x_min":-12,"x_max":715,"o":"m 494 0 l 456 211 l 242 211 l 204 0 l -12 0 l 221 963 l 482 963 l 715 0 l 494 0 m 271 368 l 428 368 l 349 803 l 271 368 m 261 1311 l 517 1146 l 464 1043 l 182 1160 l 261 1311 z "},"Ả":{"ha":703,"x_min":-12,"x_max":715,"o":"m 494 0 l 456 211 l 242 211 l 204 0 l -12 0 l 221 963 l 482 963 l 715 0 l 494 0 m 271 368 l 428 368 l 349 803 l 271 368 m 292 1185 q 354 1199 336 1188 q 372 1238 372 1210 q 360 1271 372 1260 q 329 1282 349 1282 q 294 1278 310 1282 q 260 1264 279 1274 l 228 1353 q 358 1388 283 1388 q 468 1349 429 1388 q 507 1249 507 1311 q 482 1163 507 1196 q 410 1121 457 1131 l 410 1061 l 292 1061 l 292 1185 z "},"Ȃ":{"ha":703,"x_min":-12,"x_max":715,"o":"m 494 0 l 456 211 l 242 211 l 204 0 l -12 0 l 221 963 l 482 963 l 715 0 l 494 0 m 271 368 l 428 368 l 349 803 l 271 368 m 353 1317 q 499 1255 447 1317 q 557 1083 550 1193 l 446 1063 q 353 1174 426 1174 q 257 1063 279 1174 l 147 1083 q 206 1255 154 1193 q 353 1317 258 1317 z "},"Ɑ":{"ha":793,"x_min":39,"x_max":776,"o":"m 729 215 q 740 162 729 181 q 776 132 750 143 l 717 -22 q 613 11 653 -11 q 549 69 574 33 q 353 -22 475 -22 q 124 101 208 -22 q 39 465 39 224 q 79 752 39 635 q 189 928 119 869 q 347 986 258 986 q 531 900 458 986 l 544 963 l 729 963 l 729 215 m 394 133 q 511 190 463 133 l 511 767 q 460 811 486 796 q 397 826 433 826 q 298 747 331 826 q 265 465 265 667 q 280 262 265 335 q 322 161 294 189 q 394 133 350 133 z "},"Ā":{"ha":703,"x_min":-12,"x_max":715,"o":"m 494 0 l 456 211 l 242 211 l 204 0 l -12 0 l 221 963 l 482 963 l 715 0 l 494 0 m 271 368 l 428 368 l 349 803 l 271 368 m 532 1089 l 171 1089 l 171 1231 l 532 1231 l 532 1089 z "},"Ą":{"ha":703,"x_min":-12,"x_max":715,"o":"m 600 0 q 496 -71 524 -36 q 468 -144 468 -106 q 529 -208 468 -208 q 596 -199 561 -208 l 583 -328 q 503 -339 543 -339 q 372 -297 422 -339 q 321 -181 321 -256 q 365 -57 321 -108 q 488 35 408 -6 l 456 211 l 242 211 l 204 0 l -12 0 l 221 963 l 482 963 l 715 0 l 600 0 m 271 368 l 428 368 l 349 803 l 271 368 z "},"Å":{"ha":703,"x_min":-12,"x_max":715,"o":"m 494 0 l 456 211 l 242 211 l 204 0 l -12 0 l 221 963 l 482 963 l 715 0 l 494 0 m 271 368 l 428 368 l 349 803 l 271 368 m 353 1375 q 476 1326 431 1375 q 522 1197 522 1276 q 476 1067 522 1117 q 353 1017 431 1017 q 228 1067 274 1017 q 183 1197 183 1117 q 228 1326 183 1276 q 353 1375 274 1375 m 353 1271 q 304 1197 304 1271 q 317 1140 304 1157 q 353 1122 329 1122 q 403 1197 403 1122 q 353 1271 403 1271 z "},"Ǻ":{"ha":703,"x_min":-12,"x_max":715,"o":"m 494 0 l 456 211 l 242 211 l 204 0 l -12 0 l 221 963 l 482 963 l 715 0 l 494 0 m 271 368 l 428 368 l 349 803 l 271 368 m 349 1358 q 472 1309 426 1358 q 518 1181 518 1260 q 472 1050 518 1100 q 349 1000 426 1000 q 224 1050 269 1000 q 179 1181 179 1100 q 224 1309 179 1260 q 349 1358 269 1358 m 349 1254 q 300 1181 300 1254 q 313 1123 300 1140 q 349 1106 325 1106 q 399 1181 399 1106 q 349 1254 399 1254 m 438 1639 l 517 1488 l 235 1369 l 182 1472 l 438 1639 z "},"Ⱥ":{"ha":703,"x_min":-12,"x_max":715,"o":"m 521 0 l 478 211 l 350 211 l 282 -103 l 213 -87 l 278 211 l 221 211 l 178 0 l -12 0 l 221 963 l 440 963 l 458 1049 l 529 1033 l 499 893 l 715 0 l 521 0 m 251 358 l 308 358 l 379 685 l 349 835 l 251 358 m 382 358 l 447 358 l 415 511 l 382 358 z "},"Ã":{"ha":703,"x_min":-12,"x_max":715,"o":"m 494 0 l 456 211 l 242 211 l 204 0 l -12 0 l 221 963 l 482 963 l 715 0 l 494 0 m 271 368 l 428 368 l 349 803 l 271 368 m 422 1067 q 377 1076 396 1067 q 335 1100 358 1085 q 286 1122 306 1122 q 256 1109 268 1122 q 226 1065 243 1096 l 129 1111 q 192 1223 151 1181 q 283 1265 232 1265 q 326 1257 308 1265 q 371 1232 344 1249 q 397 1214 386 1219 q 421 1208 408 1208 q 451 1222 439 1208 q 478 1264 463 1235 l 576 1219 q 514 1108 554 1149 q 422 1067 474 1067 z "},"Æ":{"ha":976,"x_min":-28,"x_max":951,"o":"m 686 158 l 951 158 l 951 0 l 503 0 l 478 211 l 257 211 l 203 0 l -28 0 l 281 963 l 910 963 l 888 807 l 597 807 l 631 564 l 900 564 l 900 410 l 651 410 l 686 158 m 297 369 l 460 369 l 408 803 l 297 369 z "},"Ǽ":{"ha":976,"x_min":-28,"x_max":951,"o":"m 686 158 l 951 158 l 951 0 l 503 0 l 478 211 l 257 211 l 203 0 l -28 0 l 281 963 l 910 963 l 888 807 l 597 807 l 631 564 l 900 564 l 900 410 l 651 410 l 686 158 m 297 369 l 460 369 l 408 803 l 297 369 m 644 1313 l 724 1161 l 442 1043 l 389 1146 l 644 1313 z "},"Ǣ":{"ha":976,"x_min":-28,"x_max":951,"o":"m 686 158 l 951 158 l 951 0 l 503 0 l 478 211 l 257 211 l 203 0 l -28 0 l 281 963 l 910 963 l 888 807 l 597 807 l 631 564 l 900 564 l 900 410 l 651 410 l 686 158 m 297 369 l 460 369 l 408 803 l 297 369 m 738 1089 l 376 1089 l 376 1231 l 738 1231 l 738 1089 z "},"B":{"ha":713,"x_min":64,"x_max":692,"o":"m 497 510 q 639 435 586 489 q 692 279 692 382 q 594 67 692 135 q 329 0 497 0 l 64 0 l 64 963 l 299 963 q 564 901 469 963 q 658 717 658 839 q 614 583 658 635 q 497 510 569 531 m 282 808 l 282 575 l 324 575 q 413 606 386 575 q 439 696 439 636 q 410 780 439 751 q 319 808 382 808 l 282 808 m 332 158 q 435 190 400 158 q 469 292 469 221 q 438 395 469 361 q 336 429 406 429 l 282 429 l 282 158 l 332 158 z "},"Ḃ":{"ha":713,"x_min":64,"x_max":692,"o":"m 497 510 q 639 435 586 489 q 692 279 692 382 q 594 67 692 135 q 329 0 497 0 l 64 0 l 64 963 l 299 963 q 564 901 469 963 q 658 717 658 839 q 614 583 658 635 q 497 510 569 531 m 282 808 l 282 575 l 324 575 q 413 606 386 575 q 439 696 439 636 q 410 780 439 751 q 319 808 382 808 l 282 808 m 332 158 q 435 190 400 158 q 469 292 469 221 q 438 395 469 361 q 336 429 406 429 l 282 429 l 282 158 l 332 158 m 339 1296 q 426 1262 393 1296 q 458 1175 458 1228 q 425 1090 458 1124 q 339 1056 392 1056 q 253 1090 286 1056 q 219 1175 219 1124 q 253 1262 219 1228 q 339 1296 286 1296 z "},"Ḅ":{"ha":713,"x_min":64,"x_max":692,"o":"m 497 510 q 639 435 586 489 q 692 279 692 382 q 594 67 692 135 q 329 0 497 0 l 64 0 l 64 963 l 299 963 q 564 901 469 963 q 658 717 658 839 q 614 583 658 635 q 497 510 569 531 m 282 808 l 282 575 l 324 575 q 413 606 386 575 q 439 696 439 636 q 410 780 439 751 q 319 808 382 808 l 282 808 m 332 158 q 435 190 400 158 q 469 292 469 221 q 438 395 469 361 q 336 429 406 429 l 282 429 l 282 158 l 332 158 m 361 -326 q 274 -292 307 -326 q 242 -206 242 -258 q 275 -120 242 -154 q 361 -86 308 -86 q 447 -120 414 -86 q 481 -206 481 -154 q 447 -292 481 -258 q 361 -326 414 -326 z "},"Ꞵ":{"ha":713,"x_min":64,"x_max":692,"o":"m 497 510 q 639 436 586 489 q 692 282 692 383 q 648 122 692 186 q 535 29 604 58 q 385 0 465 0 q 282 10 326 0 l 282 -292 l 64 -292 l 64 963 l 303 963 q 566 900 474 963 q 658 715 658 838 q 614 583 658 635 q 497 510 569 531 m 344 158 q 469 299 469 158 q 442 399 469 368 q 354 429 414 429 l 333 429 l 344 575 l 354 575 q 439 692 439 575 q 411 780 439 751 q 322 808 383 808 l 282 808 l 282 163 q 344 158 311 158 z "},"Ɓ":{"ha":894,"x_min":4,"x_max":874,"o":"m 679 510 q 821 435 768 489 q 874 279 874 382 q 776 67 874 135 q 511 0 679 0 l 246 0 l 246 807 l 221 807 q 168 749 168 807 q 193 653 168 703 l 60 594 q 19 675 33 633 q 4 769 4 717 q 63 910 4 858 q 231 963 121 963 l 481 963 q 746 901 651 963 q 840 717 840 839 q 796 583 840 635 q 679 510 751 531 m 464 808 l 464 575 l 506 575 q 594 606 568 575 q 621 696 621 636 q 592 780 621 751 q 501 808 564 808 l 464 808 m 514 158 q 617 190 582 158 q 651 292 651 221 q 619 395 651 361 q 518 429 588 429 l 464 429 l 464 158 l 514 158 z "},"Ƀ":{"ha":729,"x_min":19,"x_max":708,"o":"m 514 510 q 656 435 603 489 q 708 279 708 382 q 611 67 708 135 q 346 0 514 0 l 81 0 l 81 244 l 19 244 l 19 350 l 81 350 l 81 963 l 315 963 q 581 901 486 963 q 675 717 675 839 q 631 583 675 635 q 514 510 586 531 m 299 808 l 299 575 l 340 575 q 429 606 403 575 q 456 696 456 636 q 427 780 456 751 q 336 808 399 808 l 299 808 m 349 158 q 451 190 417 158 q 486 292 486 221 q 454 395 486 361 q 353 429 422 429 l 299 429 l 299 350 l 404 350 l 404 244 l 299 244 l 299 158 l 349 158 z "},"Ƃ":{"ha":696,"x_min":64,"x_max":679,"o":"m 353 617 q 596 542 513 617 q 679 317 679 467 q 592 78 679 157 q 343 0 504 0 l 64 0 l 64 963 l 583 963 l 563 797 l 282 797 l 282 617 l 353 617 m 333 158 q 424 195 397 158 q 451 315 451 232 q 424 428 451 392 q 331 465 396 465 l 282 465 l 282 158 l 333 158 z "},"C":{"ha":672,"x_min":39,"x_max":669,"o":"m 407 986 q 545 960 483 986 q 661 881 607 933 l 560 761 q 492 808 525 792 q 422 824 460 824 q 306 745 346 824 q 265 483 265 667 q 306 225 265 304 q 424 146 347 146 q 496 163 465 146 q 571 215 526 179 l 669 99 q 553 10 619 44 q 404 -24 486 -24 q 138 104 238 -24 q 39 483 39 232 q 85 761 39 649 q 215 930 132 874 q 407 986 299 986 z "},"Ć":{"ha":672,"x_min":39,"x_max":669,"o":"m 407 986 q 545 960 483 986 q 661 881 607 933 l 560 761 q 492 808 525 792 q 422 824 460 824 q 306 745 346 824 q 265 483 265 667 q 306 225 265 304 q 424 146 347 146 q 496 163 465 146 q 571 215 526 179 l 669 99 q 553 10 619 44 q 404 -24 486 -24 q 138 104 238 -24 q 39 483 39 232 q 85 761 39 649 q 215 930 132 874 q 407 986 299 986 m 504 1313 l 583 1161 l 301 1043 l 249 1146 l 504 1313 z "},"Č":{"ha":672,"x_min":39,"x_max":669,"o":"m 407 986 q 545 960 483 986 q 661 881 607 933 l 560 761 q 492 808 525 792 q 422 824 460 824 q 306 745 346 824 q 265 483 265 667 q 306 225 265 304 q 424 146 347 146 q 496 163 465 146 q 571 215 526 179 l 669 99 q 553 10 619 44 q 404 -24 486 -24 q 138 104 238 -24 q 39 483 39 232 q 85 761 39 649 q 215 930 132 874 q 407 986 299 986 m 571 1300 l 643 1224 l 479 1042 l 354 1042 l 190 1224 l 263 1300 l 417 1183 l 571 1300 z "},"Ç":{"ha":672,"x_min":39,"x_max":669,"o":"m 669 99 q 574 21 629 53 q 451 -21 518 -11 l 451 -74 q 572 -206 572 -93 q 525 -317 572 -275 q 393 -360 478 -360 q 256 -319 313 -360 l 303 -228 q 378 -246 339 -246 q 426 -203 426 -246 q 401 -165 426 -176 q 321 -154 376 -154 l 335 -18 q 118 135 197 8 q 39 483 39 261 q 85 761 39 649 q 215 930 132 874 q 407 986 299 986 q 545 960 483 986 q 661 881 607 933 l 560 761 q 492 808 525 792 q 422 824 460 824 q 306 745 346 824 q 265 483 265 667 q 306 225 265 304 q 424 146 347 146 q 496 163 465 146 q 571 215 526 179 l 669 99 z "},"Ĉ":{"ha":672,"x_min":39,"x_max":669,"o":"m 407 986 q 545 960 483 986 q 661 881 607 933 l 560 761 q 492 808 525 792 q 422 824 460 824 q 306 745 346 824 q 265 483 265 667 q 306 225 265 304 q 424 146 347 146 q 496 163 465 146 q 571 215 526 179 l 669 99 q 553 10 619 44 q 404 -24 486 -24 q 138 104 238 -24 q 39 483 39 232 q 85 761 39 649 q 215 930 132 874 q 407 986 299 986 m 263 1056 l 190 1131 l 354 1313 l 479 1313 l 643 1131 l 571 1056 l 417 1171 l 263 1056 z "},"Ċ":{"ha":672,"x_min":39,"x_max":669,"o":"m 407 986 q 545 960 483 986 q 661 881 607 933 l 560 761 q 492 808 525 792 q 422 824 460 824 q 306 745 346 824 q 265 483 265 667 q 306 225 265 304 q 424 146 347 146 q 496 163 465 146 q 571 215 526 179 l 669 99 q 553 10 619 44 q 404 -24 486 -24 q 138 104 238 -24 q 39 483 39 232 q 85 761 39 649 q 215 930 132 874 q 407 986 299 986 m 415 1296 q 502 1262 469 1296 q 535 1175 535 1228 q 501 1090 535 1124 q 415 1056 468 1056 q 329 1090 363 1056 q 296 1175 296 1124 q 329 1262 296 1228 q 415 1296 363 1296 z "},"Ꭓ":{"ha":669,"x_min":-10,"x_max":679,"o":"m 461 413 l 679 -219 l 447 -219 l 329 267 l 217 -219 l -10 -219 l 199 404 l 6 963 l 238 963 l 332 542 l 435 963 l 660 963 l 461 413 z "},"Ƈ":{"ha":672,"x_min":39,"x_max":844,"o":"m 681 1182 q 844 1131 768 1182 l 786 1006 q 749 1022 764 1017 q 714 1026 733 1026 q 674 1010 686 1026 q 661 956 661 994 l 661 881 l 565 768 q 494 810 528 796 q 422 824 460 824 q 306 745 346 824 q 265 483 265 667 q 306 225 265 304 q 424 146 347 146 q 496 163 465 146 q 571 215 526 179 l 669 99 q 553 10 619 44 q 404 -24 486 -24 q 138 104 238 -24 q 39 483 39 232 q 85 760 39 646 q 210 930 132 874 q 383 986 288 986 q 481 965 435 986 l 481 975 q 535 1127 481 1072 q 681 1182 589 1182 z "},"Ȼ":{"ha":672,"x_min":39,"x_max":669,"o":"m 669 99 q 553 10 619 44 q 404 -24 486 -24 q 324 -15 361 -24 l 304 -103 l 231 -87 l 251 10 q 95 178 151 58 q 39 483 39 297 q 85 761 39 649 q 215 930 132 874 q 407 986 299 986 q 464 982 436 986 l 478 1049 l 550 1033 l 535 964 q 661 881 597 940 l 560 761 q 500 804 525 790 l 361 161 q 424 146 388 146 q 496 163 465 146 q 571 215 526 179 l 669 99 m 265 483 q 301 236 265 317 l 429 824 l 422 824 q 306 745 346 824 q 265 483 265 667 z "},"D":{"ha":763,"x_min":64,"x_max":724,"o":"m 307 963 q 522 926 432 963 q 667 784 611 889 q 724 486 724 679 q 615 108 724 215 q 322 0 506 0 l 64 0 l 64 963 l 307 963 m 282 806 l 282 158 l 335 158 q 426 187 390 158 q 481 287 461 215 q 500 486 500 358 q 480 685 500 615 q 424 780 460 754 q 335 806 389 806 l 282 806 z "},"Ǳ":{"ha":1353,"x_min":64,"x_max":1335,"o":"m 307 963 q 522 926 432 963 q 667 784 611 889 q 724 486 724 679 q 615 108 724 215 q 322 0 506 0 l 64 0 l 64 963 l 307 963 m 282 806 l 282 158 l 335 158 q 426 187 390 158 q 481 287 461 215 q 500 486 500 358 q 480 685 500 615 q 424 780 460 754 q 335 806 389 806 l 282 806 m 1328 963 l 1328 797 l 979 175 l 1335 175 l 1314 0 l 742 0 l 742 163 l 1089 793 l 775 793 l 775 963 l 1328 963 z "},"Ǆ":{"ha":1353,"x_min":64,"x_max":1335,"o":"m 307 963 q 522 926 432 963 q 667 784 611 889 q 724 486 724 679 q 615 108 724 215 q 322 0 506 0 l 64 0 l 64 963 l 307 963 m 282 806 l 282 158 l 335 158 q 426 187 390 158 q 481 287 461 215 q 500 486 500 358 q 480 685 500 615 q 424 780 460 754 q 335 806 389 806 l 282 806 m 1328 963 l 1328 797 l 979 175 l 1335 175 l 1314 0 l 742 0 l 742 163 l 1089 793 l 775 793 l 775 963 l 1328 963 m 1199 1300 l 1271 1224 l 1107 1042 l 982 1042 l 818 1224 l 890 1300 l 1044 1183 l 1199 1300 z "},"Ɖ":{"ha":786,"x_min":19,"x_max":747,"o":"m 331 963 q 545 926 456 963 q 691 784 635 889 q 747 486 747 679 q 638 108 747 215 q 346 0 529 0 l 88 0 l 88 424 l 19 424 l 19 557 l 88 557 l 88 963 l 331 963 m 358 158 q 449 187 414 158 q 504 287 485 215 q 524 486 524 358 q 503 685 524 615 q 448 780 483 754 q 358 806 413 806 l 306 806 l 306 557 l 424 557 l 424 424 l 306 424 l 306 158 l 358 158 z "},"Ð":{"ha":786,"x_min":19,"x_max":747,"o":"m 331 963 q 545 926 456 963 q 691 784 635 889 q 747 486 747 679 q 638 108 747 215 q 346 0 529 0 l 88 0 l 88 424 l 19 424 l 19 557 l 88 557 l 88 963 l 331 963 m 358 158 q 449 187 414 158 q 504 287 485 215 q 524 486 524 358 q 503 685 524 615 q 448 780 483 754 q 358 806 413 806 l 306 806 l 306 557 l 424 557 l 424 424 l 306 424 l 306 158 l 358 158 z "},"Ď":{"ha":763,"x_min":64,"x_max":724,"o":"m 307 963 q 522 926 432 963 q 667 784 611 889 q 724 486 724 679 q 615 108 724 215 q 322 0 506 0 l 64 0 l 64 963 l 307 963 m 282 806 l 282 158 l 335 158 q 426 187 390 158 q 481 287 461 215 q 500 486 500 358 q 480 685 500 615 q 424 780 460 754 q 335 806 389 806 l 282 806 m 494 1300 l 567 1224 l 403 1042 l 278 1042 l 114 1224 l 186 1300 l 340 1183 l 494 1300 z "},"Ḓ":{"ha":763,"x_min":64,"x_max":724,"o":"m 307 963 q 522 926 432 963 q 667 784 611 889 q 724 486 724 679 q 615 108 724 215 q 322 0 506 0 l 64 0 l 64 963 l 307 963 m 282 806 l 282 158 l 335 158 q 426 187 390 158 q 481 287 461 215 q 500 486 500 358 q 480 685 500 615 q 424 780 460 754 q 335 806 389 806 l 282 806 m 201 -357 l 129 -282 l 293 -89 l 418 -89 l 582 -282 l 510 -357 l 356 -231 l 201 -357 z "},"Đ":{"ha":786,"x_min":19,"x_max":747,"o":"m 331 963 q 545 926 456 963 q 691 784 635 889 q 747 486 747 679 q 638 108 747 215 q 346 0 529 0 l 88 0 l 88 424 l 19 424 l 19 557 l 88 557 l 88 963 l 331 963 m 358 158 q 449 187 414 158 q 504 287 485 215 q 524 486 524 358 q 503 685 524 615 q 448 780 483 754 q 358 806 413 806 l 306 806 l 306 557 l 424 557 l 424 424 l 306 424 l 306 158 l 358 158 z "},"Ḋ":{"ha":763,"x_min":64,"x_max":724,"o":"m 307 963 q 522 926 432 963 q 667 784 611 889 q 724 486 724 679 q 615 108 724 215 q 322 0 506 0 l 64 0 l 64 963 l 307 963 m 282 806 l 282 158 l 335 158 q 426 187 390 158 q 481 287 461 215 q 500 486 500 358 q 480 685 500 615 q 424 780 460 754 q 335 806 389 806 l 282 806 m 339 1296 q 426 1262 393 1296 q 458 1175 458 1228 q 425 1090 458 1124 q 339 1056 392 1056 q 253 1090 286 1056 q 219 1175 219 1124 q 253 1262 219 1228 q 339 1296 286 1296 z "},"Ḍ":{"ha":763,"x_min":64,"x_max":724,"o":"m 307 963 q 522 926 432 963 q 667 784 611 889 q 724 486 724 679 q 615 108 724 215 q 322 0 506 0 l 64 0 l 64 963 l 307 963 m 282 806 l 282 158 l 335 158 q 426 187 390 158 q 481 287 461 215 q 500 486 500 358 q 480 685 500 615 q 424 780 460 754 q 335 806 389 806 l 282 806 m 358 -326 q 272 -292 304 -326 q 239 -206 239 -258 q 272 -120 239 -154 q 358 -86 306 -86 q 444 -120 411 -86 q 478 -206 478 -154 q 444 -292 478 -258 q 358 -326 411 -326 z "},"Ɗ":{"ha":944,"x_min":4,"x_max":906,"o":"m 489 963 q 703 926 614 963 q 849 784 793 889 q 906 486 906 679 q 797 108 906 215 q 504 0 688 0 l 246 0 l 246 807 l 221 807 q 168 749 168 807 q 193 653 168 703 l 60 594 q 19 675 33 633 q 4 769 4 717 q 63 910 4 858 q 231 963 121 963 l 489 963 m 517 158 q 608 187 572 158 q 663 287 643 215 q 682 486 682 358 q 662 685 682 615 q 606 780 642 754 q 517 806 571 806 l 464 806 l 464 158 l 517 158 z "},"Ḏ":{"ha":763,"x_min":64,"x_max":724,"o":"m 307 963 q 522 926 432 963 q 667 784 611 889 q 724 486 724 679 q 615 108 724 215 q 322 0 506 0 l 64 0 l 64 963 l 307 963 m 282 806 l 282 158 l 335 158 q 426 187 390 158 q 481 287 461 215 q 500 486 500 358 q 480 685 500 615 q 424 780 460 754 q 335 806 389 806 l 282 806 m 540 -260 l 179 -260 l 179 -118 l 540 -118 l 540 -260 z "},"Ƌ":{"ha":696,"x_min":18,"x_max":632,"o":"m 632 0 l 361 0 q 18 310 18 0 q 103 538 18 460 q 351 617 189 617 l 414 617 l 414 797 l 121 797 l 121 963 l 632 963 l 632 0 m 414 158 l 414 465 l 375 465 q 274 428 304 465 q 244 310 244 392 q 274 193 244 228 q 371 158 303 158 l 414 158 z "},"ǲ":{"ha":1283,"x_min":64,"x_max":1269,"o":"m 307 963 q 522 926 432 963 q 667 784 611 889 q 724 486 724 679 q 615 108 724 215 q 322 0 506 0 l 64 0 l 64 963 l 307 963 m 282 806 l 282 158 l 335 158 q 426 187 390 158 q 481 287 461 215 q 500 486 500 358 q 480 685 500 615 q 424 780 460 754 q 335 806 389 806 l 282 806 m 1264 738 l 1264 589 l 989 160 l 1269 160 l 1253 0 l 761 0 l 761 149 l 1036 579 l 785 579 l 785 738 l 1264 738 z "},"ǅ":{"ha":1283,"x_min":64,"x_max":1269,"o":"m 307 963 q 522 926 432 963 q 667 784 611 889 q 724 486 724 679 q 615 108 724 215 q 322 0 506 0 l 64 0 l 64 963 l 307 963 m 282 806 l 282 158 l 335 158 q 426 187 390 158 q 481 287 461 215 q 500 486 500 358 q 480 685 500 615 q 424 780 460 754 q 335 806 389 806 l 282 806 m 1264 738 l 1264 589 l 989 160 l 1269 160 l 1253 0 l 761 0 l 761 149 l 1036 579 l 785 579 l 785 738 l 1264 738 m 1178 1121 l 1250 1044 l 1086 851 l 961 851 l 797 1044 l 869 1121 l 1024 992 l 1178 1121 z "},"E":{"ha":600,"x_min":64,"x_max":572,"o":"m 572 963 l 550 807 l 282 807 l 282 565 l 518 565 l 518 413 l 282 413 l 282 158 l 568 158 l 568 0 l 64 0 l 64 963 l 572 963 z "},"É":{"ha":600,"x_min":64,"x_max":572,"o":"m 572 963 l 550 807 l 282 807 l 282 565 l 518 565 l 518 413 l 282 413 l 282 158 l 568 158 l 568 0 l 64 0 l 64 963 l 572 963 m 407 1313 l 486 1161 l 204 1043 l 151 1146 l 407 1313 z "},"Ĕ":{"ha":600,"x_min":64,"x_max":572,"o":"m 572 963 l 550 807 l 282 807 l 282 565 l 518 565 l 518 413 l 282 413 l 282 158 l 568 158 l 568 0 l 64 0 l 64 963 l 572 963 m 321 1044 q 175 1103 226 1044 q 115 1263 124 1163 l 225 1285 q 321 1190 247 1190 q 382 1215 358 1190 q 414 1285 406 1239 l 525 1263 q 465 1103 517 1163 q 321 1044 414 1044 z "},"Ě":{"ha":600,"x_min":64,"x_max":572,"o":"m 572 963 l 550 807 l 282 807 l 282 565 l 518 565 l 518 413 l 282 413 l 282 158 l 568 158 l 568 0 l 64 0 l 64 963 l 572 963 m 474 1300 l 546 1224 l 382 1042 l 257 1042 l 93 1224 l 165 1300 l 319 1183 l 474 1300 z "},"Ȩ":{"ha":600,"x_min":64,"x_max":572,"o":"m 282 158 l 568 158 l 568 0 l 368 0 l 368 -74 q 489 -206 489 -93 q 442 -317 489 -275 q 310 -360 394 -360 q 172 -319 229 -360 l 219 -228 q 294 -246 256 -246 q 343 -203 343 -246 q 318 -165 343 -176 q 238 -154 293 -154 l 253 0 l 64 0 l 64 963 l 572 963 l 550 807 l 282 807 l 282 565 l 518 565 l 518 413 l 282 413 l 282 158 z "},"Ê":{"ha":600,"x_min":64,"x_max":572,"o":"m 572 963 l 550 807 l 282 807 l 282 565 l 518 565 l 518 413 l 282 413 l 282 158 l 568 158 l 568 0 l 64 0 l 64 963 l 572 963 m 165 1056 l 93 1131 l 257 1313 l 382 1313 l 546 1131 l 474 1056 l 319 1171 l 165 1056 z "},"Ế":{"ha":600,"x_min":64,"x_max":719,"o":"m 572 963 l 550 807 l 282 807 l 282 565 l 518 565 l 518 413 l 282 413 l 282 158 l 568 158 l 568 0 l 64 0 l 64 963 l 572 963 m 165 1008 l 93 1083 l 257 1265 l 382 1265 l 546 1083 l 474 1008 l 319 1124 l 165 1008 m 597 1508 l 719 1403 l 519 1203 l 438 1269 l 597 1508 z "},"Ệ":{"ha":600,"x_min":64,"x_max":572,"o":"m 572 963 l 550 807 l 282 807 l 282 565 l 518 565 l 518 413 l 282 413 l 282 158 l 568 158 l 568 0 l 64 0 l 64 963 l 572 963 m 165 1056 l 93 1131 l 257 1313 l 382 1313 l 546 1131 l 474 1056 l 319 1171 l 165 1056 m 315 -326 q 228 -292 261 -326 q 196 -206 196 -258 q 229 -120 196 -154 q 315 -86 263 -86 q 401 -120 368 -86 q 435 -206 435 -154 q 401 -292 435 -258 q 315 -326 368 -326 z "},"Ề":{"ha":600,"x_min":-81,"x_max":572,"o":"m 572 963 l 550 807 l 282 807 l 282 565 l 518 565 l 518 413 l 282 413 l 282 158 l 568 158 l 568 0 l 64 0 l 64 963 l 572 963 m 164 1008 l 92 1083 l 256 1265 l 381 1265 l 544 1083 l 472 1008 l 318 1124 l 164 1008 m 42 1508 l 203 1269 l 121 1203 l -81 1403 l 42 1508 z "},"Ể":{"ha":600,"x_min":64,"x_max":682,"o":"m 572 963 l 550 807 l 282 807 l 282 565 l 518 565 l 518 413 l 282 413 l 282 158 l 568 158 l 568 0 l 64 0 l 64 963 l 572 963 m 165 1008 l 93 1083 l 257 1265 l 382 1265 l 546 1083 l 474 1008 l 319 1124 l 165 1008 m 467 1308 q 529 1322 511 1311 q 547 1361 547 1333 q 535 1394 547 1383 q 504 1406 524 1406 q 469 1401 485 1406 q 435 1388 454 1397 l 403 1476 q 533 1511 458 1511 q 643 1473 604 1511 q 682 1372 682 1435 q 657 1287 682 1319 q 585 1244 632 1254 l 585 1185 l 467 1185 l 467 1308 z "},"Ễ":{"ha":600,"x_min":64,"x_max":572,"o":"m 572 963 l 550 807 l 282 807 l 282 565 l 518 565 l 518 413 l 282 413 l 282 158 l 568 158 l 568 0 l 64 0 l 64 963 l 572 963 m 164 1008 l 92 1083 l 256 1265 l 381 1265 l 544 1083 l 472 1008 l 318 1124 l 164 1008 m 388 1311 q 342 1319 361 1311 q 300 1343 322 1328 q 251 1364 268 1364 q 221 1351 233 1364 q 192 1310 208 1339 l 94 1353 q 158 1458 118 1418 q 249 1499 197 1499 q 293 1490 275 1499 q 336 1467 311 1482 q 386 1444 365 1444 q 416 1457 404 1444 q 443 1497 428 1469 l 542 1456 q 479 1350 519 1389 q 388 1311 439 1311 z "},"Ȅ":{"ha":600,"x_min":33,"x_max":572,"o":"m 572 963 l 550 807 l 282 807 l 282 565 l 518 565 l 518 413 l 282 413 l 282 158 l 568 158 l 568 0 l 64 0 l 64 963 l 572 963 m 164 1363 l 276 1093 l 179 1044 l 33 1293 l 164 1363 m 374 1363 l 478 1093 l 378 1051 l 242 1297 l 374 1363 z "},"Ë":{"ha":600,"x_min":64,"x_max":572,"o":"m 572 963 l 550 807 l 282 807 l 282 565 l 518 565 l 518 413 l 282 413 l 282 158 l 568 158 l 568 0 l 64 0 l 64 963 l 572 963 m 190 1279 q 264 1249 235 1279 q 293 1174 293 1218 q 265 1098 293 1128 q 190 1068 236 1068 q 116 1099 146 1068 q 86 1174 86 1129 q 116 1249 86 1218 q 190 1279 146 1279 m 463 1279 q 536 1249 507 1279 q 565 1174 565 1218 q 537 1098 565 1128 q 463 1068 508 1068 q 390 1099 419 1068 q 360 1174 360 1129 q 390 1249 360 1218 q 463 1279 419 1279 z "},"Ė":{"ha":600,"x_min":64,"x_max":572,"o":"m 572 963 l 550 807 l 282 807 l 282 565 l 518 565 l 518 413 l 282 413 l 282 158 l 568 158 l 568 0 l 64 0 l 64 963 l 572 963 m 318 1296 q 405 1262 372 1296 q 438 1175 438 1228 q 404 1090 438 1124 q 318 1056 371 1056 q 232 1090 265 1056 q 199 1175 199 1124 q 232 1262 199 1228 q 318 1296 265 1296 z "},"Ẹ":{"ha":600,"x_min":64,"x_max":572,"o":"m 572 963 l 550 807 l 282 807 l 282 565 l 518 565 l 518 413 l 282 413 l 282 158 l 568 158 l 568 0 l 64 0 l 64 963 l 572 963 m 315 -326 q 228 -292 261 -326 q 196 -206 196 -258 q 229 -120 196 -154 q 315 -86 263 -86 q 401 -120 368 -86 q 435 -206 435 -154 q 401 -292 435 -258 q 315 -326 368 -326 z "},"È":{"ha":600,"x_min":64,"x_max":572,"o":"m 572 963 l 550 807 l 282 807 l 282 565 l 518 565 l 518 413 l 282 413 l 282 158 l 568 158 l 568 0 l 64 0 l 64 963 l 572 963 m 229 1311 l 485 1146 l 432 1043 l 150 1160 l 229 1311 z "},"Ẻ":{"ha":600,"x_min":64,"x_max":572,"o":"m 572 963 l 550 807 l 282 807 l 282 565 l 518 565 l 518 413 l 282 413 l 282 158 l 568 158 l 568 0 l 64 0 l 64 963 l 572 963 m 260 1185 q 322 1199 304 1188 q 340 1238 340 1210 q 328 1271 340 1260 q 297 1282 317 1282 q 263 1278 278 1282 q 228 1264 247 1274 l 196 1353 q 326 1388 251 1388 q 436 1349 397 1388 q 475 1249 475 1311 q 450 1163 475 1196 q 378 1121 425 1131 l 378 1061 l 260 1061 l 260 1185 z "},"Ȇ":{"ha":600,"x_min":64,"x_max":572,"o":"m 572 963 l 550 807 l 282 807 l 282 565 l 518 565 l 518 413 l 282 413 l 282 158 l 568 158 l 568 0 l 64 0 l 64 963 l 572 963 m 321 1317 q 467 1255 415 1317 q 525 1083 518 1193 l 414 1063 q 321 1174 394 1174 q 225 1063 247 1174 l 115 1083 q 174 1255 122 1193 q 321 1317 226 1317 z "},"Ē":{"ha":600,"x_min":64,"x_max":572,"o":"m 572 963 l 550 807 l 282 807 l 282 565 l 518 565 l 518 413 l 282 413 l 282 158 l 568 158 l 568 0 l 64 0 l 64 963 l 572 963 m 500 1089 l 139 1089 l 139 1231 l 500 1231 l 500 1089 z "},"Ę":{"ha":600,"x_min":64,"x_max":572,"o":"m 282 158 l 568 158 l 568 0 l 524 0 q 419 -71 447 -36 q 392 -144 392 -106 q 453 -208 392 -208 q 519 -199 485 -208 l 507 -328 q 426 -339 467 -339 q 295 -297 346 -339 q 244 -181 244 -256 q 351 0 244 -72 l 64 0 l 64 963 l 572 963 l 550 807 l 282 807 l 282 565 l 518 565 l 518 413 l 282 413 l 282 158 z "},"Ɛ":{"ha":626,"x_min":21,"x_max":633,"o":"m 336 986 q 484 954 418 986 q 607 860 550 922 l 508 753 q 364 828 431 828 q 290 795 314 828 q 267 710 267 763 q 296 618 267 650 q 382 586 325 586 l 463 586 l 438 428 l 378 428 q 249 285 249 428 q 279 175 249 211 q 367 139 310 139 q 445 158 410 139 q 521 218 481 178 l 633 111 q 509 11 579 44 q 343 -22 439 -22 q 176 13 249 -22 q 62 115 103 49 q 21 271 21 181 q 75 438 21 378 q 229 511 129 497 q 90 589 135 532 q 44 732 44 646 q 81 863 44 804 q 185 953 118 921 q 336 986 251 986 z "},"Ǝ":{"ha":600,"x_min":32,"x_max":536,"o":"m 38 963 l 536 963 l 536 0 l 32 0 l 32 158 l 317 158 l 317 413 l 82 413 l 82 565 l 317 565 l 317 807 l 38 807 l 38 963 z "},"Ʃ":{"ha":574,"x_min":15,"x_max":557,"o":"m 557 963 l 557 804 l 235 804 l 432 519 l 432 429 l 229 163 l 557 163 l 557 0 l 15 0 l 15 158 l 246 472 l 15 804 l 15 963 l 557 963 z "},"Ɇ":{"ha":600,"x_min":64,"x_max":572,"o":"m 411 413 l 361 158 l 568 158 l 568 0 l 329 0 l 308 -103 l 236 -87 l 254 0 l 64 0 l 64 963 l 447 963 l 465 1049 l 536 1035 l 522 963 l 572 963 l 550 807 l 490 807 l 442 565 l 518 565 l 518 413 l 411 413 m 282 807 l 282 565 l 368 565 l 417 807 l 282 807 m 282 158 l 286 158 l 338 413 l 282 413 l 282 158 z "},"Ẽ":{"ha":600,"x_min":64,"x_max":572,"o":"m 572 963 l 550 807 l 282 807 l 282 565 l 518 565 l 518 413 l 282 413 l 282 158 l 568 158 l 568 0 l 64 0 l 64 963 l 572 963 m 390 1067 q 345 1076 364 1067 q 303 1100 326 1085 q 254 1122 274 1122 q 224 1109 236 1122 q 194 1065 211 1096 l 97 1111 q 160 1223 119 1181 q 251 1265 200 1265 q 294 1257 276 1265 q 339 1232 313 1249 q 365 1214 354 1219 q 389 1208 376 1208 q 419 1222 407 1208 q 446 1264 431 1235 l 544 1219 q 482 1108 522 1149 q 390 1067 442 1067 z "},"Ʒ":{"ha":631,"x_min":0,"x_max":613,"o":"m 357 557 q 548 481 483 550 q 613 283 613 411 q 574 126 613 194 q 463 17 536 57 q 288 -22 389 -22 q 119 13 189 -22 q 0 118 50 49 l 115 217 q 189 157 154 175 q 269 139 224 139 q 358 178 326 139 q 389 293 389 218 q 356 399 389 367 q 253 431 322 431 l 143 431 l 143 554 l 349 804 l 50 804 l 50 963 l 568 963 l 568 808 l 357 557 z "},"Ǯ":{"ha":631,"x_min":0,"x_max":613,"o":"m 357 557 q 548 481 483 550 q 613 283 613 411 q 574 126 613 194 q 463 17 536 57 q 288 -22 389 -22 q 119 13 189 -22 q 0 118 50 49 l 115 217 q 189 157 154 175 q 269 139 224 139 q 358 178 326 139 q 389 293 389 218 q 356 399 389 367 q 253 431 322 431 l 143 431 l 143 554 l 349 804 l 50 804 l 50 963 l 568 963 l 568 808 l 357 557 m 463 1300 l 535 1224 l 371 1042 l 246 1042 l 82 1224 l 154 1300 l 308 1183 l 463 1300 z "},"Ƹ":{"ha":631,"x_min":18,"x_max":631,"o":"m 631 118 q 342 -22 525 -22 q 167 17 240 -22 q 56 124 94 56 q 18 281 18 193 q 275 557 18 539 l 63 808 l 63 963 l 581 963 l 581 804 l 282 804 l 488 554 l 488 431 l 378 431 q 275 397 308 431 q 242 286 242 363 q 272 176 242 213 q 358 139 301 139 q 439 157 404 139 q 515 217 474 175 l 631 118 z "},"F":{"ha":561,"x_min":64,"x_max":556,"o":"m 64 0 l 64 963 l 556 963 l 533 807 l 282 807 l 282 543 l 503 543 l 503 386 l 282 386 l 282 0 l 64 0 z "},"Ḟ":{"ha":561,"x_min":64,"x_max":556,"o":"m 64 0 l 64 963 l 556 963 l 533 807 l 282 807 l 282 543 l 503 543 l 503 386 l 282 386 l 282 0 l 64 0 m 321 1296 q 408 1262 375 1296 q 440 1175 440 1228 q 407 1090 440 1124 q 321 1056 374 1056 q 235 1090 268 1056 q 201 1175 201 1124 q 235 1262 201 1228 q 321 1296 268 1296 z "},"Ƒ":{"ha":561,"x_min":-140,"x_max":556,"o":"m 282 807 l 282 543 l 503 543 l 503 386 l 282 386 l 282 1 l 283 1 l 283 -67 q 216 -246 283 -185 q 36 -307 149 -307 q -140 -249 -67 -307 l -68 -125 q -31 -142 -47 -137 q 8 -147 -14 -147 q 65 -79 65 -147 l 65 0 l 64 0 l 64 963 l 556 963 l 533 807 l 282 807 z "},"G":{"ha":757,"x_min":39,"x_max":707,"o":"m 432 986 q 706 869 589 986 l 601 760 q 523 812 558 796 q 442 828 488 828 q 308 751 353 828 q 264 482 264 675 q 279 271 264 346 q 325 167 294 196 q 406 138 356 138 q 501 167 457 138 l 501 397 l 410 397 l 389 551 l 707 551 l 707 76 q 565 4 644 31 q 410 -22 486 -22 q 129 100 219 -22 q 39 482 39 222 q 90 763 39 650 q 229 931 140 876 q 432 986 318 986 z "},"Ǵ":{"ha":757,"x_min":39,"x_max":707,"o":"m 432 986 q 706 869 589 986 l 601 760 q 523 812 558 796 q 442 828 488 828 q 308 751 353 828 q 264 482 264 675 q 279 271 264 346 q 325 167 294 196 q 406 138 356 138 q 501 167 457 138 l 501 397 l 410 397 l 389 551 l 707 551 l 707 76 q 565 4 644 31 q 410 -22 486 -22 q 129 100 219 -22 q 39 482 39 222 q 90 763 39 650 q 229 931 140 876 q 432 986 318 986 m 497 1313 l 576 1161 l 294 1043 l 242 1146 l 497 1313 z "},"Ɣ":{"ha":678,"x_min":-12,"x_max":690,"o":"m 450 125 q 510 -14 492 46 q 528 -137 528 -74 q 343 -307 528 -307 q 157 -137 157 -307 q 175 -24 157 -83 q 236 125 193 35 l -12 963 l 206 963 l 342 263 l 478 963 l 690 963 l 450 125 m 375 -125 q 368 -71 375 -99 q 343 10 361 -43 q 311 -126 311 -79 q 343 -169 311 -169 q 375 -125 375 -169 z "},"Ğ":{"ha":757,"x_min":39,"x_max":707,"o":"m 432 986 q 706 869 589 986 l 601 760 q 523 812 558 796 q 442 828 488 828 q 308 751 353 828 q 264 482 264 675 q 279 271 264 346 q 325 167 294 196 q 406 138 356 138 q 501 167 457 138 l 501 397 l 410 397 l 389 551 l 707 551 l 707 76 q 565 4 644 31 q 410 -22 486 -22 q 129 100 219 -22 q 39 482 39 222 q 90 763 39 650 q 229 931 140 876 q 432 986 318 986 m 411 1044 q 265 1103 317 1044 q 206 1263 214 1163 l 315 1285 q 411 1190 338 1190 q 472 1215 449 1190 q 504 1285 496 1239 l 615 1263 q 556 1103 607 1163 q 411 1044 504 1044 z "},"Ǧ":{"ha":757,"x_min":39,"x_max":707,"o":"m 432 986 q 706 869 589 986 l 601 760 q 523 812 558 796 q 442 828 488 828 q 308 751 353 828 q 264 482 264 675 q 279 271 264 346 q 325 167 294 196 q 406 138 356 138 q 501 167 457 138 l 501 397 l 410 397 l 389 551 l 707 551 l 707 76 q 565 4 644 31 q 410 -22 486 -22 q 129 100 219 -22 q 39 482 39 222 q 90 763 39 650 q 229 931 140 876 q 432 986 318 986 m 564 1300 l 636 1224 l 472 1042 l 347 1042 l 183 1224 l 256 1300 l 410 1183 l 564 1300 z "},"Ĝ":{"ha":757,"x_min":39,"x_max":707,"o":"m 432 986 q 706 869 589 986 l 601 760 q 523 812 558 796 q 442 828 488 828 q 308 751 353 828 q 264 482 264 675 q 279 271 264 346 q 325 167 294 196 q 406 138 356 138 q 501 167 457 138 l 501 397 l 410 397 l 389 551 l 707 551 l 707 76 q 565 4 644 31 q 410 -22 486 -22 q 129 100 219 -22 q 39 482 39 222 q 90 763 39 650 q 229 931 140 876 q 432 986 318 986 m 256 1056 l 183 1131 l 347 1313 l 472 1313 l 636 1131 l 564 1056 l 410 1171 l 256 1056 z "},"Ģ":{"ha":757,"x_min":39,"x_max":707,"o":"m 432 986 q 706 869 589 986 l 601 760 q 523 812 558 796 q 442 828 488 828 q 308 751 353 828 q 264 482 264 675 q 279 271 264 346 q 325 167 294 196 q 406 138 356 138 q 501 167 457 138 l 501 397 l 410 397 l 389 551 l 707 551 l 707 76 q 565 4 644 31 q 410 -22 486 -22 q 129 100 219 -22 q 39 482 39 222 q 90 763 39 650 q 229 931 140 876 q 432 986 318 986 m 408 -96 q 481 -125 453 -96 q 508 -200 508 -154 q 502 -247 508 -224 q 478 -315 496 -269 l 422 -447 l 321 -447 l 357 -286 q 307 -200 307 -256 q 335 -126 307 -156 q 408 -96 364 -96 z "},"Ġ":{"ha":757,"x_min":39,"x_max":707,"o":"m 432 986 q 706 869 589 986 l 601 760 q 523 812 558 796 q 442 828 488 828 q 308 751 353 828 q 264 482 264 675 q 279 271 264 346 q 325 167 294 196 q 406 138 356 138 q 501 167 457 138 l 501 397 l 410 397 l 389 551 l 707 551 l 707 76 q 565 4 644 31 q 410 -22 486 -22 q 129 100 219 -22 q 39 482 39 222 q 90 763 39 650 q 229 931 140 876 q 432 986 318 986 m 408 1296 q 495 1262 463 1296 q 528 1175 528 1228 q 494 1090 528 1124 q 408 1056 461 1056 q 322 1090 356 1056 q 289 1175 289 1124 q 322 1262 289 1228 q 408 1296 356 1296 z "},"Ɠ":{"ha":717,"x_min":39,"x_max":890,"o":"m 725 1182 q 890 1131 813 1182 l 832 1006 q 793 1022 808 1017 q 760 1026 778 1026 q 718 1010 731 1026 q 706 956 706 993 l 706 869 l 610 768 q 526 814 564 800 q 442 828 488 828 q 308 751 353 828 q 264 482 264 675 q 279 271 264 346 q 325 167 294 196 q 406 138 356 138 q 501 167 457 138 l 501 397 l 410 397 l 389 551 l 707 551 l 707 76 q 565 4 644 31 q 410 -22 486 -22 q 129 100 219 -22 q 39 482 39 222 q 89 763 39 650 q 224 931 139 876 q 413 986 308 986 q 526 964 474 986 l 526 975 q 580 1127 526 1072 q 725 1182 633 1182 z "},"Ɂ":{"ha":590,"x_min":-1,"x_max":574,"o":"m 164 457 l 218 476 q 319 547 289 503 q 349 674 349 590 q 322 786 349 744 q 246 828 294 828 q 177 810 210 828 q 101 756 144 793 l -1 858 q 274 986 114 986 q 493 903 413 986 q 574 681 574 819 q 534 503 574 563 q 413 407 494 443 l 381 393 l 381 0 l 163 0 l 164 457 z "},"Ǥ":{"ha":779,"x_min":39,"x_max":788,"o":"m 788 244 l 707 244 l 707 76 q 565 3 643 29 q 407 -22 488 -22 q 129 101 219 -22 q 39 482 39 225 q 90 759 39 646 q 228 928 140 872 q 431 985 317 985 q 706 868 593 985 l 599 756 q 522 810 557 793 q 443 826 488 826 q 310 747 356 826 q 264 482 264 667 q 279 274 264 349 q 326 169 294 200 q 410 138 358 138 q 521 171 469 138 l 521 244 l 408 244 l 408 363 l 521 363 l 521 436 l 407 436 l 389 571 l 707 571 l 707 363 l 788 363 l 788 244 z "},"Ȝ":{"ha":599,"x_min":-8,"x_max":578,"o":"m 271 986 q 420 953 356 986 q 520 860 485 919 q 556 726 556 801 q 508 576 556 635 q 357 497 461 518 q 524 431 469 485 q 578 271 578 376 q 458 12 578 124 q 79 -156 338 -100 l 63 6 q 240 83 176 43 q 328 169 303 122 q 353 279 353 215 q 319 381 353 349 q 215 414 286 414 l 138 414 l 161 572 l 219 572 q 333 703 333 572 q 311 794 333 761 q 240 828 289 828 q 89 753 178 828 l -8 860 q 271 986 107 986 z "},"H":{"ha":765,"x_min":64,"x_max":701,"o":"m 483 0 l 483 415 l 282 415 l 282 0 l 64 0 l 64 963 l 282 963 l 282 586 l 483 586 l 483 963 l 701 963 l 701 0 l 483 0 z "},"Ħ":{"ha":781,"x_min":14,"x_max":767,"o":"m 767 819 l 767 696 l 710 696 l 710 0 l 492 0 l 492 415 l 290 415 l 290 0 l 72 0 l 72 696 l 14 696 l 14 819 l 72 819 l 72 963 l 290 963 l 290 819 l 492 819 l 492 963 l 710 963 l 710 819 l 767 819 m 492 586 l 492 696 l 290 696 l 290 586 l 492 586 z "},"Ȟ":{"ha":765,"x_min":64,"x_max":701,"o":"m 483 0 l 483 415 l 282 415 l 282 0 l 64 0 l 64 963 l 282 963 l 282 586 l 483 586 l 483 963 l 701 963 l 701 0 l 483 0 m 538 1300 l 610 1224 l 446 1042 l 321 1042 l 157 1224 l 229 1300 l 383 1183 l 538 1300 z "},"Ĥ":{"ha":765,"x_min":64,"x_max":701,"o":"m 483 0 l 483 415 l 282 415 l 282 0 l 64 0 l 64 963 l 282 963 l 282 586 l 483 586 l 483 963 l 701 963 l 701 0 l 483 0 m 229 1056 l 157 1131 l 321 1313 l 446 1313 l 610 1131 l 538 1056 l 383 1171 l 229 1056 z "},"Ḥ":{"ha":765,"x_min":64,"x_max":701,"o":"m 483 0 l 483 415 l 282 415 l 282 0 l 64 0 l 64 963 l 282 963 l 282 586 l 483 586 l 483 963 l 701 963 l 701 0 l 483 0 m 383 -326 q 297 -292 329 -326 q 264 -206 264 -258 q 297 -120 264 -154 q 383 -86 331 -86 q 469 -120 436 -86 q 503 -206 503 -154 q 469 -292 503 -258 q 383 -326 436 -326 z "},"Ɦ":{"ha":947,"x_min":4,"x_max":883,"o":"m 883 963 l 883 0 l 665 0 l 665 415 l 464 415 l 464 0 l 246 0 l 246 807 l 221 807 q 168 749 168 807 q 193 653 168 703 l 60 594 q 19 675 33 633 q 4 769 4 717 q 63 910 4 858 q 231 963 121 963 l 464 963 l 464 586 l 665 586 l 665 963 l 883 963 z "},"Ɥ":{"ha":719,"x_min":21,"x_max":654,"o":"m 654 963 l 654 0 l 436 0 l 436 356 q 358 302 399 319 q 263 285 317 285 q 88 358 154 285 q 21 565 21 432 l 21 963 l 235 963 l 235 583 q 258 477 235 507 q 328 447 282 447 q 436 500 394 447 l 436 963 l 654 963 z "},"Ƕ":{"ha":1090,"x_min":64,"x_max":1047,"o":"m 1014 738 q 1047 354 1047 513 q 960 65 1047 153 q 740 -22 872 -22 q 555 40 626 -22 q 483 221 483 103 l 483 415 l 282 415 l 282 0 l 64 0 l 64 963 l 282 963 l 282 586 l 483 586 l 483 963 l 701 963 l 701 217 q 715 151 701 171 q 756 132 728 132 q 816 181 794 132 q 838 363 838 231 q 810 738 838 525 l 1014 738 z "},"I":{"ha":347,"x_min":64,"x_max":282,"o":"m 282 963 l 282 0 l 64 0 l 64 963 l 282 963 z "},"Ĳ":{"ha":718,"x_min":64,"x_max":657,"o":"m 282 963 l 282 0 l 64 0 l 64 963 l 282 963 m 657 144 q 619 -40 657 33 q 524 -156 582 -114 q 383 -231 465 -199 l 326 -78 q 400 -24 376 -53 q 431 44 424 4 q 439 153 439 83 l 439 963 l 657 963 l 657 144 z "},"Í":{"ha":347,"x_min":6,"x_max":340,"o":"m 282 963 l 282 0 l 64 0 l 64 963 l 282 963 m 261 1313 l 340 1161 l 58 1043 l 6 1146 l 261 1313 z "},"Ĭ":{"ha":347,"x_min":-31,"x_max":379,"o":"m 282 963 l 282 0 l 64 0 l 64 963 l 282 963 m 175 1044 q 29 1103 81 1044 q -31 1263 -22 1163 l 79 1285 q 175 1190 101 1190 q 236 1215 213 1190 q 268 1285 260 1239 l 379 1263 q 319 1103 371 1163 q 175 1044 268 1044 z "},"Ǐ":{"ha":347,"x_min":-53,"x_max":400,"o":"m 282 963 l 282 0 l 64 0 l 64 963 l 282 963 m 328 1300 l 400 1224 l 236 1042 l 111 1042 l -53 1224 l 19 1300 l 174 1183 l 328 1300 z "},"Î":{"ha":347,"x_min":-53,"x_max":400,"o":"m 282 963 l 282 0 l 64 0 l 64 963 l 282 963 m 19 1056 l -53 1131 l 111 1313 l 236 1313 l 400 1131 l 328 1056 l 174 1171 l 19 1056 z "},"Ȉ":{"ha":347,"x_min":-112,"x_max":332,"o":"m 282 963 l 282 0 l 64 0 l 64 963 l 282 963 m 18 1363 l 131 1093 l 33 1044 l -112 1293 l 18 1363 m 228 1363 l 332 1093 l 232 1051 l 96 1297 l 228 1363 z "},"Ï":{"ha":347,"x_min":-60,"x_max":419,"o":"m 282 963 l 282 0 l 64 0 l 64 963 l 282 963 m 44 1279 q 118 1249 89 1279 q 147 1174 147 1218 q 119 1098 147 1128 q 44 1068 90 1068 q -30 1099 0 1068 q -60 1174 -60 1129 q -30 1249 -60 1218 q 44 1279 0 1279 m 317 1279 q 390 1249 361 1279 q 419 1174 419 1218 q 391 1098 419 1128 q 317 1068 363 1068 q 244 1099 274 1068 q 214 1174 214 1129 q 244 1249 214 1218 q 317 1279 274 1279 z "},"Ḯ":{"ha":347,"x_min":-76,"x_max":422,"o":"m 282 963 l 282 0 l 64 0 l 64 963 l 282 963 m 261 1511 l 383 1406 l 183 1206 l 101 1272 l 261 1511 m 28 1250 q 102 1220 74 1250 q 131 1144 131 1190 q 102 1069 131 1099 q 28 1039 74 1039 q -47 1069 -17 1039 q -76 1144 -76 1100 q -47 1219 -76 1189 q 28 1250 -17 1250 m 319 1250 q 394 1220 365 1250 q 422 1144 422 1190 q 394 1069 422 1099 q 319 1039 365 1039 q 245 1069 275 1039 q 215 1144 215 1100 q 245 1219 215 1189 q 319 1250 275 1250 z "},"İ":{"ha":347,"x_min":53,"x_max":292,"o":"m 282 963 l 282 0 l 64 0 l 64 963 l 282 963 m 172 1296 q 259 1262 226 1296 q 292 1175 292 1228 q 258 1090 292 1124 q 172 1056 225 1056 q 86 1090 119 1056 q 53 1175 53 1124 q 86 1262 53 1228 q 172 1296 119 1296 z "},"Ị":{"ha":347,"x_min":54,"x_max":293,"o":"m 282 963 l 282 0 l 64 0 l 64 963 l 282 963 m 174 -326 q 87 -292 119 -326 q 54 -206 54 -258 q 88 -120 54 -154 q 174 -86 121 -86 q 260 -120 226 -86 q 293 -206 293 -154 q 260 -292 293 -258 q 174 -326 226 -326 z "},"Ì":{"ha":347,"x_min":4,"x_max":339,"o":"m 282 963 l 282 0 l 64 0 l 64 963 l 282 963 m 83 1311 l 339 1146 l 286 1043 l 4 1160 l 83 1311 z "},"Ỉ":{"ha":347,"x_min":50,"x_max":329,"o":"m 282 963 l 282 0 l 64 0 l 64 963 l 282 963 m 114 1185 q 176 1199 158 1188 q 194 1238 194 1210 q 183 1271 194 1260 q 151 1282 171 1282 q 117 1278 132 1282 q 82 1264 101 1274 l 50 1353 q 181 1388 106 1388 q 290 1349 251 1388 q 329 1249 329 1311 q 304 1163 329 1196 q 232 1121 279 1131 l 232 1061 l 114 1061 l 114 1185 z "},"Ȋ":{"ha":347,"x_min":-31,"x_max":379,"o":"m 282 963 l 282 0 l 64 0 l 64 963 l 282 963 m 175 1317 q 321 1255 269 1317 q 379 1083 372 1193 l 268 1063 q 175 1174 249 1174 q 79 1063 101 1174 l -31 1083 q 28 1255 -24 1193 q 175 1317 81 1317 z "},"Ī":{"ha":347,"x_min":-7,"x_max":354,"o":"m 282 963 l 282 0 l 64 0 l 64 963 l 282 963 m 354 1089 l -7 1089 l -7 1231 l 354 1231 l 354 1089 z "},"Į":{"ha":347,"x_min":-49,"x_max":282,"o":"m 282 963 l 282 0 l 231 0 q 126 -71 154 -36 q 99 -144 99 -106 q 160 -208 99 -208 q 226 -199 192 -208 l 214 -328 q 133 -339 174 -339 q 2 -297 53 -339 q -49 -181 -49 -256 q 64 4 -49 -69 l 64 963 l 282 963 z "},"Ɩ":{"ha":464,"x_min":50,"x_max":474,"o":"m 474 35 q 297 -24 400 -24 q 117 38 185 -24 q 50 217 50 99 l 50 963 l 268 963 l 268 204 q 325 136 268 136 q 364 141 347 136 q 401 158 381 146 l 474 35 z "},"Ɨ":{"ha":390,"x_min":6,"x_max":385,"o":"m 385 581 l 385 419 l 303 419 l 303 0 l 85 0 l 85 419 l 6 419 l 6 581 l 85 581 l 85 963 l 303 963 l 303 581 l 385 581 z "},"Ĩ":{"ha":347,"x_min":-49,"x_max":399,"o":"m 282 963 l 282 0 l 64 0 l 64 963 l 282 963 m 244 1067 q 199 1076 218 1067 q 157 1100 181 1085 q 108 1122 128 1122 q 78 1109 90 1122 q 49 1065 65 1096 l -49 1111 q 14 1223 -26 1181 q 106 1265 54 1265 q 149 1257 131 1265 q 193 1232 167 1249 q 219 1214 208 1219 q 243 1208 231 1208 q 273 1222 261 1208 q 300 1264 285 1235 l 399 1219 q 336 1108 376 1149 q 244 1067 296 1067 z "},"J":{"ha":371,"x_min":-21,"x_max":310,"o":"m 310 144 q 272 -40 310 33 q 176 -156 235 -114 q 36 -231 118 -199 l -21 -78 q 53 -24 29 -53 q 84 44 76 4 q 92 153 92 83 l 92 963 l 310 963 l 310 144 z "},"Ĵ":{"ha":371,"x_min":-25,"x_max":428,"o":"m 310 144 q 272 -40 310 33 q 176 -156 235 -114 q 36 -231 118 -199 l -21 -78 q 53 -24 29 -53 q 84 44 76 4 q 92 153 92 83 l 92 963 l 310 963 l 310 144 m 47 1056 l -25 1131 l 139 1313 l 264 1313 l 428 1131 l 356 1056 l 201 1171 l 47 1056 z "},"Ʝ":{"ha":428,"x_min":-97,"x_max":483,"o":"m 439 -149 q 350 -107 396 -124 q 263 -256 329 -204 q 85 -307 196 -307 q -49 -264 -1 -307 q -97 -144 -97 -221 q -45 -19 -97 -64 q 101 26 7 26 q 143 24 121 26 l 143 963 l 361 963 l 361 1 l 361 -3 q 483 -62 428 -26 l 439 -149 m 74 -197 q 127 -172 111 -197 q 143 -90 143 -146 l 143 -74 q 101 -71 133 -71 q 42 -87 60 -71 q 24 -137 24 -104 q 74 -197 24 -197 z "},"Ɉ":{"ha":396,"x_min":-21,"x_max":392,"o":"m 392 394 l 310 394 l 310 144 q 272 -40 310 33 q 176 -156 235 -114 q 36 -231 118 -199 l -21 -78 q 53 -24 29 -53 q 84 44 76 4 q 92 153 92 83 l 92 394 l 13 394 l 13 558 l 92 558 l 92 963 l 310 963 l 310 558 l 392 558 l 392 394 z "},"K":{"ha":750,"x_min":64,"x_max":767,"o":"m 282 963 l 282 0 l 64 0 l 64 963 l 282 963 m 746 963 l 507 529 l 767 0 l 529 0 l 289 514 l 531 963 l 746 963 z "},"Ǩ":{"ha":750,"x_min":64,"x_max":767,"o":"m 282 963 l 282 0 l 64 0 l 64 963 l 282 963 m 746 963 l 507 529 l 767 0 l 529 0 l 289 514 l 531 963 l 746 963 m 536 1300 l 608 1224 l 444 1042 l 319 1042 l 156 1224 l 228 1300 l 382 1183 l 536 1300 z "},"Ķ":{"ha":750,"x_min":64,"x_max":767,"o":"m 282 963 l 282 0 l 64 0 l 64 963 l 282 963 m 746 963 l 507 529 l 767 0 l 529 0 l 289 514 l 531 963 l 746 963 m 381 -96 q 453 -125 425 -96 q 481 -200 481 -154 q 474 -247 481 -224 q 450 -315 468 -269 l 394 -447 l 293 -447 l 329 -286 q 279 -200 279 -256 q 308 -126 279 -156 q 381 -96 336 -96 z "},"Ƙ":{"ha":764,"x_min":64,"x_max":782,"o":"m 289 514 l 414 801 q 501 943 454 900 q 633 986 549 986 q 782 936 713 986 l 726 815 q 699 828 711 824 q 672 832 688 832 q 635 817 649 832 q 604 767 621 803 l 501 529 l 767 0 l 529 0 l 289 514 m 282 963 l 282 0 l 64 0 l 64 963 l 282 963 z "},"L":{"ha":592,"x_min":64,"x_max":585,"o":"m 282 963 l 282 172 l 585 172 l 563 0 l 64 0 l 64 963 l 282 963 z "},"Ǉ":{"ha":931,"x_min":64,"x_max":869,"o":"m 282 963 l 282 172 l 585 172 l 563 0 l 64 0 l 64 963 l 282 963 m 869 144 q 832 -40 869 33 q 736 -156 794 -114 q 596 -231 678 -199 l 539 -78 q 613 -24 589 -53 q 644 44 636 4 q 651 153 651 83 l 651 963 l 869 963 l 869 144 z "},"Ĺ":{"ha":592,"x_min":6,"x_max":585,"o":"m 282 963 l 282 172 l 585 172 l 563 0 l 64 0 l 64 963 l 282 963 m 261 1313 l 340 1161 l 58 1043 l 6 1146 l 261 1313 z "},"Ƚ":{"ha":613,"x_min":6,"x_max":606,"o":"m 303 172 l 606 172 l 583 0 l 85 0 l 85 422 l 6 422 l 6 586 l 85 586 l 85 963 l 303 963 l 303 586 l 385 586 l 385 422 l 303 422 l 303 172 z "},"Ɬ":{"ha":726,"x_min":3,"x_max":719,"o":"m 719 172 l 697 0 l 199 0 l 199 351 q 51 401 100 354 q 3 529 3 449 q 45 648 3 606 q 154 690 88 690 q 199 685 176 690 l 199 963 l 417 963 l 417 478 q 549 496 471 479 l 568 382 q 417 357 504 364 l 417 172 l 719 172 m 136 532 q 199 474 136 474 l 199 576 q 174 579 190 579 q 136 532 136 579 z "},"Ľ":{"ha":592,"x_min":64,"x_max":585,"o":"m 282 963 l 282 172 l 585 172 l 563 0 l 64 0 l 64 963 l 282 963 m 440 667 l 504 961 l 353 985 l 325 685 l 440 667 z "},"Ḽ":{"ha":592,"x_min":64,"x_max":585,"o":"m 282 963 l 282 172 l 585 172 l 563 0 l 64 0 l 64 963 l 282 963 m 157 -357 l 85 -282 l 249 -89 l 374 -89 l 538 -282 l 465 -357 l 311 -231 l 157 -357 z "},"Ļ":{"ha":592,"x_min":64,"x_max":585,"o":"m 282 963 l 282 172 l 585 172 l 563 0 l 64 0 l 64 963 l 282 963 m 314 -96 q 386 -125 358 -96 q 414 -200 414 -154 q 408 -247 414 -224 q 383 -315 401 -269 l 328 -447 l 226 -447 l 263 -286 q 213 -200 213 -256 q 241 -126 213 -156 q 314 -96 269 -96 z "},"Ŀ":{"ha":592,"x_min":64,"x_max":585,"o":"m 282 963 l 282 172 l 585 172 l 563 0 l 64 0 l 64 963 l 282 963 m 463 672 q 549 638 517 672 q 582 551 582 604 q 549 466 582 500 q 463 432 515 432 q 376 466 410 432 q 343 551 343 500 q 376 638 343 604 q 463 672 410 672 z "},"Ḷ":{"ha":592,"x_min":64,"x_max":585,"o":"m 282 963 l 282 172 l 585 172 l 563 0 l 64 0 l 64 963 l 282 963 m 314 -326 q 227 -292 260 -326 q 194 -206 194 -258 q 228 -120 194 -154 q 314 -86 261 -86 q 400 -120 367 -86 q 433 -206 433 -154 q 400 -292 433 -258 q 314 -326 367 -326 z "},"ǈ":{"ha":904,"x_min":64,"x_max":856,"o":"m 282 963 l 282 172 l 585 172 l 563 0 l 64 0 l 64 963 l 282 963 m 843 53 q 774 -171 843 -92 q 578 -306 706 -250 l 507 -154 q 577 -104 551 -128 q 618 -44 603 -81 q 633 50 633 -7 l 633 738 l 843 738 l 843 53 m 736 1121 q 823 1087 790 1121 q 856 1000 856 1053 q 822 915 856 949 q 736 881 789 881 q 650 915 683 881 q 617 1000 617 949 q 650 1087 617 1053 q 736 1121 683 1121 z "},"Ł":{"ha":647,"x_min":3,"x_max":642,"o":"m 339 172 l 642 172 l 619 0 l 121 0 l 121 315 l 71 279 l 3 396 l 113 476 l 121 482 l 121 963 l 339 963 l 339 638 l 463 725 l 531 610 l 339 472 l 339 172 z "},"M":{"ha":926,"x_min":38,"x_max":889,"o":"m 889 0 l 683 0 l 675 382 q 671 639 671 514 q 672 768 671 726 l 565 103 l 361 103 l 249 769 q 251 553 251 692 q 250 379 251 440 l 242 0 l 38 0 l 96 963 l 365 963 l 467 304 l 558 963 l 832 963 l 889 0 z "},"Ḿ":{"ha":926,"x_min":38,"x_max":889,"o":"m 889 0 l 683 0 l 675 382 q 671 639 671 514 q 672 768 671 726 l 565 103 l 361 103 l 249 769 q 251 553 251 692 q 250 379 251 440 l 242 0 l 38 0 l 96 963 l 365 963 l 467 304 l 558 963 l 832 963 l 889 0 m 550 1313 l 629 1161 l 347 1043 l 294 1146 l 550 1313 z "},"Ṁ":{"ha":926,"x_min":38,"x_max":889,"o":"m 889 0 l 683 0 l 675 382 q 671 639 671 514 q 672 768 671 726 l 565 103 l 361 103 l 249 769 q 251 553 251 692 q 250 379 251 440 l 242 0 l 38 0 l 96 963 l 365 963 l 467 304 l 558 963 l 832 963 l 889 0 m 461 1296 q 548 1262 515 1296 q 581 1175 581 1228 q 547 1090 581 1124 q 461 1056 514 1056 q 375 1090 408 1056 q 342 1175 342 1124 q 375 1262 342 1228 q 461 1296 408 1296 z "},"Ɯ":{"ha":1044,"x_min":50,"x_max":981,"o":"m 981 963 l 981 0 l 789 0 l 775 83 q 693 3 736 28 q 597 -22 650 -22 q 496 10 539 -22 q 431 97 453 42 q 342 6 386 35 q 243 -22 299 -22 q 102 47 154 -22 q 50 219 50 115 l 50 963 l 268 963 l 268 229 q 321 140 268 140 q 407 219 367 140 l 407 963 l 624 963 l 624 229 q 638 165 624 189 q 675 140 651 140 q 721 160 700 140 q 763 225 742 181 l 763 963 l 981 963 z "},"N":{"ha":760,"x_min":64,"x_max":696,"o":"m 696 0 l 426 0 l 224 763 q 244 560 238 642 q 251 364 251 479 l 251 0 l 64 0 l 64 963 l 333 963 l 536 200 q 507 560 507 392 l 507 963 l 696 963 l 696 0 z "},"Ǌ":{"ha":1131,"x_min":64,"x_max":1069,"o":"m 696 0 l 426 0 l 224 763 q 244 560 238 642 q 251 364 251 479 l 251 0 l 64 0 l 64 963 l 333 963 l 536 200 q 507 560 507 392 l 507 963 l 696 963 l 696 0 m 1069 144 q 1032 -40 1069 33 q 936 -156 994 -114 q 796 -231 878 -199 l 739 -78 q 813 -24 789 -53 q 844 44 836 4 q 851 153 851 83 l 851 963 l 1069 963 l 1069 144 z "},"Ń":{"ha":760,"x_min":64,"x_max":696,"o":"m 696 0 l 426 0 l 224 763 q 244 560 238 642 q 251 364 251 479 l 251 0 l 64 0 l 64 963 l 333 963 l 536 200 q 507 560 507 392 l 507 963 l 696 963 l 696 0 m 469 1313 l 549 1161 l 267 1043 l 214 1146 l 469 1313 z "},"Ň":{"ha":760,"x_min":64,"x_max":696,"o":"m 696 0 l 426 0 l 224 763 q 244 560 238 642 q 251 364 251 479 l 251 0 l 64 0 l 64 963 l 333 963 l 536 200 q 507 560 507 392 l 507 963 l 696 963 l 696 0 m 536 1300 l 608 1224 l 444 1042 l 319 1042 l 156 1224 l 228 1300 l 382 1183 l 536 1300 z "},"Ṋ":{"ha":760,"x_min":64,"x_max":696,"o":"m 696 0 l 426 0 l 224 763 q 244 560 238 642 q 251 364 251 479 l 251 0 l 64 0 l 64 963 l 333 963 l 536 200 q 507 560 507 392 l 507 963 l 696 963 l 696 0 m 224 -357 l 151 -282 l 315 -89 l 440 -89 l 604 -282 l 532 -357 l 378 -231 l 224 -357 z "},"Ņ":{"ha":760,"x_min":64,"x_max":696,"o":"m 696 0 l 426 0 l 224 763 q 244 560 238 642 q 251 364 251 479 l 251 0 l 64 0 l 64 963 l 333 963 l 536 200 q 507 560 507 392 l 507 963 l 696 963 l 696 0 m 381 -96 q 453 -125 425 -96 q 481 -200 481 -154 q 474 -247 481 -224 q 450 -315 468 -269 l 394 -447 l 293 -447 l 329 -286 q 279 -200 279 -256 q 308 -126 279 -156 q 381 -96 336 -96 z "},"Ṅ":{"ha":760,"x_min":64,"x_max":696,"o":"m 696 0 l 426 0 l 224 763 q 244 560 238 642 q 251 364 251 479 l 251 0 l 64 0 l 64 963 l 333 963 l 536 200 q 507 560 507 392 l 507 963 l 696 963 l 696 0 m 381 1296 q 467 1262 435 1296 q 500 1175 500 1228 q 467 1090 500 1124 q 381 1056 433 1056 q 294 1090 328 1056 q 261 1175 261 1124 q 294 1262 261 1228 q 381 1296 328 1296 z "},"Ṇ":{"ha":760,"x_min":64,"x_max":696,"o":"m 696 0 l 426 0 l 224 763 q 244 560 238 642 q 251 364 251 479 l 251 0 l 64 0 l 64 963 l 333 963 l 536 200 q 507 560 507 392 l 507 963 l 696 963 l 696 0 m 381 -326 q 294 -292 326 -326 q 261 -206 261 -258 q 294 -120 261 -154 q 381 -86 328 -86 q 467 -120 433 -86 q 500 -206 500 -154 q 467 -292 500 -258 q 381 -326 433 -326 z "},"Ǹ":{"ha":760,"x_min":64,"x_max":696,"o":"m 696 0 l 426 0 l 224 763 q 244 560 238 642 q 251 364 251 479 l 251 0 l 64 0 l 64 963 l 333 963 l 536 200 q 507 560 507 392 l 507 963 l 696 963 l 696 0 m 292 1311 l 547 1146 l 494 1043 l 213 1160 l 292 1311 z "},"Ŋ":{"ha":760,"x_min":64,"x_max":696,"o":"m 696 963 l 696 -67 q 628 -246 696 -185 q 449 -307 561 -307 q 272 -249 346 -307 l 344 -125 q 382 -142 365 -137 q 421 -147 399 -147 q 478 -79 478 -147 l 478 0 l 426 0 l 224 763 q 244 560 238 642 q 251 364 251 479 l 251 0 l 64 0 l 64 963 l 333 963 l 536 200 q 507 560 507 392 l 507 963 l 696 963 z "},"Ɲ":{"ha":760,"x_min":-143,"x_max":696,"o":"m 696 963 l 696 0 l 426 0 l 224 763 q 244 560 238 642 q 251 364 251 479 l 251 -67 q 189 -245 251 -183 q 25 -307 126 -307 q -143 -249 -72 -307 l -71 -136 q -31 -154 -47 -149 q 6 -160 -15 -160 q 64 -82 64 -160 l 64 963 l 333 963 l 536 200 q 507 560 507 392 l 507 963 l 696 963 z "},"ǋ":{"ha":1093,"x_min":64,"x_max":1044,"o":"m 696 0 l 426 0 l 224 763 q 244 560 238 642 q 251 364 251 479 l 251 0 l 64 0 l 64 963 l 333 963 l 536 200 q 507 560 507 392 l 507 963 l 696 963 l 696 0 m 1032 53 q 963 -171 1032 -92 q 767 -306 894 -250 l 696 -154 q 766 -104 740 -128 q 807 -44 792 -81 q 822 50 822 -7 l 822 738 l 1032 738 l 1032 53 m 925 1121 q 1012 1087 979 1121 q 1044 1000 1044 1053 q 1011 915 1044 949 q 925 881 978 881 q 839 915 872 881 q 806 1000 806 949 q 839 1087 806 1053 q 925 1121 872 1121 z "},"Ƞ":{"ha":749,"x_min":64,"x_max":692,"o":"m 488 986 q 640 921 588 986 q 692 744 692 856 l 692 -292 l 474 -292 l 474 710 q 458 798 474 772 q 408 824 443 824 q 345 802 374 824 q 282 738 317 781 l 282 0 l 64 0 l 64 963 l 256 963 l 269 879 q 370 960 318 933 q 488 986 422 986 z "},"Ñ":{"ha":760,"x_min":64,"x_max":696,"o":"m 696 0 l 426 0 l 224 763 q 244 560 238 642 q 251 364 251 479 l 251 0 l 64 0 l 64 963 l 333 963 l 536 200 q 507 560 507 392 l 507 963 l 696 963 l 696 0 m 453 1067 q 408 1076 426 1067 q 365 1100 389 1085 q 317 1122 336 1122 q 286 1109 299 1122 q 257 1065 274 1096 l 160 1111 q 222 1223 182 1181 q 314 1265 263 1265 q 357 1257 339 1265 q 401 1232 375 1249 q 428 1214 417 1219 q 451 1208 439 1208 q 481 1222 469 1208 q 508 1264 493 1235 l 607 1219 q 544 1108 585 1149 q 453 1067 504 1067 z "},"O":{"ha":807,"x_min":39,"x_max":768,"o":"m 403 986 q 674 860 581 986 q 768 482 768 735 q 674 104 768 232 q 403 -24 579 -24 q 133 102 226 -24 q 39 482 39 228 q 133 859 39 732 q 403 986 226 986 m 403 826 q 298 748 331 826 q 265 482 265 669 q 280 276 265 351 q 324 169 294 201 q 403 136 354 136 q 483 168 453 136 q 527 276 513 200 q 542 482 542 351 q 509 749 542 671 q 403 826 476 826 z "},"Ȣ":{"ha":761,"x_min":39,"x_max":722,"o":"m 567 553 q 722 301 722 490 q 681 136 722 210 q 562 20 639 63 q 381 -22 485 -22 q 199 19 276 -22 q 81 134 122 61 q 39 300 39 207 q 78 455 39 392 q 193 550 118 518 q 82 724 82 608 l 82 963 l 300 963 l 300 707 q 381 619 300 619 q 442 644 424 619 q 460 707 460 669 l 460 963 l 679 963 l 679 724 q 650 624 679 668 q 567 553 621 581 m 381 138 q 467 176 439 138 q 496 304 496 215 q 381 465 496 465 q 265 303 265 465 q 294 176 265 215 q 381 138 322 138 z "},"Ó":{"ha":807,"x_min":39,"x_max":768,"o":"m 403 986 q 674 860 581 986 q 768 482 768 735 q 674 104 768 232 q 403 -24 579 -24 q 133 102 226 -24 q 39 482 39 228 q 133 859 39 732 q 403 986 226 986 m 403 826 q 298 748 331 826 q 265 482 265 669 q 280 276 265 351 q 324 169 294 201 q 403 136 354 136 q 483 168 453 136 q 527 276 513 200 q 542 482 542 351 q 509 749 542 671 q 403 826 476 826 m 490 1313 l 569 1161 l 288 1043 l 235 1146 l 490 1313 z "},"Ŏ":{"ha":807,"x_min":39,"x_max":768,"o":"m 403 986 q 674 860 581 986 q 768 482 768 735 q 674 104 768 232 q 403 -24 579 -24 q 133 102 226 -24 q 39 482 39 228 q 133 859 39 732 q 403 986 226 986 m 403 826 q 298 748 331 826 q 265 482 265 669 q 280 276 265 351 q 324 169 294 201 q 403 136 354 136 q 483 168 453 136 q 527 276 513 200 q 542 482 542 351 q 509 749 542 671 q 403 826 476 826 m 404 1044 q 258 1103 310 1044 q 199 1263 207 1163 l 308 1285 q 404 1190 331 1190 q 465 1215 442 1190 q 497 1285 489 1239 l 608 1263 q 549 1103 600 1163 q 404 1044 497 1044 z "},"Ǒ":{"ha":807,"x_min":39,"x_max":768,"o":"m 403 986 q 674 860 581 986 q 768 482 768 735 q 674 104 768 232 q 403 -24 579 -24 q 133 102 226 -24 q 39 482 39 228 q 133 859 39 732 q 403 986 226 986 m 403 826 q 298 748 331 826 q 265 482 265 669 q 280 276 265 351 q 324 169 294 201 q 403 136 354 136 q 483 168 453 136 q 527 276 513 200 q 542 482 542 351 q 509 749 542 671 q 403 826 476 826 m 557 1300 l 629 1224 l 465 1042 l 340 1042 l 176 1224 l 249 1300 l 403 1183 l 557 1300 z "},"Ɵ":{"ha":807,"x_min":39,"x_max":768,"o":"m 403 986 q 674 860 581 986 q 768 482 768 735 q 674 104 768 232 q 403 -24 579 -24 q 133 102 226 -24 q 39 482 39 228 q 133 859 39 732 q 403 986 226 986 m 403 826 q 298 763 333 826 q 257 550 263 700 l 550 550 q 509 763 544 700 q 403 826 474 826 m 403 136 q 511 201 476 136 q 550 425 546 265 l 257 425 q 296 201 261 265 q 403 136 331 136 z "},"Ô":{"ha":807,"x_min":39,"x_max":768,"o":"m 403 986 q 674 860 581 986 q 768 482 768 735 q 674 104 768 232 q 403 -24 579 -24 q 133 102 226 -24 q 39 482 39 228 q 133 859 39 732 q 403 986 226 986 m 403 826 q 298 748 331 826 q 265 482 265 669 q 280 276 265 351 q 324 169 294 201 q 403 136 354 136 q 483 168 453 136 q 527 276 513 200 q 542 482 542 351 q 509 749 542 671 q 403 826 476 826 m 249 1056 l 176 1131 l 340 1313 l 465 1313 l 629 1131 l 557 1056 l 403 1171 l 249 1056 z "},"Ố":{"ha":807,"x_min":39,"x_max":803,"o":"m 403 986 q 674 860 581 986 q 768 482 768 735 q 674 104 768 232 q 403 -24 579 -24 q 133 102 226 -24 q 39 482 39 228 q 133 859 39 732 q 403 986 226 986 m 403 826 q 298 748 331 826 q 265 482 265 669 q 280 276 265 351 q 324 169 294 201 q 403 136 354 136 q 483 168 453 136 q 527 276 513 200 q 542 482 542 351 q 509 749 542 671 q 403 826 476 826 m 249 1008 l 176 1083 l 340 1265 l 465 1265 l 629 1083 l 557 1008 l 403 1124 l 249 1008 m 681 1508 l 803 1403 l 603 1203 l 521 1269 l 681 1508 z "},"Ộ":{"ha":807,"x_min":39,"x_max":768,"o":"m 403 986 q 674 860 581 986 q 768 482 768 735 q 674 104 768 232 q 403 -24 579 -24 q 133 102 226 -24 q 39 482 39 228 q 133 859 39 732 q 403 986 226 986 m 403 826 q 298 748 331 826 q 265 482 265 669 q 280 276 265 351 q 324 169 294 201 q 403 136 354 136 q 483 168 453 136 q 527 276 513 200 q 542 482 542 351 q 509 749 542 671 q 403 826 476 826 m 249 1056 l 176 1131 l 340 1313 l 465 1313 l 629 1131 l 557 1056 l 403 1171 l 249 1056 m 403 -326 q 316 -292 349 -326 q 283 -206 283 -258 q 317 -120 283 -154 q 403 -86 350 -86 q 489 -120 456 -86 q 522 -206 522 -154 q 489 -292 522 -258 q 403 -326 456 -326 z "},"Ồ":{"ha":807,"x_min":3,"x_max":768,"o":"m 403 986 q 674 860 581 986 q 768 482 768 735 q 674 104 768 232 q 403 -24 579 -24 q 133 102 226 -24 q 39 482 39 228 q 133 859 39 732 q 403 986 226 986 m 403 826 q 298 748 331 826 q 265 482 265 669 q 280 276 265 351 q 324 169 294 201 q 403 136 354 136 q 483 168 453 136 q 527 276 513 200 q 542 482 542 351 q 509 749 542 671 q 403 826 476 826 m 247 1008 l 175 1083 l 339 1265 l 464 1265 l 628 1083 l 556 1008 l 401 1124 l 247 1008 m 125 1508 l 286 1269 l 204 1203 l 3 1403 l 125 1508 z "},"Ổ":{"ha":807,"x_min":39,"x_max":768,"o":"m 403 986 q 674 860 581 986 q 768 482 768 735 q 674 104 768 232 q 403 -24 579 -24 q 133 102 226 -24 q 39 482 39 228 q 133 859 39 732 q 403 986 226 986 m 403 826 q 298 748 331 826 q 265 482 265 669 q 280 276 265 351 q 324 169 294 201 q 403 136 354 136 q 483 168 453 136 q 527 276 513 200 q 542 482 542 351 q 509 749 542 671 q 403 826 476 826 m 249 1008 l 176 1083 l 340 1265 l 465 1265 l 629 1083 l 557 1008 l 403 1124 l 249 1008 m 550 1308 q 613 1322 594 1311 q 631 1361 631 1333 q 619 1394 631 1383 q 588 1406 607 1406 q 553 1401 568 1406 q 518 1388 538 1397 l 486 1476 q 617 1511 542 1511 q 726 1473 688 1511 q 765 1372 765 1435 q 740 1287 765 1319 q 668 1244 715 1254 l 668 1185 l 550 1185 l 550 1308 z "},"Ỗ":{"ha":807,"x_min":39,"x_max":768,"o":"m 403 986 q 674 860 581 986 q 768 482 768 735 q 674 104 768 232 q 403 -24 579 -24 q 133 102 226 -24 q 39 482 39 228 q 133 859 39 732 q 403 986 226 986 m 403 826 q 298 748 331 826 q 265 482 265 669 q 280 276 265 351 q 324 169 294 201 q 403 136 354 136 q 483 168 453 136 q 527 276 513 200 q 542 482 542 351 q 509 749 542 671 q 403 826 476 826 m 247 1008 l 175 1083 l 339 1265 l 464 1265 l 628 1083 l 556 1008 l 401 1124 l 247 1008 m 471 1311 q 425 1319 444 1311 q 383 1343 406 1328 q 335 1364 351 1364 q 304 1351 317 1364 q 275 1310 292 1339 l 178 1353 q 241 1458 201 1418 q 332 1499 281 1499 q 376 1490 358 1499 q 419 1467 394 1482 q 469 1444 449 1444 q 499 1457 488 1444 q 526 1497 511 1469 l 625 1456 q 563 1350 603 1389 q 471 1311 522 1311 z "},"Ȍ":{"ha":807,"x_min":39,"x_max":768,"o":"m 403 986 q 674 860 581 986 q 768 482 768 735 q 674 104 768 232 q 403 -24 579 -24 q 133 102 226 -24 q 39 482 39 228 q 133 859 39 732 q 403 986 226 986 m 403 826 q 298 748 331 826 q 265 482 265 669 q 280 276 265 351 q 324 169 294 201 q 403 136 354 136 q 483 168 453 136 q 527 276 513 200 q 542 482 542 351 q 509 749 542 671 q 403 826 476 826 m 247 1363 l 360 1093 l 263 1044 l 117 1293 l 247 1363 m 457 1363 l 561 1093 l 461 1051 l 325 1297 l 457 1363 z "},"Ö":{"ha":807,"x_min":39,"x_max":768,"o":"m 403 986 q 674 860 581 986 q 768 482 768 735 q 674 104 768 232 q 403 -24 579 -24 q 133 102 226 -24 q 39 482 39 228 q 133 859 39 732 q 403 986 226 986 m 403 826 q 298 748 331 826 q 265 482 265 669 q 280 276 265 351 q 324 169 294 201 q 403 136 354 136 q 483 168 453 136 q 527 276 513 200 q 542 482 542 351 q 509 749 542 671 q 403 826 476 826 m 274 1279 q 347 1249 318 1279 q 376 1174 376 1218 q 348 1098 376 1128 q 274 1068 319 1068 q 199 1099 229 1068 q 169 1174 169 1129 q 199 1249 169 1218 q 274 1279 229 1279 m 546 1279 q 619 1249 590 1279 q 649 1174 649 1218 q 620 1098 649 1128 q 546 1068 592 1068 q 473 1099 503 1068 q 443 1174 443 1129 q 473 1249 443 1218 q 546 1279 503 1279 z "},"Ȫ":{"ha":807,"x_min":39,"x_max":768,"o":"m 403 986 q 674 860 581 986 q 768 482 768 735 q 674 104 768 232 q 403 -24 579 -24 q 133 102 226 -24 q 39 482 39 228 q 133 859 39 732 q 403 986 226 986 m 403 826 q 298 748 331 826 q 265 482 265 669 q 280 276 265 351 q 324 169 294 201 q 403 136 354 136 q 483 168 453 136 q 527 276 513 200 q 542 482 542 351 q 509 749 542 671 q 403 826 476 826 m 268 1247 q 342 1217 313 1247 q 371 1142 371 1186 q 342 1066 371 1096 q 268 1036 314 1036 q 194 1067 224 1036 q 164 1142 164 1097 q 194 1217 164 1186 q 268 1247 224 1247 m 540 1247 q 614 1217 585 1247 q 643 1142 643 1186 q 615 1066 643 1096 q 540 1036 586 1036 q 467 1067 497 1036 q 438 1142 438 1097 q 467 1217 438 1186 q 540 1247 497 1247 m 585 1310 l 224 1310 l 224 1451 l 585 1451 l 585 1310 z "},"Ȯ":{"ha":807,"x_min":39,"x_max":768,"o":"m 403 986 q 674 860 581 986 q 768 482 768 735 q 674 104 768 232 q 403 -24 579 -24 q 133 102 226 -24 q 39 482 39 228 q 133 859 39 732 q 403 986 226 986 m 403 826 q 298 748 331 826 q 265 482 265 669 q 280 276 265 351 q 324 169 294 201 q 403 136 354 136 q 483 168 453 136 q 527 276 513 200 q 542 482 542 351 q 509 749 542 671 q 403 826 476 826 m 401 1296 q 488 1262 456 1296 q 521 1175 521 1228 q 488 1090 521 1124 q 401 1056 454 1056 q 315 1090 349 1056 q 282 1175 282 1124 q 315 1262 282 1228 q 401 1296 349 1296 z "},"Ȱ":{"ha":807,"x_min":39,"x_max":768,"o":"m 403 986 q 674 860 581 986 q 768 482 768 735 q 674 104 768 232 q 403 -24 579 -24 q 133 102 226 -24 q 39 482 39 228 q 133 859 39 732 q 403 986 226 986 m 403 826 q 298 748 331 826 q 265 482 265 669 q 280 276 265 351 q 324 169 294 201 q 403 136 354 136 q 483 168 453 136 q 527 276 513 200 q 542 482 542 351 q 509 749 542 671 q 403 826 476 826 m 401 1264 q 488 1230 456 1264 q 521 1143 521 1196 q 488 1058 521 1092 q 401 1024 454 1024 q 315 1058 349 1024 q 282 1143 282 1092 q 315 1230 282 1196 q 401 1264 349 1264 m 583 1310 l 222 1310 l 222 1451 l 583 1451 l 583 1310 z "},"Ọ":{"ha":807,"x_min":39,"x_max":768,"o":"m 403 986 q 674 860 581 986 q 768 482 768 735 q 674 104 768 232 q 403 -24 579 -24 q 133 102 226 -24 q 39 482 39 228 q 133 859 39 732 q 403 986 226 986 m 403 826 q 298 748 331 826 q 265 482 265 669 q 280 276 265 351 q 324 169 294 201 q 403 136 354 136 q 483 168 453 136 q 527 276 513 200 q 542 482 542 351 q 509 749 542 671 q 403 826 476 826 m 403 -326 q 316 -292 349 -326 q 283 -206 283 -258 q 317 -120 283 -154 q 403 -86 350 -86 q 489 -120 456 -86 q 522 -206 522 -154 q 489 -292 522 -258 q 403 -326 456 -326 z "},"Ò":{"ha":807,"x_min":39,"x_max":768,"o":"m 403 986 q 674 860 581 986 q 768 482 768 735 q 674 104 768 232 q 403 -24 579 -24 q 133 102 226 -24 q 39 482 39 228 q 133 859 39 732 q 403 986 226 986 m 403 826 q 298 748 331 826 q 265 482 265 669 q 280 276 265 351 q 324 169 294 201 q 403 136 354 136 q 483 168 453 136 q 527 276 513 200 q 542 482 542 351 q 509 749 542 671 q 403 826 476 826 m 313 1311 l 568 1146 l 515 1043 l 233 1160 l 313 1311 z "},"Ỏ":{"ha":807,"x_min":39,"x_max":768,"o":"m 403 986 q 674 860 581 986 q 768 482 768 735 q 674 104 768 232 q 403 -24 579 -24 q 133 102 226 -24 q 39 482 39 228 q 133 859 39 732 q 403 986 226 986 m 403 826 q 298 748 331 826 q 265 482 265 669 q 280 276 265 351 q 324 169 294 201 q 403 136 354 136 q 483 168 453 136 q 527 276 513 200 q 542 482 542 351 q 509 749 542 671 q 403 826 476 826 m 343 1185 q 406 1199 388 1188 q 424 1238 424 1210 q 412 1271 424 1260 q 381 1282 400 1282 q 346 1278 361 1282 q 311 1264 331 1274 l 279 1353 q 410 1388 335 1388 q 519 1349 481 1388 q 558 1249 558 1311 q 533 1163 558 1196 q 461 1121 508 1131 l 461 1061 l 343 1061 l 343 1185 z "},"Ơ":{"ha":858,"x_min":39,"x_max":846,"o":"m 846 950 q 813 839 846 881 q 718 783 779 797 q 768 482 768 669 q 674 104 768 232 q 403 -24 579 -24 q 133 102 226 -24 q 39 482 39 228 q 133 859 39 732 q 403 986 226 986 q 660 881 567 986 q 699 901 688 885 q 710 950 710 917 q 694 1053 710 1001 l 824 1074 q 846 950 846 1010 m 403 136 q 483 168 453 136 q 527 276 513 200 q 542 482 542 351 q 509 749 542 671 q 403 826 476 826 q 298 748 331 826 q 265 482 265 669 q 280 276 265 351 q 324 169 294 201 q 403 136 354 136 z "},"Ớ":{"ha":858,"x_min":39,"x_max":846,"o":"m 569 1161 l 288 1043 l 235 1146 l 490 1313 l 569 1161 m 846 950 q 813 839 846 881 q 718 783 779 797 q 768 482 768 669 q 674 104 768 232 q 403 -24 579 -24 q 133 102 226 -24 q 39 482 39 228 q 133 859 39 732 q 403 986 226 986 q 660 881 567 986 q 699 901 688 885 q 710 950 710 917 q 694 1053 710 1001 l 824 1074 q 846 950 846 1010 m 403 136 q 483 168 453 136 q 527 276 513 200 q 542 482 542 351 q 509 749 542 671 q 403 826 476 826 q 298 748 331 826 q 265 482 265 669 q 280 276 265 351 q 324 169 294 201 q 403 136 354 136 z "},"Ợ":{"ha":858,"x_min":39,"x_max":846,"o":"m 846 950 q 813 839 846 881 q 718 783 779 797 q 768 482 768 669 q 674 104 768 232 q 403 -24 579 -24 q 133 102 226 -24 q 39 482 39 228 q 133 859 39 732 q 403 986 226 986 q 660 881 567 986 q 699 901 688 885 q 710 950 710 917 q 694 1053 710 1001 l 824 1074 q 846 950 846 1010 m 403 136 q 483 168 453 136 q 527 276 513 200 q 542 482 542 351 q 509 749 542 671 q 403 826 476 826 q 298 748 331 826 q 265 482 265 669 q 280 276 265 351 q 324 169 294 201 q 403 136 354 136 m 403 -86 q 489 -120 456 -86 q 522 -206 522 -154 q 489 -292 522 -258 q 403 -326 456 -326 q 316 -292 349 -326 q 283 -206 283 -258 q 317 -120 283 -154 q 403 -86 350 -86 z "},"Ờ":{"ha":858,"x_min":39,"x_max":846,"o":"m 568 1146 l 515 1043 l 233 1160 l 313 1311 l 568 1146 m 846 950 q 813 839 846 881 q 718 783 779 797 q 768 482 768 669 q 674 104 768 232 q 403 -24 579 -24 q 133 102 226 -24 q 39 482 39 228 q 133 859 39 732 q 403 986 226 986 q 660 881 567 986 q 699 901 688 885 q 710 950 710 917 q 694 1053 710 1001 l 824 1074 q 846 950 846 1010 m 403 136 q 483 168 453 136 q 527 276 513 200 q 542 482 542 351 q 509 749 542 671 q 403 826 476 826 q 298 748 331 826 q 265 482 265 669 q 280 276 265 351 q 324 169 294 201 q 403 136 354 136 z "},"Ở":{"ha":858,"x_min":39,"x_max":846,"o":"m 381 1282 q 346 1278 361 1282 q 311 1264 331 1274 l 279 1353 q 410 1388 335 1388 q 519 1349 481 1388 q 558 1249 558 1311 q 533 1163 558 1196 q 461 1121 508 1131 l 461 1061 l 343 1061 l 343 1185 q 406 1199 388 1188 q 424 1238 424 1210 q 413 1271 424 1260 q 381 1282 401 1282 m 846 950 q 813 839 846 881 q 718 783 779 797 q 768 482 768 669 q 674 104 768 232 q 403 -24 579 -24 q 133 102 226 -24 q 39 482 39 228 q 133 859 39 732 q 403 986 226 986 q 660 881 567 986 q 699 901 688 885 q 710 950 710 917 q 694 1053 710 1001 l 824 1074 q 846 950 846 1010 m 403 136 q 483 168 453 136 q 527 276 513 200 q 542 482 542 351 q 509 749 542 671 q 403 826 476 826 q 298 748 331 826 q 265 482 265 669 q 280 276 265 351 q 324 169 294 201 q 403 136 354 136 z "},"Ỡ":{"ha":858,"x_min":39,"x_max":846,"o":"m 338 1122 q 307 1109 319 1122 q 278 1065 294 1096 l 181 1111 q 243 1223 203 1181 q 335 1265 283 1265 q 378 1257 360 1265 q 422 1232 396 1249 q 449 1214 438 1219 q 472 1208 460 1208 q 502 1222 490 1208 q 529 1264 514 1235 l 628 1219 q 565 1108 606 1149 q 474 1067 525 1067 q 428 1076 447 1067 q 386 1100 410 1085 q 338 1122 357 1122 m 846 950 q 813 839 846 881 q 718 783 779 797 q 768 482 768 669 q 674 104 768 232 q 403 -24 579 -24 q 133 102 226 -24 q 39 482 39 228 q 133 859 39 732 q 403 986 226 986 q 660 881 567 986 q 699 901 688 885 q 710 950 710 917 q 694 1053 710 1001 l 824 1074 q 846 950 846 1010 m 403 136 q 483 168 453 136 q 527 276 513 200 q 542 482 542 351 q 509 749 542 671 q 403 826 476 826 q 298 748 331 826 q 265 482 265 669 q 280 276 265 351 q 324 169 294 201 q 403 136 354 136 z "},"Ő":{"ha":807,"x_min":39,"x_max":768,"o":"m 403 986 q 674 860 581 986 q 768 482 768 735 q 674 104 768 232 q 403 -24 579 -24 q 133 102 226 -24 q 39 482 39 228 q 133 859 39 732 q 403 986 226 986 m 403 826 q 298 748 331 826 q 265 482 265 669 q 280 276 265 351 q 324 169 294 201 q 403 136 354 136 q 483 168 453 136 q 527 276 513 200 q 542 482 542 351 q 509 749 542 671 q 403 826 476 826 m 351 1363 l 485 1297 l 347 1051 l 247 1093 l 351 1363 m 561 1363 l 692 1293 l 546 1044 l 449 1093 l 561 1363 z "},"Ƣ":{"ha":1115,"x_min":39,"x_max":1051,"o":"m 807 986 q 984 921 917 986 q 1051 739 1051 856 l 1051 -290 l 833 -290 l 833 750 q 772 833 833 833 q 703 815 738 833 q 768 482 768 692 q 674 104 768 232 q 403 -24 579 -24 q 133 102 226 -24 q 39 482 39 228 q 133 859 39 732 q 403 986 226 986 q 614 922 529 986 q 807 986 700 986 m 403 136 q 483 168 453 136 q 527 276 513 200 q 542 482 542 351 q 509 749 542 671 q 403 826 476 826 q 298 748 331 826 q 265 482 265 669 q 280 276 265 351 q 324 169 294 201 q 403 136 354 136 z "},"Ȏ":{"ha":807,"x_min":39,"x_max":768,"o":"m 403 986 q 674 860 581 986 q 768 482 768 735 q 674 104 768 232 q 403 -24 579 -24 q 133 102 226 -24 q 39 482 39 228 q 133 859 39 732 q 403 986 226 986 m 403 826 q 298 748 331 826 q 265 482 265 669 q 280 276 265 351 q 324 169 294 201 q 403 136 354 136 q 483 168 453 136 q 527 276 513 200 q 542 482 542 351 q 509 749 542 671 q 403 826 476 826 m 404 1317 q 550 1255 499 1317 q 608 1083 601 1193 l 497 1063 q 404 1174 478 1174 q 308 1063 331 1174 l 199 1083 q 258 1255 206 1193 q 404 1317 310 1317 z "},"Ō":{"ha":807,"x_min":39,"x_max":768,"o":"m 403 986 q 674 860 581 986 q 768 482 768 735 q 674 104 768 232 q 403 -24 579 -24 q 133 102 226 -24 q 39 482 39 228 q 133 859 39 732 q 403 986 226 986 m 403 826 q 298 748 331 826 q 265 482 265 669 q 280 276 265 351 q 324 169 294 201 q 403 136 354 136 q 483 168 453 136 q 527 276 513 200 q 542 482 542 351 q 509 749 542 671 q 403 826 476 826 m 583 1089 l 222 1089 l 222 1231 l 583 1231 l 583 1089 z "},"Ṓ":{"ha":807,"x_min":39,"x_max":768,"o":"m 403 986 q 674 860 581 986 q 768 482 768 735 q 674 104 768 232 q 403 -24 579 -24 q 133 102 226 -24 q 39 482 39 228 q 133 859 39 732 q 403 986 226 986 m 403 826 q 298 748 331 826 q 265 482 265 669 q 280 276 265 351 q 324 169 294 201 q 403 136 354 136 q 483 168 453 136 q 527 276 513 200 q 542 482 542 351 q 509 749 542 671 q 403 826 476 826 m 583 1058 l 222 1058 l 222 1200 l 583 1200 l 583 1058 m 483 1519 l 563 1368 l 281 1250 l 228 1353 l 483 1519 z "},"Ṑ":{"ha":807,"x_min":39,"x_max":768,"o":"m 314 1525 l 569 1360 l 517 1257 l 235 1374 l 314 1525 m 583 1058 l 222 1058 l 222 1200 l 583 1200 l 583 1058 m 403 986 q 674 860 581 986 q 768 482 768 735 q 674 104 768 232 q 403 -24 579 -24 q 133 102 226 -24 q 39 482 39 228 q 133 859 39 732 q 403 986 226 986 m 403 826 q 298 748 331 826 q 265 482 265 669 q 280 276 265 351 q 324 169 294 201 q 403 136 354 136 q 483 168 453 136 q 527 276 513 200 q 542 482 542 351 q 509 749 542 671 q 403 826 476 826 z "},"Ꞷ":{"ha":1040,"x_min":53,"x_max":988,"o":"m 897 963 q 963 719 939 849 q 988 419 988 589 q 922 82 988 186 q 729 -22 856 -22 q 592 17 642 -22 q 521 140 542 57 q 321 -22 485 -22 q 118 80 183 -22 q 53 419 53 182 q 76 717 53 588 q 142 963 100 847 l 343 963 q 289 697 307 814 q 271 431 271 581 q 279 252 271 315 q 305 163 288 189 q 353 138 322 138 q 414 224 414 138 l 414 554 l 631 554 l 631 224 q 645 158 631 179 q 692 136 660 136 q 738 160 721 136 q 762 247 754 183 q 769 429 769 310 q 749 702 769 582 q 688 963 728 822 l 897 963 z "},"Ǫ":{"ha":807,"x_min":39,"x_max":768,"o":"m 768 482 q 710 165 768 286 q 540 0 651 43 q 436 -71 464 -36 q 408 -144 408 -106 q 469 -208 408 -208 q 536 -199 501 -208 l 524 -328 q 443 -339 483 -339 q 312 -297 363 -339 q 261 -181 261 -256 q 342 -19 261 -86 q 117 126 194 0 q 39 482 39 251 q 133 859 39 732 q 403 986 226 986 q 674 860 581 986 q 768 482 768 735 m 403 136 q 483 168 453 136 q 527 276 513 200 q 542 482 542 351 q 509 749 542 671 q 403 826 476 826 q 298 748 331 826 q 265 482 265 669 q 280 276 265 351 q 324 169 294 201 q 403 136 354 136 z "},"Ǭ":{"ha":807,"x_min":39,"x_max":768,"o":"m 583 1231 l 583 1089 l 222 1089 l 222 1231 l 583 1231 m 768 482 q 710 165 768 286 q 540 0 651 43 q 436 -71 464 -36 q 408 -144 408 -106 q 469 -208 408 -208 q 536 -199 501 -208 l 524 -328 q 443 -339 483 -339 q 312 -297 363 -339 q 261 -181 261 -256 q 342 -19 261 -86 q 117 126 194 0 q 39 482 39 251 q 133 859 39 732 q 403 986 226 986 q 674 860 581 986 q 768 482 768 735 m 403 136 q 483 168 453 136 q 527 276 513 200 q 542 482 542 351 q 509 749 542 671 q 403 826 476 826 q 298 748 331 826 q 265 482 265 669 q 280 276 265 351 q 324 169 294 201 q 403 136 354 136 z "},"Ɔ":{"ha":672,"x_min":3,"x_max":633,"o":"m 275 986 q 538 860 442 986 q 633 483 633 735 q 535 106 633 233 q 265 -22 436 -22 q 119 12 185 -22 q 3 99 53 46 l 103 217 q 179 163 147 181 q 254 146 211 146 q 367 223 328 146 q 407 483 407 300 q 371 748 407 672 q 263 824 335 824 q 187 808 221 824 q 117 761 153 792 l 13 881 q 131 960 68 933 q 275 986 194 986 z "},"Ø":{"ha":807,"x_min":39,"x_max":768,"o":"m 601 931 q 768 482 768 817 q 674 105 768 232 q 403 -22 579 -22 q 360 -21 374 -22 l 319 -185 l 160 -143 l 206 32 q 39 482 39 146 q 133 858 39 731 q 403 985 226 985 q 446 983 432 985 l 488 1149 l 649 1104 l 601 931 m 403 829 q 316 796 349 829 q 268 687 283 763 q 253 482 253 611 q 263 301 253 371 q 292 194 272 232 l 431 828 q 403 829 422 829 m 553 482 q 544 655 553 588 q 515 761 535 722 l 378 135 q 403 133 386 133 q 490 165 458 133 q 537 272 522 197 q 553 482 551 347 z "},"Ǿ":{"ha":807,"x_min":39,"x_max":768,"o":"m 601 931 q 768 482 768 817 q 674 105 768 232 q 403 -22 579 -22 q 360 -21 374 -22 l 319 -185 l 160 -143 l 206 32 q 39 482 39 146 q 133 858 39 731 q 403 985 226 985 q 446 983 432 985 l 488 1149 l 649 1104 l 601 931 m 403 829 q 316 796 349 829 q 268 687 283 763 q 253 482 253 611 q 263 301 253 371 q 292 194 272 232 l 431 828 q 403 829 422 829 m 553 482 q 544 655 553 588 q 515 761 535 722 l 378 135 q 403 133 386 133 q 490 165 458 133 q 537 272 522 197 q 553 482 551 347 m 490 1357 l 569 1206 l 288 1088 l 235 1190 l 490 1357 z "},"Õ":{"ha":807,"x_min":39,"x_max":768,"o":"m 403 986 q 674 860 581 986 q 768 482 768 735 q 674 104 768 232 q 403 -24 579 -24 q 133 102 226 -24 q 39 482 39 228 q 133 859 39 732 q 403 986 226 986 m 403 826 q 298 748 331 826 q 265 482 265 669 q 280 276 265 351 q 324 169 294 201 q 403 136 354 136 q 483 168 453 136 q 527 276 513 200 q 542 482 542 351 q 509 749 542 671 q 403 826 476 826 m 474 1067 q 428 1076 447 1067 q 386 1100 410 1085 q 338 1122 357 1122 q 307 1109 319 1122 q 278 1065 294 1096 l 181 1111 q 243 1223 203 1181 q 335 1265 283 1265 q 378 1257 360 1265 q 422 1232 396 1249 q 449 1214 438 1219 q 472 1208 460 1208 q 502 1222 490 1208 q 529 1264 514 1235 l 628 1219 q 565 1108 606 1149 q 474 1067 525 1067 z "},"Ṍ":{"ha":807,"x_min":39,"x_max":768,"o":"m 403 986 q 674 860 581 986 q 768 482 768 735 q 674 104 768 232 q 403 -24 579 -24 q 133 102 226 -24 q 39 482 39 228 q 133 859 39 732 q 403 986 226 986 m 403 826 q 298 748 331 826 q 265 482 265 669 q 280 276 265 351 q 324 169 294 201 q 403 136 354 136 q 483 168 453 136 q 527 276 513 200 q 542 482 542 351 q 509 749 542 671 q 403 826 476 826 m 474 1057 q 428 1066 447 1057 q 386 1090 410 1075 q 338 1113 357 1113 q 307 1099 319 1113 q 278 1056 294 1086 l 181 1101 q 243 1213 203 1171 q 335 1256 283 1256 q 378 1247 360 1256 q 422 1222 396 1239 q 449 1204 438 1210 q 472 1199 460 1199 q 502 1212 490 1199 q 529 1254 514 1225 l 628 1210 q 565 1098 606 1139 q 474 1057 525 1057 m 492 1553 l 571 1401 l 289 1283 l 236 1386 l 492 1553 z "},"Ȭ":{"ha":807,"x_min":39,"x_max":768,"o":"m 403 986 q 674 860 581 986 q 768 482 768 735 q 674 104 768 232 q 403 -24 579 -24 q 133 102 226 -24 q 39 482 39 228 q 133 859 39 732 q 403 986 226 986 m 403 826 q 298 748 331 826 q 265 482 265 669 q 280 276 265 351 q 324 169 294 201 q 403 136 354 136 q 483 168 453 136 q 527 276 513 200 q 542 482 542 351 q 509 749 542 671 q 403 826 476 826 m 474 1057 q 428 1066 447 1057 q 386 1090 410 1075 q 338 1113 357 1113 q 307 1099 319 1113 q 278 1056 294 1086 l 181 1101 q 243 1213 203 1171 q 335 1256 283 1256 q 378 1247 360 1256 q 422 1222 396 1239 q 449 1204 438 1210 q 472 1199 460 1199 q 502 1212 490 1199 q 529 1254 514 1225 l 628 1210 q 565 1098 606 1139 q 474 1057 525 1057 m 585 1313 l 224 1313 l 224 1454 l 585 1454 l 585 1313 z "},"Œ":{"ha":1043,"x_min":39,"x_max":1015,"o":"m 740 411 q 663 158 729 260 l 1011 158 l 1011 0 l 503 0 q 383 -24 449 -24 q 131 107 222 -24 q 39 482 39 238 q 131 856 39 725 q 383 986 222 986 q 504 963 450 986 l 1015 963 l 993 807 l 661 807 q 739 567 726 710 l 961 567 l 961 411 l 740 411 m 392 136 q 489 214 458 136 q 519 482 519 292 q 488 748 519 669 q 392 826 457 826 q 296 748 326 826 q 265 482 265 669 q 296 215 265 293 q 392 136 326 136 z "},"P":{"ha":693,"x_min":64,"x_max":679,"o":"m 311 963 q 585 883 490 963 q 679 650 679 804 q 589 406 679 489 q 333 324 499 324 l 282 324 l 282 0 l 64 0 l 64 963 l 311 963 m 315 482 q 423 520 390 482 q 456 650 456 558 q 424 769 456 731 q 318 807 393 807 l 282 807 l 282 482 l 315 482 z "},"Ṕ":{"ha":693,"x_min":64,"x_max":679,"o":"m 311 963 q 585 883 490 963 q 679 650 679 804 q 589 406 679 489 q 333 324 499 324 l 282 324 l 282 0 l 64 0 l 64 963 l 311 963 m 315 482 q 423 520 390 482 q 456 650 456 558 q 424 769 456 731 q 318 807 393 807 l 282 807 l 282 482 l 315 482 m 440 1313 l 519 1161 l 238 1043 l 185 1146 l 440 1313 z "},"Ṗ":{"ha":693,"x_min":64,"x_max":679,"o":"m 311 963 q 585 883 490 963 q 679 650 679 804 q 589 406 679 489 q 333 324 499 324 l 282 324 l 282 0 l 64 0 l 64 963 l 311 963 m 315 482 q 423 520 390 482 q 456 650 456 558 q 424 769 456 731 q 318 807 393 807 l 282 807 l 282 482 l 315 482 m 351 1296 q 438 1262 406 1296 q 471 1175 471 1228 q 438 1090 471 1124 q 351 1056 404 1056 q 265 1090 299 1056 q 232 1175 232 1124 q 265 1262 232 1228 q 351 1296 299 1296 z "},"Ƥ":{"ha":876,"x_min":4,"x_max":861,"o":"m 493 963 q 767 883 672 963 q 861 650 861 804 q 771 406 861 489 q 515 324 681 324 l 464 324 l 464 0 l 246 0 l 246 807 l 221 807 q 168 749 168 807 q 193 653 168 703 l 60 594 q 19 675 33 633 q 4 769 4 717 q 63 910 4 858 q 231 963 121 963 l 493 963 m 497 482 q 605 520 572 482 q 638 650 638 558 q 606 769 638 731 q 500 807 575 807 l 464 807 l 464 482 l 497 482 z "},"Þ":{"ha":693,"x_min":64,"x_max":679,"o":"m 329 810 q 588 730 497 810 q 679 494 679 650 q 591 244 679 328 q 344 161 503 161 l 282 161 l 282 0 l 64 0 l 64 963 l 282 963 l 282 810 l 329 810 m 324 317 q 427 358 394 317 q 460 494 460 399 q 426 618 460 581 q 322 656 392 656 l 282 656 l 282 317 l 324 317 z "},"Q":{"ha":807,"x_min":39,"x_max":825,"o":"m 572 61 q 715 38 657 60 q 825 -35 772 15 l 694 -199 q 564 -66 636 -114 q 389 -18 492 -18 q 131 110 224 -18 q 39 482 39 238 q 133 858 39 729 q 403 986 228 986 q 674 859 581 986 q 768 482 768 732 q 715 215 768 313 q 572 61 663 118 m 265 482 q 280 277 265 353 q 324 169 294 201 q 403 138 354 138 q 483 169 453 138 q 527 276 513 201 q 542 482 542 351 q 527 686 542 611 q 482 794 513 761 q 403 826 451 826 q 324 794 354 826 q 280 686 294 761 q 265 482 265 611 z "},"Ɋ":{"ha":785,"x_min":39,"x_max":926,"o":"m 926 -249 q 750 -307 853 -307 q 570 -246 638 -307 q 503 -67 503 -185 l 503 36 q 344 -22 438 -22 q 187 32 256 -22 q 78 195 118 86 q 39 465 39 304 q 79 752 39 635 q 189 928 119 869 q 347 986 258 986 q 518 914 450 986 l 525 963 l 721 963 l 721 -79 q 778 -147 721 -147 q 817 -142 800 -147 q 854 -125 833 -137 l 926 -249 m 394 133 q 503 182 457 133 l 503 776 q 456 814 481 801 q 397 826 431 826 q 298 747 331 826 q 265 465 265 667 q 280 262 265 335 q 322 161 294 189 q 394 133 350 133 z "},"R":{"ha":718,"x_min":64,"x_max":731,"o":"m 499 0 l 342 371 l 335 371 l 282 371 l 282 0 l 64 0 l 64 963 l 321 963 q 679 671 679 963 q 644 518 679 586 q 533 413 608 450 l 731 0 l 499 0 m 326 522 q 426 558 396 522 q 457 671 457 593 q 424 775 457 742 q 319 808 392 808 l 282 808 l 282 522 l 326 522 z "},"Ŕ":{"ha":718,"x_min":64,"x_max":731,"o":"m 499 0 l 342 371 l 335 371 l 282 371 l 282 0 l 64 0 l 64 963 l 321 963 q 679 671 679 963 q 644 518 679 586 q 533 413 608 450 l 731 0 l 499 0 m 326 522 q 426 558 396 522 q 457 671 457 593 q 424 775 457 742 q 319 808 392 808 l 282 808 l 282 522 l 326 522 m 440 1313 l 519 1161 l 238 1043 l 185 1146 l 440 1313 z "},"Ř":{"ha":718,"x_min":64,"x_max":731,"o":"m 499 0 l 342 371 l 335 371 l 282 371 l 282 0 l 64 0 l 64 963 l 321 963 q 679 671 679 963 q 644 518 679 586 q 533 413 608 450 l 731 0 l 499 0 m 326 522 q 426 558 396 522 q 457 671 457 593 q 424 775 457 742 q 319 808 392 808 l 282 808 l 282 522 l 326 522 m 507 1300 l 579 1224 l 415 1042 l 290 1042 l 126 1224 l 199 1300 l 353 1183 l 507 1300 z "},"Ŗ":{"ha":718,"x_min":64,"x_max":731,"o":"m 499 0 l 342 371 l 335 371 l 282 371 l 282 0 l 64 0 l 64 963 l 321 963 q 679 671 679 963 q 644 518 679 586 q 533 413 608 450 l 731 0 l 499 0 m 326 522 q 426 558 396 522 q 457 671 457 593 q 424 775 457 742 q 319 808 392 808 l 282 808 l 282 522 l 326 522 m 363 -96 q 435 -125 407 -96 q 463 -200 463 -154 q 456 -247 463 -224 q 432 -315 450 -269 l 376 -447 l 275 -447 l 311 -286 q 261 -200 261 -256 q 290 -126 261 -156 q 363 -96 318 -96 z "},"Ȑ":{"ha":718,"x_min":64,"x_max":731,"o":"m 499 0 l 342 371 l 335 371 l 282 371 l 282 0 l 64 0 l 64 963 l 321 963 q 679 671 679 963 q 644 518 679 586 q 533 413 608 450 l 731 0 l 499 0 m 326 522 q 426 558 396 522 q 457 671 457 593 q 424 775 457 742 q 319 808 392 808 l 282 808 l 282 522 l 326 522 m 197 1363 l 310 1093 l 213 1044 l 67 1293 l 197 1363 m 407 1363 l 511 1093 l 411 1051 l 275 1297 l 407 1363 z "},"Ṛ":{"ha":718,"x_min":64,"x_max":731,"o":"m 499 0 l 342 371 l 335 371 l 282 371 l 282 0 l 64 0 l 64 963 l 321 963 q 679 671 679 963 q 644 518 679 586 q 533 413 608 450 l 731 0 l 499 0 m 326 522 q 426 558 396 522 q 457 671 457 593 q 424 775 457 742 q 319 808 392 808 l 282 808 l 282 522 l 326 522 m 363 -326 q 276 -292 308 -326 q 243 -206 243 -258 q 276 -120 243 -154 q 363 -86 310 -86 q 449 -120 415 -86 q 482 -206 482 -154 q 449 -292 482 -258 q 363 -326 415 -326 z "},"Ȓ":{"ha":718,"x_min":64,"x_max":731,"o":"m 499 0 l 342 371 l 335 371 l 282 371 l 282 0 l 64 0 l 64 963 l 321 963 q 679 671 679 963 q 644 518 679 586 q 533 413 608 450 l 731 0 l 499 0 m 326 522 q 426 558 396 522 q 457 671 457 593 q 424 775 457 742 q 319 808 392 808 l 282 808 l 282 522 l 326 522 m 354 1317 q 500 1255 449 1317 q 558 1083 551 1193 l 447 1063 q 354 1174 428 1174 q 258 1063 281 1174 l 149 1083 q 208 1255 156 1193 q 354 1317 260 1317 z "},"Ɍ":{"ha":735,"x_min":19,"x_max":746,"o":"m 514 0 l 357 371 l 297 371 l 297 0 l 79 0 l 79 371 l 19 371 l 19 522 l 79 522 l 79 963 l 336 963 q 694 671 694 963 q 659 518 694 586 q 549 413 624 450 l 746 0 l 514 0 m 342 522 q 442 558 411 522 q 472 671 472 593 q 440 775 472 742 q 335 808 407 808 l 297 808 l 297 522 l 342 522 z "},"Ɽ":{"ha":718,"x_min":64,"x_max":731,"o":"m 282 -79 q 339 -147 282 -147 q 378 -142 361 -147 q 415 -125 394 -137 l 488 -249 q 311 -307 414 -307 q 131 -246 199 -307 q 64 -67 64 -185 l 64 963 l 321 963 q 679 671 679 963 q 644 518 679 586 q 533 413 608 450 l 731 0 l 499 0 l 342 371 l 335 371 l 282 371 l 282 -79 m 282 808 l 282 522 l 326 522 q 426 558 396 522 q 457 671 457 593 q 424 775 457 742 q 319 808 392 808 l 282 808 z "},"S":{"ha":663,"x_min":1,"x_max":639,"o":"m 335 986 q 494 956 425 986 q 619 864 563 925 l 524 750 q 358 826 440 826 q 285 799 311 826 q 258 725 258 771 q 289 652 258 681 q 407 586 319 624 q 538 512 488 550 q 613 418 588 474 q 639 281 639 363 q 599 124 639 193 q 486 15 560 54 q 314 -24 413 -24 q 136 13 211 -24 q 1 113 61 49 l 106 228 q 201 160 156 183 q 297 138 246 138 q 383 172 354 138 q 413 264 413 206 q 383 351 413 317 q 278 415 354 385 q 89 538 144 471 q 33 708 33 606 q 72 853 33 790 q 180 951 111 917 q 335 986 249 986 z "},"Ś":{"ha":663,"x_min":1,"x_max":639,"o":"m 335 986 q 494 956 425 986 q 619 864 563 925 l 524 750 q 358 826 440 826 q 285 799 311 826 q 258 725 258 771 q 289 652 258 681 q 407 586 319 624 q 538 512 488 550 q 613 418 588 474 q 639 281 639 363 q 599 124 639 193 q 486 15 560 54 q 314 -24 413 -24 q 136 13 211 -24 q 1 113 61 49 l 106 228 q 201 160 156 183 q 297 138 246 138 q 383 172 354 138 q 413 264 413 206 q 383 351 413 317 q 278 415 354 385 q 89 538 144 471 q 33 708 33 606 q 72 853 33 790 q 180 951 111 917 q 335 986 249 986 m 429 1313 l 508 1161 l 226 1043 l 174 1146 l 429 1313 z "},"Ꞌ":{"ha":315,"x_min":58,"x_max":257,"o":"m 81 467 l 58 963 l 257 963 l 233 467 l 81 467 z "},"Š":{"ha":663,"x_min":1,"x_max":639,"o":"m 335 986 q 494 956 425 986 q 619 864 563 925 l 524 750 q 358 826 440 826 q 285 799 311 826 q 258 725 258 771 q 289 652 258 681 q 407 586 319 624 q 538 512 488 550 q 613 418 588 474 q 639 281 639 363 q 599 124 639 193 q 486 15 560 54 q 314 -24 413 -24 q 136 13 211 -24 q 1 113 61 49 l 106 228 q 201 160 156 183 q 297 138 246 138 q 383 172 354 138 q 413 264 413 206 q 383 351 413 317 q 278 415 354 385 q 89 538 144 471 q 33 708 33 606 q 72 853 33 790 q 180 951 111 917 q 335 986 249 986 m 496 1300 l 568 1224 l 404 1042 l 279 1042 l 115 1224 l 188 1300 l 342 1183 l 496 1300 z "},"Ş":{"ha":663,"x_min":1,"x_max":639,"o":"m 639 281 q 570 82 639 164 q 382 -18 501 0 l 382 -74 q 503 -206 503 -93 q 456 -317 503 -275 q 324 -360 408 -360 q 186 -319 243 -360 l 233 -228 q 308 -246 269 -246 q 357 -203 357 -246 q 332 -165 357 -176 q 251 -154 307 -154 l 265 -21 q 1 113 111 -7 l 106 228 q 201 160 156 183 q 297 138 246 138 q 383 172 354 138 q 413 264 413 206 q 383 351 413 317 q 278 415 354 385 q 89 538 144 471 q 33 708 33 606 q 72 853 33 790 q 180 951 111 917 q 335 986 249 986 q 494 956 425 986 q 619 864 563 925 l 524 750 q 358 826 440 826 q 285 799 311 826 q 258 725 258 771 q 289 652 258 681 q 407 586 319 624 q 538 512 488 550 q 613 418 588 474 q 639 281 639 363 z "},"Ŝ":{"ha":663,"x_min":1,"x_max":639,"o":"m 335 986 q 494 956 425 986 q 619 864 563 925 l 524 750 q 358 826 440 826 q 285 799 311 826 q 258 725 258 771 q 289 652 258 681 q 407 586 319 624 q 538 512 488 550 q 613 418 588 474 q 639 281 639 363 q 599 124 639 193 q 486 15 560 54 q 314 -24 413 -24 q 136 13 211 -24 q 1 113 61 49 l 106 228 q 201 160 156 183 q 297 138 246 138 q 383 172 354 138 q 413 264 413 206 q 383 351 413 317 q 278 415 354 385 q 89 538 144 471 q 33 708 33 606 q 72 853 33 790 q 180 951 111 917 q 335 986 249 986 m 188 1056 l 115 1131 l 279 1313 l 404 1313 l 568 1131 l 496 1056 l 342 1171 l 188 1056 z "},"Ș":{"ha":663,"x_min":1,"x_max":639,"o":"m 335 986 q 494 956 425 986 q 619 864 563 925 l 524 750 q 358 826 440 826 q 285 799 311 826 q 258 725 258 771 q 289 652 258 681 q 407 586 319 624 q 538 512 488 550 q 613 418 588 474 q 639 281 639 363 q 599 124 639 193 q 486 15 560 54 q 314 -24 413 -24 q 136 13 211 -24 q 1 113 61 49 l 106 228 q 201 160 156 183 q 297 138 246 138 q 383 172 354 138 q 413 264 413 206 q 383 351 413 317 q 278 415 354 385 q 89 538 144 471 q 33 708 33 606 q 72 853 33 790 q 180 951 111 917 q 335 986 249 986 m 328 -96 q 400 -125 372 -96 q 428 -200 428 -154 q 422 -247 428 -224 q 397 -315 415 -269 l 342 -447 l 240 -447 l 276 -286 q 226 -200 226 -256 q 255 -126 226 -156 q 328 -96 283 -96 z "},"Ṡ":{"ha":663,"x_min":1,"x_max":639,"o":"m 335 986 q 494 956 425 986 q 619 864 563 925 l 524 750 q 358 826 440 826 q 285 799 311 826 q 258 725 258 771 q 289 652 258 681 q 407 586 319 624 q 538 512 488 550 q 613 418 588 474 q 639 281 639 363 q 599 124 639 193 q 486 15 560 54 q 314 -24 413 -24 q 136 13 211 -24 q 1 113 61 49 l 106 228 q 201 160 156 183 q 297 138 246 138 q 383 172 354 138 q 413 264 413 206 q 383 351 413 317 q 278 415 354 385 q 89 538 144 471 q 33 708 33 606 q 72 853 33 790 q 180 951 111 917 q 335 986 249 986 m 340 1296 q 427 1262 394 1296 q 460 1175 460 1228 q 426 1090 460 1124 q 340 1056 393 1056 q 254 1090 288 1056 q 221 1175 221 1124 q 254 1262 221 1228 q 340 1296 288 1296 z "},"Ṣ":{"ha":663,"x_min":1,"x_max":639,"o":"m 335 986 q 494 956 425 986 q 619 864 563 925 l 524 750 q 358 826 440 826 q 285 799 311 826 q 258 725 258 771 q 289 652 258 681 q 407 586 319 624 q 538 512 488 550 q 613 418 588 474 q 639 281 639 363 q 599 124 639 193 q 486 15 560 54 q 314 -24 413 -24 q 136 13 211 -24 q 1 113 61 49 l 106 228 q 201 160 156 183 q 297 138 246 138 q 383 172 354 138 q 413 264 413 206 q 383 351 413 317 q 278 415 354 385 q 89 538 144 471 q 33 708 33 606 q 72 853 33 790 q 180 951 111 917 q 335 986 249 986 m 328 -326 q 241 -292 274 -326 q 208 -206 208 -258 q 242 -120 208 -154 q 328 -86 275 -86 q 414 -120 381 -86 q 447 -206 447 -154 q 414 -292 447 -258 q 328 -326 381 -326 z "},"ẞ":{"ha":774,"x_min":64,"x_max":753,"o":"m 357 986 q 533 962 451 986 q 701 892 615 938 l 701 790 l 538 544 q 753 272 753 499 q 715 111 753 178 q 613 10 678 44 q 471 -24 549 -24 q 318 13 379 -24 l 381 153 q 439 140 408 140 q 526 275 526 140 q 489 391 526 353 q 360 439 451 429 l 360 556 l 521 801 q 381 826 443 826 q 306 797 329 826 q 282 708 282 767 l 282 0 l 64 0 l 64 703 q 140 908 64 831 q 357 986 215 986 z "},"Ə":{"ha":743,"x_min":25,"x_max":704,"o":"m 357 986 q 616 867 528 986 q 704 489 704 747 q 615 102 704 226 q 361 -22 526 -22 q 106 100 186 -22 q 25 469 25 222 q 32 560 25 514 l 485 560 q 445 767 482 707 q 336 826 408 826 q 245 807 285 826 q 165 751 206 788 l 69 864 q 200 956 131 925 q 357 986 269 986 m 360 136 q 427 160 401 136 q 467 243 453 183 q 485 408 482 303 l 233 408 q 265 195 233 254 q 360 136 297 136 z "},"T":{"ha":625,"x_min":7,"x_max":628,"o":"m 628 963 l 606 796 l 421 796 l 421 0 l 203 0 l 203 796 l 7 796 l 7 963 l 628 963 z "},"Ŧ":{"ha":625,"x_min":7,"x_max":628,"o":"m 606 794 l 421 794 l 421 540 l 547 540 l 547 415 l 421 415 l 421 -1 l 203 -1 l 203 415 l 75 415 l 75 540 l 203 540 l 203 794 l 7 794 l 7 961 l 628 961 l 606 794 z "},"Ť":{"ha":625,"x_min":7,"x_max":628,"o":"m 628 963 l 606 796 l 421 796 l 421 0 l 203 0 l 203 796 l 7 796 l 7 963 l 628 963 m 467 1300 l 539 1224 l 375 1042 l 250 1042 l 86 1224 l 158 1300 l 313 1183 l 467 1300 z "},"Ţ":{"ha":625,"x_min":7,"x_max":628,"o":"m 421 -68 q 513 -112 482 -76 q 543 -204 543 -147 q 495 -317 543 -275 q 363 -360 447 -360 q 286 -349 322 -360 q 226 -319 250 -337 l 274 -222 q 343 -246 311 -246 q 397 -201 397 -246 q 372 -165 397 -176 q 292 -154 347 -154 l 307 0 l 203 0 l 203 796 l 7 796 l 7 963 l 628 963 l 606 796 l 421 796 l 421 -68 z "},"Ṱ":{"ha":625,"x_min":7,"x_max":628,"o":"m 628 963 l 606 796 l 421 796 l 421 0 l 203 0 l 203 796 l 7 796 l 7 963 l 628 963 m 156 -357 l 83 -282 l 247 -89 l 372 -89 l 536 -282 l 464 -357 l 310 -231 l 156 -357 z "},"Ț":{"ha":625,"x_min":7,"x_max":628,"o":"m 628 963 l 606 796 l 421 796 l 421 0 l 203 0 l 203 796 l 7 796 l 7 963 l 628 963 m 313 -96 q 385 -125 357 -96 q 413 -200 413 -154 q 406 -247 413 -224 q 382 -315 400 -269 l 326 -447 l 225 -447 l 261 -286 q 211 -200 211 -256 q 240 -126 211 -156 q 313 -96 268 -96 z "},"Ⱦ":{"ha":628,"x_min":7,"x_max":628,"o":"m 606 803 l 517 803 l 406 535 l 406 0 l 217 0 l 217 76 l 143 -103 l 82 -76 l 217 250 l 217 803 l 7 803 l 7 963 l 511 963 l 547 1051 l 608 1026 l 582 963 l 628 963 l 606 803 m 406 708 l 444 803 l 406 803 l 406 708 z "},"Ṫ":{"ha":625,"x_min":7,"x_max":628,"o":"m 628 963 l 606 796 l 421 796 l 421 0 l 203 0 l 203 796 l 7 796 l 7 963 l 628 963 m 311 1296 q 398 1262 365 1296 q 431 1175 431 1228 q 397 1090 431 1124 q 311 1056 364 1056 q 225 1090 258 1056 q 192 1175 192 1124 q 225 1262 192 1228 q 311 1296 258 1296 z "},"Ṭ":{"ha":625,"x_min":7,"x_max":628,"o":"m 628 963 l 606 796 l 421 796 l 421 0 l 203 0 l 203 796 l 7 796 l 7 963 l 628 963 m 313 -326 q 226 -292 258 -326 q 193 -206 193 -258 q 226 -120 193 -154 q 313 -86 260 -86 q 399 -120 365 -86 q 432 -206 432 -154 q 399 -292 432 -258 q 313 -326 365 -326 z "},"Ƭ":{"ha":697,"x_min":4,"x_max":700,"o":"m 679 796 l 493 796 l 493 0 l 275 0 l 275 796 l 225 796 q 168 739 168 796 q 188 657 168 699 l 50 594 q 4 758 4 669 q 67 908 4 854 q 240 963 131 963 l 700 963 l 679 796 z "},"Ṯ":{"ha":625,"x_min":7,"x_max":628,"o":"m 628 963 l 606 796 l 421 796 l 421 0 l 203 0 l 203 796 l 7 796 l 7 963 l 628 963 m 494 -260 l 133 -260 l 133 -118 l 494 -118 l 494 -260 z "},"Ƽ":{"ha":638,"x_min":11,"x_max":603,"o":"m 540 811 l 258 811 l 258 593 q 318 620 290 613 q 378 628 346 628 q 540 547 478 628 q 603 317 603 467 q 563 138 603 215 q 451 19 524 61 q 281 -24 378 -24 q 126 13 190 -24 q 11 117 61 49 l 125 218 q 193 156 160 176 q 271 135 226 135 q 390 315 390 135 q 365 447 390 410 q 292 483 340 483 q 247 476 268 483 q 200 450 226 468 l 63 450 l 63 963 l 564 963 l 540 811 z "},"Ƅ":{"ha":719,"x_min":4,"x_max":704,"o":"m 375 631 q 620 554 536 631 q 704 325 704 478 q 618 80 704 160 q 371 0 532 0 l 90 0 l 90 689 l 4 757 q 128 963 75 835 l 308 963 l 308 631 l 375 631 m 360 158 q 450 197 422 158 q 478 322 478 235 q 449 440 478 403 q 353 478 421 478 l 308 478 l 308 158 l 360 158 z "},"Ƨ":{"ha":651,"x_min":24,"x_max":650,"o":"m 339 986 q 553 913 474 986 q 633 715 633 839 q 576 546 633 611 q 385 428 519 481 q 278 361 306 397 q 250 263 250 325 q 278 173 250 204 q 361 142 307 142 q 452 164 408 142 q 544 228 496 186 l 650 113 q 342 -22 528 -22 q 173 15 244 -22 q 63 119 101 51 q 24 275 24 186 q 78 459 24 393 q 257 574 133 525 q 377 641 344 608 q 410 729 410 674 q 386 801 410 776 q 318 826 363 826 q 146 753 231 826 l 49 864 q 339 986 168 986 z "},"Ʈ":{"ha":633,"x_min":7,"x_max":628,"o":"m 478 -147 q 517 -142 500 -147 q 554 -125 533 -137 l 626 -249 q 450 -307 553 -307 q 270 -246 338 -307 q 203 -67 203 -185 l 203 796 l 7 796 l 7 963 l 628 963 l 606 796 l 421 796 l 421 -79 q 478 -147 421 -147 z "},"U":{"ha":744,"x_min":50,"x_max":694,"o":"m 694 278 q 658 124 694 192 q 550 17 622 57 q 372 -22 478 -22 q 132 60 214 -22 q 50 278 50 142 l 50 963 l 268 963 l 268 288 q 292 176 268 213 q 372 140 317 140 q 452 176 428 140 q 476 288 476 213 l 476 963 l 694 963 l 694 278 z "},"Ú":{"ha":744,"x_min":50,"x_max":694,"o":"m 694 278 q 658 124 694 192 q 550 17 622 57 q 372 -22 478 -22 q 132 60 214 -22 q 50 278 50 142 l 50 963 l 268 963 l 268 288 q 292 176 268 213 q 372 140 317 140 q 452 176 428 140 q 476 288 476 213 l 476 963 l 694 963 l 694 278 m 460 1313 l 539 1161 l 257 1043 l 204 1146 l 460 1313 z "},"Ʉ":{"ha":788,"x_min":14,"x_max":774,"o":"m 774 696 l 715 696 l 715 278 q 679 124 715 192 q 571 17 643 57 q 393 -22 499 -22 q 153 60 235 -22 q 71 278 71 142 l 71 696 l 14 696 l 14 819 l 71 819 l 71 963 l 289 963 l 289 819 l 497 819 l 497 963 l 715 963 l 715 819 l 774 819 l 774 696 m 497 696 l 289 696 l 289 288 q 313 176 289 213 q 393 140 338 140 q 473 176 449 140 q 497 288 497 213 l 497 696 z "},"Ŭ":{"ha":744,"x_min":50,"x_max":694,"o":"m 694 278 q 658 124 694 192 q 550 17 622 57 q 372 -22 478 -22 q 132 60 214 -22 q 50 278 50 142 l 50 963 l 268 963 l 268 288 q 292 176 268 213 q 372 140 317 140 q 452 176 428 140 q 476 288 476 213 l 476 963 l 694 963 l 694 278 m 374 1044 q 228 1103 279 1044 q 168 1263 176 1163 l 278 1285 q 374 1190 300 1190 q 435 1215 411 1190 q 467 1285 458 1239 l 578 1263 q 518 1103 569 1163 q 374 1044 467 1044 z "},"Ǔ":{"ha":744,"x_min":50,"x_max":694,"o":"m 694 278 q 658 124 694 192 q 550 17 622 57 q 372 -22 478 -22 q 132 60 214 -22 q 50 278 50 142 l 50 963 l 268 963 l 268 288 q 292 176 268 213 q 372 140 317 140 q 452 176 428 140 q 476 288 476 213 l 476 963 l 694 963 l 694 278 m 526 1300 l 599 1224 l 435 1042 l 310 1042 l 146 1224 l 218 1300 l 372 1183 l 526 1300 z "},"Û":{"ha":744,"x_min":50,"x_max":694,"o":"m 694 278 q 658 124 694 192 q 550 17 622 57 q 372 -22 478 -22 q 132 60 214 -22 q 50 278 50 142 l 50 963 l 268 963 l 268 288 q 292 176 268 213 q 372 140 317 140 q 452 176 428 140 q 476 288 476 213 l 476 963 l 694 963 l 694 278 m 218 1056 l 146 1131 l 310 1313 l 435 1313 l 599 1131 l 526 1056 l 372 1171 l 218 1056 z "},"Ȕ":{"ha":744,"x_min":50,"x_max":694,"o":"m 694 278 q 658 124 694 192 q 550 17 622 57 q 372 -22 478 -22 q 132 60 214 -22 q 50 278 50 142 l 50 963 l 268 963 l 268 288 q 292 176 268 213 q 372 140 317 140 q 452 176 428 140 q 476 288 476 213 l 476 963 l 694 963 l 694 278 m 217 1363 l 329 1093 l 232 1044 l 86 1293 l 217 1363 m 426 1363 l 531 1093 l 431 1051 l 294 1297 l 426 1363 z "},"Ü":{"ha":744,"x_min":50,"x_max":694,"o":"m 694 278 q 658 124 694 192 q 550 17 622 57 q 372 -22 478 -22 q 132 60 214 -22 q 50 278 50 142 l 50 963 l 268 963 l 268 288 q 292 176 268 213 q 372 140 317 140 q 452 176 428 140 q 476 288 476 213 l 476 963 l 694 963 l 694 278 m 243 1279 q 317 1249 288 1279 q 346 1174 346 1218 q 317 1098 346 1128 q 243 1068 289 1068 q 169 1099 199 1068 q 139 1174 139 1129 q 169 1249 139 1218 q 243 1279 199 1279 m 515 1279 q 589 1249 560 1279 q 618 1174 618 1218 q 590 1098 618 1128 q 515 1068 561 1068 q 442 1099 472 1068 q 413 1174 413 1129 q 442 1249 413 1218 q 515 1279 472 1279 z "},"Ǘ":{"ha":744,"x_min":50,"x_max":694,"o":"m 694 278 q 658 124 694 192 q 550 17 622 57 q 372 -22 478 -22 q 132 60 214 -22 q 50 278 50 142 l 50 963 l 268 963 l 268 288 q 292 176 268 213 q 372 140 317 140 q 452 176 428 140 q 476 288 476 213 l 476 963 l 694 963 l 694 278 m 460 1511 l 582 1406 l 382 1206 l 300 1272 l 460 1511 m 226 1250 q 301 1220 272 1250 q 329 1144 329 1190 q 301 1069 329 1099 q 226 1039 272 1039 q 152 1069 182 1039 q 122 1144 122 1100 q 152 1219 122 1189 q 226 1250 182 1250 m 518 1250 q 592 1220 564 1250 q 621 1144 621 1190 q 592 1069 621 1099 q 518 1039 564 1039 q 444 1069 474 1039 q 414 1144 414 1100 q 444 1219 414 1189 q 518 1250 474 1250 z "},"Ǚ":{"ha":744,"x_min":50,"x_max":694,"o":"m 694 278 q 658 124 694 192 q 550 17 622 57 q 372 -22 478 -22 q 132 60 214 -22 q 50 278 50 142 l 50 963 l 268 963 l 268 288 q 292 176 268 213 q 372 140 317 140 q 452 176 428 140 q 476 288 476 213 l 476 963 l 694 963 l 694 278 m 531 1508 l 603 1432 l 439 1250 l 314 1250 l 150 1432 l 222 1508 l 376 1392 l 531 1508 m 226 1250 q 301 1220 272 1250 q 329 1144 329 1190 q 301 1069 329 1099 q 226 1039 272 1039 q 152 1069 182 1039 q 122 1144 122 1100 q 152 1219 122 1189 q 226 1250 182 1250 m 518 1250 q 592 1220 564 1250 q 621 1144 621 1190 q 592 1069 621 1099 q 518 1039 564 1039 q 445 1069 475 1039 q 415 1144 415 1100 q 445 1219 415 1189 q 518 1250 475 1250 z "},"Ǜ":{"ha":744,"x_min":50,"x_max":694,"o":"m 694 278 q 658 124 694 192 q 550 17 622 57 q 372 -22 478 -22 q 132 60 214 -22 q 50 278 50 142 l 50 963 l 268 963 l 268 288 q 292 176 268 213 q 372 140 317 140 q 452 176 428 140 q 476 288 476 213 l 476 963 l 694 963 l 694 278 m 294 1511 l 456 1272 l 374 1206 l 172 1406 l 294 1511 m 226 1250 q 301 1220 272 1250 q 329 1144 329 1190 q 301 1069 329 1099 q 226 1039 272 1039 q 152 1069 182 1039 q 122 1144 122 1100 q 152 1219 122 1189 q 226 1250 182 1250 m 518 1250 q 592 1220 564 1250 q 621 1144 621 1190 q 592 1069 621 1099 q 518 1039 564 1039 q 444 1069 474 1039 q 414 1144 414 1100 q 444 1219 414 1189 q 518 1250 474 1250 z "},"Ǖ":{"ha":744,"x_min":50,"x_max":694,"o":"m 694 278 q 658 124 694 192 q 550 17 622 57 q 372 -22 478 -22 q 132 60 214 -22 q 50 278 50 142 l 50 963 l 268 963 l 268 288 q 292 176 268 213 q 372 140 317 140 q 452 176 428 140 q 476 288 476 213 l 476 963 l 694 963 l 694 278 m 238 1247 q 311 1217 282 1247 q 340 1142 340 1186 q 312 1066 340 1096 q 238 1036 283 1036 q 163 1067 193 1036 q 133 1142 133 1097 q 163 1217 133 1186 q 238 1247 193 1247 m 510 1247 q 583 1217 554 1247 q 613 1142 613 1186 q 584 1066 613 1096 q 510 1036 556 1036 q 437 1067 467 1036 q 407 1142 407 1097 q 437 1217 407 1186 q 510 1247 467 1247 m 554 1310 l 193 1310 l 193 1451 l 554 1451 l 554 1310 z "},"Ụ":{"ha":744,"x_min":50,"x_max":694,"o":"m 694 278 q 658 124 694 192 q 550 17 622 57 q 372 -22 478 -22 q 132 60 214 -22 q 50 278 50 142 l 50 963 l 268 963 l 268 288 q 292 176 268 213 q 372 140 317 140 q 452 176 428 140 q 476 288 476 213 l 476 963 l 694 963 l 694 278 m 372 -326 q 285 -292 318 -326 q 253 -206 253 -258 q 286 -120 253 -154 q 372 -86 319 -86 q 458 -120 425 -86 q 492 -206 492 -154 q 458 -292 492 -258 q 372 -326 425 -326 z "},"Ù":{"ha":744,"x_min":50,"x_max":694,"o":"m 694 278 q 658 124 694 192 q 550 17 622 57 q 372 -22 478 -22 q 132 60 214 -22 q 50 278 50 142 l 50 963 l 268 963 l 268 288 q 292 176 268 213 q 372 140 317 140 q 452 176 428 140 q 476 288 476 213 l 476 963 l 694 963 l 694 278 m 282 1311 l 538 1146 l 485 1043 l 203 1160 l 282 1311 z "},"Ủ":{"ha":744,"x_min":50,"x_max":694,"o":"m 694 278 q 658 124 694 192 q 550 17 622 57 q 372 -22 478 -22 q 132 60 214 -22 q 50 278 50 142 l 50 963 l 268 963 l 268 288 q 292 176 268 213 q 372 140 317 140 q 452 176 428 140 q 476 288 476 213 l 476 963 l 694 963 l 694 278 m 313 1185 q 375 1199 357 1188 q 393 1238 393 1210 q 381 1271 393 1260 q 350 1282 369 1282 q 315 1278 331 1282 q 281 1264 300 1274 l 249 1353 q 379 1388 304 1388 q 489 1349 450 1388 q 528 1249 528 1311 q 503 1163 528 1196 q 431 1121 478 1131 l 431 1061 l 313 1061 l 313 1185 z "},"Ư":{"ha":860,"x_min":50,"x_max":874,"o":"m 874 950 q 826 824 874 867 q 694 778 778 781 l 694 278 q 658 124 694 192 q 550 17 622 57 q 372 -22 478 -22 q 132 60 214 -22 q 50 278 50 142 l 50 963 l 268 963 l 268 288 q 292 176 268 213 q 372 140 317 140 q 452 176 428 140 q 476 288 476 213 l 476 963 l 694 963 l 694 882 q 728 903 718 888 q 738 950 738 919 q 722 1053 738 1001 l 851 1074 q 874 950 874 1010 z "},"Ứ":{"ha":860,"x_min":50,"x_max":874,"o":"m 539 1161 l 257 1043 l 204 1146 l 460 1313 l 539 1161 m 874 950 q 826 824 874 867 q 694 778 778 781 l 694 278 q 658 124 694 192 q 550 17 622 57 q 372 -22 478 -22 q 132 60 214 -22 q 50 278 50 142 l 50 963 l 268 963 l 268 288 q 292 176 268 213 q 372 140 317 140 q 452 176 428 140 q 476 288 476 213 l 476 963 l 694 963 l 694 882 q 728 903 718 888 q 738 950 738 919 q 722 1053 738 1001 l 851 1074 q 874 950 874 1010 z "},"Ự":{"ha":860,"x_min":50,"x_max":874,"o":"m 874 950 q 826 824 874 867 q 694 778 778 781 l 694 278 q 658 124 694 192 q 550 17 622 57 q 372 -22 478 -22 q 132 60 214 -22 q 50 278 50 142 l 50 963 l 268 963 l 268 288 q 292 176 268 213 q 372 140 317 140 q 452 176 428 140 q 476 288 476 213 l 476 963 l 694 963 l 694 882 q 728 903 718 888 q 738 950 738 919 q 722 1053 738 1001 l 851 1074 q 874 950 874 1010 m 372 -86 q 458 -120 425 -86 q 492 -206 492 -154 q 458 -292 492 -258 q 372 -326 425 -326 q 285 -292 318 -326 q 253 -206 253 -258 q 286 -120 253 -154 q 372 -86 319 -86 z "},"Ừ":{"ha":860,"x_min":50,"x_max":874,"o":"m 538 1146 l 485 1043 l 203 1160 l 282 1311 l 538 1146 m 874 950 q 826 824 874 867 q 694 778 778 781 l 694 278 q 658 124 694 192 q 550 17 622 57 q 372 -22 478 -22 q 132 60 214 -22 q 50 278 50 142 l 50 963 l 268 963 l 268 288 q 292 176 268 213 q 372 140 317 140 q 452 176 428 140 q 476 288 476 213 l 476 963 l 694 963 l 694 882 q 728 903 718 888 q 738 950 738 919 q 722 1053 738 1001 l 851 1074 q 874 950 874 1010 z "},"Ử":{"ha":860,"x_min":50,"x_max":874,"o":"m 350 1282 q 315 1278 331 1282 q 281 1264 300 1274 l 249 1353 q 379 1388 304 1388 q 489 1349 450 1388 q 528 1249 528 1311 q 503 1163 528 1196 q 431 1121 478 1131 l 431 1061 l 313 1061 l 313 1185 q 375 1199 357 1188 q 393 1238 393 1210 q 382 1271 393 1260 q 350 1282 371 1282 m 874 950 q 826 824 874 867 q 694 778 778 781 l 694 278 q 658 124 694 192 q 550 17 622 57 q 372 -22 478 -22 q 132 60 214 -22 q 50 278 50 142 l 50 963 l 268 963 l 268 288 q 292 176 268 213 q 372 140 317 140 q 452 176 428 140 q 476 288 476 213 l 476 963 l 694 963 l 694 882 q 728 903 718 888 q 738 950 738 919 q 722 1053 738 1001 l 851 1074 q 874 950 874 1010 z "},"Ữ":{"ha":860,"x_min":50,"x_max":874,"o":"m 307 1122 q 276 1109 289 1122 q 247 1065 264 1096 l 150 1111 q 213 1223 172 1181 q 304 1265 253 1265 q 347 1257 329 1265 q 392 1232 365 1249 q 418 1214 407 1219 q 442 1208 429 1208 q 472 1222 460 1208 q 499 1264 483 1235 l 597 1219 q 535 1108 575 1149 q 443 1067 494 1067 q 398 1076 417 1067 q 356 1100 379 1085 q 307 1122 326 1122 m 874 950 q 826 824 874 867 q 694 778 778 781 l 694 278 q 658 124 694 192 q 550 17 622 57 q 372 -22 478 -22 q 132 60 214 -22 q 50 278 50 142 l 50 963 l 268 963 l 268 288 q 292 176 268 213 q 372 140 317 140 q 452 176 428 140 q 476 288 476 213 l 476 963 l 694 963 l 694 882 q 728 903 718 888 q 738 950 738 919 q 722 1053 738 1001 l 851 1074 q 874 950 874 1010 z "},"Ű":{"ha":744,"x_min":50,"x_max":694,"o":"m 694 278 q 658 124 694 192 q 550 17 622 57 q 372 -22 478 -22 q 132 60 214 -22 q 50 278 50 142 l 50 963 l 268 963 l 268 288 q 292 176 268 213 q 372 140 317 140 q 452 176 428 140 q 476 288 476 213 l 476 963 l 694 963 l 694 278 m 321 1363 l 454 1297 l 317 1051 l 217 1093 l 321 1363 m 531 1363 l 661 1293 l 515 1044 l 418 1093 l 531 1363 z "},"Ȗ":{"ha":744,"x_min":50,"x_max":694,"o":"m 694 278 q 658 124 694 192 q 550 17 622 57 q 372 -22 478 -22 q 132 60 214 -22 q 50 278 50 142 l 50 963 l 268 963 l 268 288 q 292 176 268 213 q 372 140 317 140 q 452 176 428 140 q 476 288 476 213 l 476 963 l 694 963 l 694 278 m 374 1317 q 519 1255 468 1317 q 578 1083 571 1193 l 467 1063 q 374 1174 447 1174 q 278 1063 300 1174 l 168 1083 q 227 1255 175 1193 q 374 1317 279 1317 z "},"Ū":{"ha":744,"x_min":50,"x_max":694,"o":"m 694 278 q 658 124 694 192 q 550 17 622 57 q 372 -22 478 -22 q 132 60 214 -22 q 50 278 50 142 l 50 963 l 268 963 l 268 288 q 292 176 268 213 q 372 140 317 140 q 452 176 428 140 q 476 288 476 213 l 476 963 l 694 963 l 694 278 m 553 1089 l 192 1089 l 192 1231 l 553 1231 l 553 1089 z "},"Ų":{"ha":744,"x_min":50,"x_max":694,"o":"m 694 963 l 694 278 q 648 106 694 181 q 511 0 601 32 q 379 -143 379 -62 q 395 -190 379 -174 q 439 -207 411 -207 q 508 -197 474 -207 l 496 -328 q 413 -339 454 -339 q 286 -295 336 -339 q 236 -179 236 -251 q 343 -21 236 -79 q 124 67 199 -14 q 50 278 50 149 l 50 963 l 268 963 l 268 288 q 292 176 268 213 q 372 140 317 140 q 452 176 428 140 q 476 288 476 213 l 476 963 l 694 963 z "},"Ʊ":{"ha":786,"x_min":28,"x_max":758,"o":"m 393 -22 q 123 92 218 -22 q 28 415 28 207 q 67 651 28 558 q 179 806 106 744 l 51 806 l 51 963 l 336 963 l 336 814 q 274 654 293 742 q 254 415 254 567 q 288 201 254 264 q 393 138 321 138 q 498 201 465 138 q 531 417 531 264 q 512 656 531 568 q 451 814 493 743 l 451 963 l 735 963 l 735 806 l 606 806 q 719 655 679 747 q 758 417 758 563 q 663 94 758 211 q 393 -22 567 -22 z "},"Ů":{"ha":744,"x_min":50,"x_max":694,"o":"m 694 278 q 658 124 694 192 q 550 17 622 57 q 372 -22 478 -22 q 132 60 214 -22 q 50 278 50 142 l 50 963 l 268 963 l 268 288 q 292 176 268 213 q 372 140 317 140 q 452 176 428 140 q 476 288 476 213 l 476 963 l 694 963 l 694 278 m 374 1375 q 497 1326 451 1375 q 543 1197 543 1276 q 497 1067 543 1117 q 374 1017 451 1017 q 249 1067 294 1017 q 204 1197 204 1117 q 249 1326 204 1276 q 374 1375 294 1375 m 374 1271 q 325 1197 325 1271 q 338 1140 325 1157 q 374 1122 350 1122 q 424 1197 424 1122 q 374 1271 424 1271 z "},"Ũ":{"ha":744,"x_min":50,"x_max":694,"o":"m 694 278 q 658 124 694 192 q 550 17 622 57 q 372 -22 478 -22 q 132 60 214 -22 q 50 278 50 142 l 50 963 l 268 963 l 268 288 q 292 176 268 213 q 372 140 317 140 q 452 176 428 140 q 476 288 476 213 l 476 963 l 694 963 l 694 278 m 443 1067 q 398 1076 417 1067 q 356 1100 379 1085 q 307 1122 326 1122 q 276 1109 289 1122 q 247 1065 264 1096 l 150 1111 q 213 1223 172 1181 q 304 1265 253 1265 q 347 1257 329 1265 q 392 1232 365 1249 q 418 1214 407 1219 q 442 1208 429 1208 q 472 1222 460 1208 q 499 1264 483 1235 l 597 1219 q 535 1108 575 1149 q 443 1067 494 1067 z "},"Ṹ":{"ha":744,"x_min":50,"x_max":694,"o":"m 694 278 q 658 124 694 192 q 550 17 622 57 q 372 -22 478 -22 q 132 60 214 -22 q 50 278 50 142 l 50 963 l 268 963 l 268 288 q 292 176 268 213 q 372 140 317 140 q 452 176 428 140 q 476 288 476 213 l 476 963 l 694 963 l 694 278 m 443 1057 q 398 1066 417 1057 q 356 1090 379 1075 q 307 1113 326 1113 q 276 1099 289 1113 q 247 1056 264 1086 l 150 1101 q 213 1213 172 1171 q 304 1256 253 1256 q 347 1247 329 1256 q 392 1222 365 1239 q 418 1204 407 1210 q 442 1199 429 1199 q 472 1212 460 1199 q 499 1254 483 1225 l 597 1210 q 535 1098 575 1139 q 443 1057 494 1057 m 461 1553 l 540 1401 l 258 1283 l 206 1386 l 461 1553 z "},"V":{"ha":678,"x_min":-12,"x_max":690,"o":"m 690 963 l 485 0 l 204 0 l -12 963 l 206 963 l 347 172 l 478 963 l 690 963 z "},"Ʋ":{"ha":744,"x_min":50,"x_max":694,"o":"m 506 986 q 645 934 596 986 q 694 783 694 882 l 694 372 q 651 160 694 249 q 530 24 608 71 q 349 -22 451 -22 q 190 15 257 -22 q 86 116 122 51 q 50 264 50 181 l 50 963 l 268 963 l 268 256 q 290 170 268 200 q 354 140 313 140 q 442 196 408 140 q 476 358 476 251 l 476 785 q 468 816 476 804 q 446 828 460 828 q 418 822 435 828 l 389 964 q 506 986 442 986 z "},"Ʌ":{"ha":703,"x_min":-12,"x_max":715,"o":"m 482 963 l 715 0 l 490 0 l 349 803 l 208 0 l -12 0 l 221 963 l 482 963 z "},"W":{"ha":989,"x_min":11,"x_max":978,"o":"m 978 963 l 857 0 l 572 0 l 493 746 l 406 0 l 128 0 l 11 963 l 219 963 l 289 167 l 383 963 l 608 963 l 697 167 l 778 963 l 978 963 z "},"Ẃ":{"ha":989,"x_min":11,"x_max":978,"o":"m 978 963 l 857 0 l 572 0 l 493 746 l 406 0 l 128 0 l 11 963 l 219 963 l 289 167 l 383 963 l 608 963 l 697 167 l 778 963 l 978 963 m 585 1313 l 664 1161 l 382 1043 l 329 1146 l 585 1313 z "},"Ŵ":{"ha":989,"x_min":11,"x_max":978,"o":"m 978 963 l 857 0 l 572 0 l 493 746 l 406 0 l 128 0 l 11 963 l 219 963 l 289 167 l 383 963 l 608 963 l 697 167 l 778 963 l 978 963 m 343 1056 l 271 1131 l 435 1313 l 560 1313 l 724 1131 l 651 1056 l 497 1171 l 343 1056 z "},"Ẅ":{"ha":989,"x_min":11,"x_max":978,"o":"m 978 963 l 857 0 l 572 0 l 493 746 l 406 0 l 128 0 l 11 963 l 219 963 l 289 167 l 383 963 l 608 963 l 697 167 l 778 963 l 978 963 m 368 1279 q 442 1249 413 1279 q 471 1174 471 1218 q 442 1098 471 1128 q 368 1068 414 1068 q 294 1099 324 1068 q 264 1174 264 1129 q 294 1249 264 1218 q 368 1279 324 1279 m 640 1279 q 714 1249 685 1279 q 743 1174 743 1218 q 715 1098 743 1128 q 640 1068 686 1068 q 567 1099 597 1068 q 538 1174 538 1129 q 567 1249 538 1218 q 640 1279 597 1279 z "},"Ẁ":{"ha":989,"x_min":11,"x_max":978,"o":"m 978 963 l 857 0 l 572 0 l 493 746 l 406 0 l 128 0 l 11 963 l 219 963 l 289 167 l 383 963 l 608 963 l 697 167 l 778 963 l 978 963 m 407 1311 l 663 1146 l 610 1043 l 328 1160 l 407 1311 z "},"Ⱳ":{"ha":1063,"x_min":11,"x_max":1103,"o":"m 128 0 l 406 0 l 493 746 l 572 0 l 857 0 l 933 758 q 951 816 938 800 q 990 832 964 832 q 1020 828 1008 832 q 1047 815 1032 824 l 1103 936 q 954 986 1035 986 q 813 935 865 986 q 751 765 761 883 l 697 167 l 608 963 l 383 963 l 289 167 l 219 963 l 11 963 l 128 0 z "},"Ƿ":{"ha":693,"x_min":64,"x_max":679,"o":"m 457 986 q 570 953 519 986 q 650 860 621 921 q 679 718 679 800 q 639 538 679 611 q 532 415 599 464 q 364 319 465 367 l 282 282 l 282 0 l 64 0 l 64 963 l 282 963 l 282 908 q 457 986 356 986 m 314 454 q 422 560 388 503 q 456 707 456 618 q 378 828 456 828 q 282 779 326 828 l 282 436 l 314 454 z "},"X":{"ha":679,"x_min":-10,"x_max":689,"o":"m 465 519 l 689 0 l 461 0 l 335 375 l 215 0 l -10 0 l 206 511 l 6 963 l 233 963 l 338 646 l 449 963 l 671 963 l 465 519 z "},"Y":{"ha":694,"x_min":-14,"x_max":710,"o":"m 710 963 l 457 363 l 457 0 l 239 0 l 239 361 l -14 963 l 214 963 l 350 532 l 489 963 l 710 963 z "},"Ý":{"ha":694,"x_min":-14,"x_max":710,"o":"m 710 963 l 457 363 l 457 0 l 239 0 l 239 361 l -14 963 l 214 963 l 350 532 l 489 963 l 710 963 m 435 1313 l 514 1161 l 232 1043 l 179 1146 l 435 1313 z "},"Ŷ":{"ha":694,"x_min":-14,"x_max":710,"o":"m 710 963 l 457 363 l 457 0 l 239 0 l 239 361 l -14 963 l 214 963 l 350 532 l 489 963 l 710 963 m 193 1056 l 121 1131 l 285 1313 l 410 1313 l 574 1131 l 501 1056 l 347 1171 l 193 1056 z "},"Ÿ":{"ha":694,"x_min":-14,"x_max":710,"o":"m 710 963 l 457 363 l 457 0 l 239 0 l 239 361 l -14 963 l 214 963 l 350 532 l 489 963 l 710 963 m 218 1279 q 292 1249 263 1279 q 321 1174 321 1218 q 292 1098 321 1128 q 218 1068 264 1068 q 144 1099 174 1068 q 114 1174 114 1129 q 144 1249 114 1218 q 218 1279 174 1279 m 490 1279 q 564 1249 535 1279 q 593 1174 593 1218 q 565 1098 593 1128 q 490 1068 536 1068 q 417 1099 447 1068 q 388 1174 388 1129 q 417 1249 388 1218 q 490 1279 447 1279 z "},"Ỵ":{"ha":694,"x_min":-14,"x_max":710,"o":"m 710 963 l 457 363 l 457 0 l 239 0 l 239 361 l -14 963 l 214 963 l 350 532 l 489 963 l 710 963 m 347 -326 q 260 -292 293 -326 q 228 -206 228 -258 q 261 -120 228 -154 q 347 -86 294 -86 q 433 -120 400 -86 q 467 -206 467 -154 q 433 -292 467 -258 q 347 -326 400 -326 z "},"Ỳ":{"ha":694,"x_min":-14,"x_max":710,"o":"m 710 963 l 457 363 l 457 0 l 239 0 l 239 361 l -14 963 l 214 963 l 350 532 l 489 963 l 710 963 m 257 1311 l 513 1146 l 460 1043 l 178 1160 l 257 1311 z "},"Ƴ":{"ha":736,"x_min":-14,"x_max":778,"o":"m 239 361 l -14 963 l 214 963 l 351 533 l 428 793 q 501 942 456 897 q 629 986 547 986 q 778 936 710 986 l 722 815 q 664 832 692 832 q 625 816 639 832 q 596 758 611 800 l 457 361 l 457 0 l 239 0 l 239 361 z "},"Ỷ":{"ha":694,"x_min":-14,"x_max":710,"o":"m 710 963 l 457 363 l 457 0 l 239 0 l 239 361 l -14 963 l 214 963 l 350 532 l 489 963 l 710 963 m 288 1185 q 350 1199 332 1188 q 368 1238 368 1210 q 356 1271 368 1260 q 325 1282 344 1282 q 290 1278 306 1282 q 256 1264 275 1274 l 224 1353 q 354 1388 279 1388 q 464 1349 425 1388 q 503 1249 503 1311 q 478 1163 503 1196 q 406 1121 453 1131 l 406 1061 l 288 1061 l 288 1185 z "},"Ȳ":{"ha":694,"x_min":-14,"x_max":710,"o":"m 710 963 l 457 363 l 457 0 l 239 0 l 239 361 l -14 963 l 214 963 l 350 532 l 489 963 l 710 963 m 528 1089 l 167 1089 l 167 1231 l 528 1231 l 528 1089 z "},"Ʀ":{"ha":726,"x_min":64,"x_max":739,"o":"m 507 -161 l 350 210 l 343 210 l 282 210 l 282 0 l 64 0 l 64 963 l 282 963 l 282 801 l 328 801 q 688 510 688 801 q 652 357 688 425 q 542 250 617 289 l 739 -161 l 507 -161 m 335 361 q 434 397 404 361 q 464 510 464 432 q 432 613 464 581 q 328 647 400 646 l 282 649 l 282 361 l 335 361 z "},"Ɏ":{"ha":694,"x_min":-14,"x_max":710,"o":"m 710 963 l 664 853 l 708 853 l 708 729 l 611 729 l 457 363 l 457 0 l 239 0 l 239 361 l 85 729 l -12 729 l -12 853 l 32 853 l -14 963 l 206 963 l 242 853 l 461 853 l 497 963 l 710 963 m 350 524 l 419 729 l 282 729 l 350 524 z "},"Ỹ":{"ha":694,"x_min":-14,"x_max":710,"o":"m 710 963 l 457 363 l 457 0 l 239 0 l 239 361 l -14 963 l 214 963 l 350 532 l 489 963 l 710 963 m 418 1067 q 373 1076 392 1067 q 331 1100 354 1085 q 282 1122 301 1122 q 251 1109 264 1122 q 222 1065 239 1096 l 125 1111 q 188 1223 147 1181 q 279 1265 228 1265 q 322 1257 304 1265 q 367 1232 340 1249 q 393 1214 382 1219 q 417 1208 404 1208 q 447 1222 435 1208 q 474 1264 458 1235 l 572 1219 q 510 1108 550 1149 q 418 1067 469 1067 z "},"Z":{"ha":625,"x_min":14,"x_max":607,"o":"m 600 963 l 600 797 l 251 175 l 607 175 l 586 0 l 14 0 l 14 163 l 361 793 l 47 793 l 47 963 l 600 963 z "},"Ź":{"ha":625,"x_min":14,"x_max":607,"o":"m 600 963 l 600 797 l 251 175 l 607 175 l 586 0 l 14 0 l 14 163 l 361 793 l 47 793 l 47 963 l 600 963 m 404 1313 l 483 1161 l 201 1043 l 149 1146 l 404 1313 z "},"Ž":{"ha":625,"x_min":14,"x_max":607,"o":"m 600 963 l 600 797 l 251 175 l 607 175 l 586 0 l 14 0 l 14 163 l 361 793 l 47 793 l 47 963 l 600 963 m 471 1300 l 543 1224 l 379 1042 l 254 1042 l 90 1224 l 163 1300 l 317 1183 l 471 1300 z "},"Ż":{"ha":625,"x_min":14,"x_max":607,"o":"m 600 963 l 600 797 l 251 175 l 607 175 l 586 0 l 14 0 l 14 163 l 361 793 l 47 793 l 47 963 l 600 963 m 315 1296 q 402 1262 369 1296 q 435 1175 435 1228 q 401 1090 435 1124 q 315 1056 368 1056 q 229 1090 263 1056 q 196 1175 196 1124 q 229 1262 196 1228 q 315 1296 263 1296 z "},"Ẓ":{"ha":625,"x_min":14,"x_max":607,"o":"m 600 963 l 600 797 l 251 175 l 607 175 l 586 0 l 14 0 l 14 163 l 361 793 l 47 793 l 47 963 l 600 963 m 304 -326 q 217 -292 250 -326 q 185 -206 185 -258 q 218 -120 185 -154 q 304 -86 251 -86 q 390 -120 357 -86 q 424 -206 424 -154 q 390 -292 424 -258 q 304 -326 357 -326 z "},"Ȥ":{"ha":618,"x_min":14,"x_max":600,"o":"m 600 797 l 251 175 l 597 175 l 597 -67 q 531 -246 597 -185 q 356 -307 465 -307 q 253 -292 296 -307 q 175 -249 211 -276 l 247 -125 q 286 -142 268 -137 q 328 -147 304 -147 q 389 -79 389 -147 l 389 1 l 14 0 l 14 163 l 361 793 l 47 793 l 47 963 l 600 963 l 600 797 z "},"Ƶ":{"ha":625,"x_min":14,"x_max":607,"o":"m 235 175 l 607 175 l 586 0 l 14 0 l 14 154 l 160 408 l 67 408 l 67 549 l 239 549 l 379 793 l 47 793 l 47 963 l 600 963 l 600 806 l 451 549 l 544 549 l 544 408 l 369 408 l 235 175 z "},"ʙ":{"ha":647,"x_min":63,"x_max":611,"o":"m 444 404 q 569 348 528 394 q 611 224 611 301 q 535 56 611 111 q 325 0 460 0 l 63 0 l 63 733 q 318 761 214 761 q 513 707 442 761 q 585 560 585 653 q 444 404 585 439 m 315 628 q 272 625 303 628 l 272 447 l 315 447 q 367 466 349 447 q 385 536 385 485 q 369 609 385 590 q 315 628 353 628 m 324 136 q 381 157 363 136 q 400 238 400 178 q 381 315 400 294 q 322 335 363 335 l 272 335 l 272 136 l 324 136 z "},"ɢ":{"ha":663,"x_min":36,"x_max":617,"o":"m 361 761 q 500 735 440 761 q 608 661 560 708 l 513 554 q 443 596 475 582 q 375 610 411 610 q 281 558 310 610 q 251 372 251 506 q 263 219 251 272 q 296 148 275 167 q 350 129 317 129 q 426 147 388 129 l 426 290 l 357 290 l 336 431 l 617 431 l 617 65 q 346 -21 494 -21 q 111 72 186 -21 q 36 372 36 164 q 125 662 36 563 q 361 761 214 761 z "},"ʛ":{"ha":660,"x_min":36,"x_max":792,"o":"m 626 1053 q 792 1001 715 1053 l 733 875 q 661 897 693 897 q 621 881 633 897 q 608 825 608 864 l 608 661 l 519 560 q 376 610 444 610 q 281 558 311 610 q 251 372 251 506 q 263 219 251 272 q 296 148 275 167 q 350 129 317 129 q 426 147 388 129 l 426 290 l 357 290 l 336 431 l 617 431 l 617 65 q 346 -21 494 -21 q 111 72 186 -21 q 36 372 36 164 q 76 586 36 499 q 185 717 117 674 q 340 761 254 761 q 428 746 390 761 l 428 846 q 481 998 428 943 q 626 1053 535 1053 z "},"ʜ":{"ha":676,"x_min":63,"x_max":615,"o":"m 406 0 l 406 297 l 272 297 l 272 0 l 63 0 l 63 738 l 272 738 l 272 451 l 406 451 l 406 738 l 615 738 l 615 0 l 406 0 z "},"ɪ":{"ha":389,"x_min":15,"x_max":374,"o":"m 374 590 l 299 590 l 299 150 l 374 150 l 374 0 l 15 0 l 15 150 l 89 150 l 89 590 l 15 590 l 15 738 l 374 738 l 374 590 z "},"ʟ":{"ha":524,"x_min":63,"x_max":518,"o":"m 272 738 l 272 163 l 518 163 l 497 0 l 63 0 l 63 738 l 272 738 z "},"ɴ":{"ha":679,"x_min":63,"x_max":617,"o":"m 617 0 l 368 0 l 213 554 q 231 394 225 469 q 238 219 238 319 l 238 0 l 63 0 l 63 738 l 308 738 l 465 185 q 447 338 453 274 q 442 492 442 401 l 442 738 l 617 738 l 617 0 z "},"ɶ":{"ha":890,"x_min":36,"x_max":871,"o":"m 636 304 q 581 144 624 207 l 865 144 l 865 0 l 458 0 q 340 -22 399 -22 q 117 77 199 -22 q 36 369 36 176 q 117 660 36 558 q 342 761 199 761 q 457 738 407 761 l 871 738 l 850 593 l 582 593 q 635 443 622 532 l 822 443 l 822 304 l 636 304 m 343 132 q 413 184 392 132 q 433 369 433 236 q 412 553 433 500 q 343 606 390 606 q 273 553 294 606 q 251 369 251 501 q 273 183 251 235 q 343 132 294 132 z "},"ʀ":{"ha":622,"x_min":63,"x_max":621,"o":"m 304 257 l 261 257 l 261 0 l 63 0 l 63 738 l 292 738 q 508 676 435 738 q 582 496 582 615 q 476 292 582 350 l 621 0 l 413 0 l 304 257 m 261 386 l 296 386 q 355 411 336 386 q 374 499 374 436 q 354 580 374 557 q 290 603 335 603 l 261 603 l 261 386 z "},"ʁ":{"ha":622,"x_min":63,"x_max":621,"o":"m 476 446 q 582 243 582 389 q 508 62 582 124 q 292 0 435 0 l 63 0 l 63 738 l 261 738 l 261 481 l 304 481 l 413 738 l 621 738 l 476 446 m 290 136 q 354 159 335 136 q 374 240 374 182 q 355 328 374 303 q 296 353 336 353 l 261 353 l 261 136 l 290 136 z "},"ʏ":{"ha":585,"x_min":-19,"x_max":604,"o":"m 604 738 l 397 268 l 397 0 l 188 0 l 188 267 l -19 738 l 194 738 l 294 397 l 394 738 l 604 738 z "},"a":{"ha":635,"x_min":25,"x_max":607,"o":"m 569 196 q 578 144 569 161 q 607 118 586 128 l 564 -19 q 466 9 504 -14 q 407 81 428 32 q 225 -24 343 -24 q 79 40 133 -24 q 25 207 25 103 q 100 391 25 328 q 319 454 175 454 l 364 454 l 364 493 q 344 585 364 560 q 272 611 324 611 q 114 574 208 611 l 67 707 q 188 747 124 733 q 311 761 253 761 q 506 698 442 761 q 569 504 569 635 l 569 196 m 289 125 q 332 143 313 125 q 364 194 351 161 l 364 338 l 339 338 q 256 310 282 338 q 231 225 231 283 q 246 151 231 176 q 289 125 261 125 z "},"á":{"ha":635,"x_min":25,"x_max":607,"o":"m 569 196 q 578 144 569 161 q 607 118 586 128 l 564 -19 q 466 9 504 -14 q 407 81 428 32 q 225 -24 343 -24 q 79 40 133 -24 q 25 207 25 103 q 100 391 25 328 q 319 454 175 454 l 364 454 l 364 493 q 344 585 364 560 q 272 611 324 611 q 114 574 208 611 l 67 707 q 188 747 124 733 q 311 761 253 761 q 506 698 442 761 q 569 504 569 635 l 569 196 m 289 125 q 332 143 313 125 q 364 194 351 161 l 364 338 l 339 338 q 256 310 282 338 q 231 225 231 283 q 246 151 231 176 q 289 125 261 125 m 389 1146 l 471 997 l 192 867 l 135 968 l 389 1146 z "},"ă":{"ha":635,"x_min":25,"x_max":607,"o":"m 569 196 q 578 144 569 161 q 607 118 586 128 l 564 -19 q 466 9 504 -14 q 407 81 428 32 q 225 -24 343 -24 q 79 40 133 -24 q 25 207 25 103 q 100 391 25 328 q 319 454 175 454 l 364 454 l 364 493 q 344 585 364 560 q 272 611 324 611 q 114 574 208 611 l 67 707 q 188 747 124 733 q 311 761 253 761 q 506 698 442 761 q 569 504 569 635 l 569 196 m 289 125 q 332 143 313 125 q 364 194 351 161 l 364 338 l 339 338 q 256 310 282 338 q 231 225 231 283 q 246 151 231 176 q 289 125 261 125 m 315 881 q 169 942 221 881 q 110 1114 117 1004 l 219 1135 q 315 1024 242 1024 q 408 1135 389 1024 l 519 1114 q 461 942 513 1004 q 315 881 410 881 z "},"ắ":{"ha":635,"x_min":25,"x_max":607,"o":"m 569 196 q 578 144 569 161 q 607 118 586 128 l 564 -19 q 466 9 504 -14 q 407 81 428 32 q 225 -24 343 -24 q 79 40 133 -24 q 25 207 25 103 q 100 391 25 328 q 319 454 175 454 l 364 454 l 364 493 q 344 585 364 560 q 272 611 324 611 q 114 574 208 611 l 67 707 q 188 747 124 733 q 311 761 253 761 q 506 698 442 761 q 569 504 569 635 l 569 196 m 289 125 q 332 143 313 125 q 364 194 351 161 l 364 338 l 339 338 q 256 310 282 338 q 231 225 231 283 q 246 151 231 176 q 289 125 261 125 m 315 835 q 169 894 221 835 q 110 1053 118 953 l 219 1075 q 315 981 242 981 q 376 1005 353 981 q 408 1075 400 1029 l 519 1053 q 460 894 511 953 q 315 835 408 835 m 407 1369 l 529 1264 l 329 1064 l 247 1131 l 407 1369 z "},"ặ":{"ha":635,"x_min":25,"x_max":607,"o":"m 569 196 q 578 144 569 161 q 607 118 586 128 l 564 -19 q 466 9 504 -14 q 407 81 428 32 q 225 -24 343 -24 q 79 40 133 -24 q 25 207 25 103 q 100 391 25 328 q 319 454 175 454 l 364 454 l 364 493 q 344 585 364 560 q 272 611 324 611 q 114 574 208 611 l 67 707 q 188 747 124 733 q 311 761 253 761 q 506 698 442 761 q 569 504 569 635 l 569 196 m 289 125 q 332 143 313 125 q 364 194 351 161 l 364 338 l 339 338 q 256 310 282 338 q 231 225 231 283 q 246 151 231 176 q 289 125 261 125 m 315 881 q 169 942 221 881 q 110 1114 117 1004 l 219 1135 q 315 1024 242 1024 q 408 1135 389 1024 l 519 1114 q 461 942 513 1004 q 315 881 410 881 m 317 -326 q 230 -292 263 -326 q 197 -206 197 -258 q 231 -120 197 -154 q 317 -86 264 -86 q 403 -120 369 -86 q 436 -206 436 -154 q 403 -292 436 -258 q 317 -326 369 -326 z "},"ằ":{"ha":635,"x_min":25,"x_max":607,"o":"m 569 196 q 578 144 569 161 q 607 118 586 128 l 564 -19 q 466 9 504 -14 q 407 81 428 32 q 225 -24 343 -24 q 79 40 133 -24 q 25 207 25 103 q 100 391 25 328 q 319 454 175 454 l 364 454 l 364 493 q 344 585 364 560 q 272 611 324 611 q 114 574 208 611 l 67 707 q 188 747 124 733 q 311 761 253 761 q 506 698 442 761 q 569 504 569 635 l 569 196 m 289 125 q 332 143 313 125 q 364 194 351 161 l 364 338 l 339 338 q 256 310 282 338 q 231 225 231 283 q 246 151 231 176 q 289 125 261 125 m 322 835 q 176 894 228 835 q 117 1053 125 953 l 226 1075 q 322 981 249 981 q 383 1005 360 981 q 415 1075 407 1029 l 526 1053 q 467 894 518 953 q 322 835 415 835 m 236 1369 l 397 1131 l 315 1064 l 114 1264 l 236 1369 z "},"ẳ":{"ha":635,"x_min":25,"x_max":607,"o":"m 569 196 q 578 144 569 161 q 607 118 586 128 l 564 -19 q 466 9 504 -14 q 407 81 428 32 q 225 -24 343 -24 q 79 40 133 -24 q 25 207 25 103 q 100 391 25 328 q 319 454 175 454 l 364 454 l 364 493 q 344 585 364 560 q 272 611 324 611 q 114 574 208 611 l 67 707 q 188 747 124 733 q 311 761 253 761 q 506 698 442 761 q 569 504 569 635 l 569 196 m 289 125 q 332 143 313 125 q 364 194 351 161 l 364 338 l 339 338 q 256 310 282 338 q 231 225 231 283 q 246 151 231 176 q 289 125 261 125 m 319 835 q 174 894 225 835 q 114 1053 122 953 l 224 1075 q 319 981 246 981 q 381 1005 357 981 q 413 1075 404 1029 l 524 1053 q 464 894 515 953 q 319 835 413 835 m 260 1200 q 322 1215 304 1204 q 340 1254 340 1226 q 297 1299 340 1299 q 263 1294 278 1299 q 228 1282 249 1290 l 196 1369 q 326 1404 251 1404 q 436 1366 397 1404 q 475 1265 475 1328 q 450 1179 475 1211 q 378 1138 425 1147 l 378 1064 l 260 1064 l 260 1200 z "},"ẵ":{"ha":635,"x_min":25,"x_max":607,"o":"m 569 196 q 578 144 569 161 q 607 118 586 128 l 564 -19 q 466 9 504 -14 q 407 81 428 32 q 225 -24 343 -24 q 79 40 133 -24 q 25 207 25 103 q 100 391 25 328 q 319 454 175 454 l 364 454 l 364 493 q 344 585 364 560 q 272 611 324 611 q 114 574 208 611 l 67 707 q 188 747 124 733 q 311 761 253 761 q 506 698 442 761 q 569 504 569 635 l 569 196 m 289 125 q 332 143 313 125 q 364 194 351 161 l 364 338 l 339 338 q 256 310 282 338 q 231 225 231 283 q 246 151 231 176 q 289 125 261 125 m 315 835 q 169 894 221 835 q 110 1053 118 953 l 219 1075 q 315 981 242 981 q 376 1005 353 981 q 408 1075 400 1029 l 519 1053 q 460 894 511 953 q 315 835 408 835 m 385 1122 q 339 1131 358 1122 q 297 1154 319 1139 q 249 1175 265 1175 q 218 1163 231 1175 q 189 1121 206 1150 l 92 1164 q 155 1269 115 1229 q 246 1310 194 1310 q 290 1301 272 1310 q 333 1278 308 1293 q 383 1256 363 1256 q 413 1268 401 1256 q 440 1308 425 1281 l 539 1267 q 476 1161 517 1200 q 385 1122 436 1122 z "},"ǎ":{"ha":635,"x_min":25,"x_max":607,"o":"m 569 196 q 578 144 569 161 q 607 118 586 128 l 564 -19 q 466 9 504 -14 q 407 81 428 32 q 225 -24 343 -24 q 79 40 133 -24 q 25 207 25 103 q 100 391 25 328 q 319 454 175 454 l 364 454 l 364 493 q 344 585 364 560 q 272 611 324 611 q 114 574 208 611 l 67 707 q 188 747 124 733 q 311 761 253 761 q 506 698 442 761 q 569 504 569 635 l 569 196 m 289 125 q 332 143 313 125 q 364 194 351 161 l 364 338 l 339 338 q 256 310 282 338 q 231 225 231 283 q 246 151 231 176 q 289 125 261 125 m 468 1121 l 540 1044 l 376 851 l 251 851 l 88 1044 l 160 1121 l 314 992 l 468 1121 z "},"â":{"ha":635,"x_min":25,"x_max":607,"o":"m 569 196 q 578 144 569 161 q 607 118 586 128 l 564 -19 q 466 9 504 -14 q 407 81 428 32 q 225 -24 343 -24 q 79 40 133 -24 q 25 207 25 103 q 100 391 25 328 q 319 454 175 454 l 364 454 l 364 493 q 344 585 364 560 q 272 611 324 611 q 114 574 208 611 l 67 707 q 188 747 124 733 q 311 761 253 761 q 506 698 442 761 q 569 504 569 635 l 569 196 m 289 125 q 332 143 313 125 q 364 194 351 161 l 364 338 l 339 338 q 256 310 282 338 q 231 225 231 283 q 246 151 231 176 q 289 125 261 125 m 160 869 l 88 944 l 251 1138 l 376 1138 l 540 944 l 468 869 l 314 996 l 160 869 z "},"ấ":{"ha":635,"x_min":25,"x_max":714,"o":"m 569 196 q 578 144 569 161 q 607 118 586 128 l 564 -19 q 466 9 504 -14 q 407 81 428 32 q 225 -24 343 -24 q 79 40 133 -24 q 25 207 25 103 q 100 391 25 328 q 319 454 175 454 l 364 454 l 364 493 q 344 585 364 560 q 272 611 324 611 q 114 574 208 611 l 67 707 q 188 747 124 733 q 311 761 253 761 q 506 698 442 761 q 569 504 569 635 l 569 196 m 289 125 q 332 143 313 125 q 364 194 351 161 l 364 338 l 339 338 q 256 310 282 338 q 231 225 231 283 q 246 151 231 176 q 289 125 261 125 m 160 819 l 88 894 l 251 1076 l 376 1076 l 540 894 l 468 819 l 314 935 l 160 819 m 592 1319 l 714 1214 l 514 1014 l 432 1081 l 592 1319 z "},"ậ":{"ha":635,"x_min":25,"x_max":607,"o":"m 569 196 q 578 144 569 161 q 607 118 586 128 l 564 -19 q 466 9 504 -14 q 407 81 428 32 q 225 -24 343 -24 q 79 40 133 -24 q 25 207 25 103 q 100 391 25 328 q 319 454 175 454 l 364 454 l 364 493 q 344 585 364 560 q 272 611 324 611 q 114 574 208 611 l 67 707 q 188 747 124 733 q 311 761 253 761 q 506 698 442 761 q 569 504 569 635 l 569 196 m 289 125 q 332 143 313 125 q 364 194 351 161 l 364 338 l 339 338 q 256 310 282 338 q 231 225 231 283 q 246 151 231 176 q 289 125 261 125 m 160 869 l 88 944 l 251 1138 l 376 1138 l 540 944 l 468 869 l 314 996 l 160 869 m 317 -326 q 230 -292 263 -326 q 197 -206 197 -258 q 231 -120 197 -154 q 317 -86 264 -86 q 403 -120 369 -86 q 436 -206 436 -154 q 403 -292 436 -258 q 317 -326 369 -326 z "},"ầ":{"ha":635,"x_min":-89,"x_max":607,"o":"m 569 196 q 578 144 569 161 q 607 118 586 128 l 564 -19 q 466 9 504 -14 q 407 81 428 32 q 225 -24 343 -24 q 79 40 133 -24 q 25 207 25 103 q 100 391 25 328 q 319 454 175 454 l 364 454 l 364 493 q 344 585 364 560 q 272 611 324 611 q 114 574 208 611 l 67 707 q 188 747 124 733 q 311 761 253 761 q 506 698 442 761 q 569 504 569 635 l 569 196 m 289 125 q 332 143 313 125 q 364 194 351 161 l 364 338 l 339 338 q 256 310 282 338 q 231 225 231 283 q 246 151 231 176 q 289 125 261 125 m 156 819 l 83 894 l 247 1076 l 372 1076 l 536 894 l 464 819 l 310 935 l 156 819 m 33 1319 l 194 1081 l 113 1014 l -89 1214 l 33 1319 z "},"ẩ":{"ha":635,"x_min":25,"x_max":650,"o":"m 569 196 q 578 144 569 161 q 607 118 586 128 l 564 -19 q 466 9 504 -14 q 407 81 428 32 q 225 -24 343 -24 q 79 40 133 -24 q 25 207 25 103 q 100 391 25 328 q 319 454 175 454 l 364 454 l 364 493 q 344 585 364 560 q 272 611 324 611 q 114 574 208 611 l 67 707 q 188 747 124 733 q 311 761 253 761 q 506 698 442 761 q 569 504 569 635 l 569 196 m 289 125 q 332 143 313 125 q 364 194 351 161 l 364 338 l 339 338 q 256 310 282 338 q 231 225 231 283 q 246 151 231 176 q 289 125 261 125 m 158 819 l 86 894 l 250 1076 l 375 1076 l 539 894 l 467 819 l 313 935 l 158 819 m 435 1178 q 497 1193 479 1182 q 515 1232 515 1204 q 472 1276 515 1276 q 438 1272 453 1276 q 403 1260 424 1268 l 371 1347 q 501 1382 426 1382 q 611 1344 572 1382 q 650 1243 650 1306 q 625 1157 650 1189 q 553 1115 600 1125 l 553 1042 l 435 1042 l 435 1178 z "},"ẫ":{"ha":635,"x_min":25,"x_max":607,"o":"m 569 196 q 578 144 569 161 q 607 118 586 128 l 564 -19 q 466 9 504 -14 q 407 81 428 32 q 225 -24 343 -24 q 79 40 133 -24 q 25 207 25 103 q 100 391 25 328 q 319 454 175 454 l 364 454 l 364 493 q 344 585 364 560 q 272 611 324 611 q 114 574 208 611 l 67 707 q 188 747 124 733 q 311 761 253 761 q 506 698 442 761 q 569 504 569 635 l 569 196 m 289 125 q 332 143 313 125 q 364 194 351 161 l 364 338 l 339 338 q 256 310 282 338 q 231 225 231 283 q 246 151 231 176 q 289 125 261 125 m 158 813 l 86 888 l 250 1069 l 375 1069 l 539 888 l 467 813 l 313 928 l 158 813 m 382 1117 q 336 1125 356 1117 q 294 1149 317 1133 q 246 1169 263 1169 q 215 1157 228 1169 q 186 1115 203 1144 l 89 1158 q 152 1264 113 1224 q 243 1304 192 1304 q 288 1296 269 1304 q 331 1272 306 1288 q 381 1250 360 1250 q 410 1263 399 1250 q 438 1303 422 1275 l 536 1261 q 474 1156 514 1194 q 382 1117 433 1117 z "},"ȁ":{"ha":635,"x_min":25,"x_max":607,"o":"m 569 196 q 578 144 569 161 q 607 118 586 128 l 564 -19 q 466 9 504 -14 q 407 81 428 32 q 225 -24 343 -24 q 79 40 133 -24 q 25 207 25 103 q 100 391 25 328 q 319 454 175 454 l 364 454 l 364 493 q 344 585 364 560 q 272 611 324 611 q 114 574 208 611 l 67 707 q 188 747 124 733 q 311 761 253 761 q 506 698 442 761 q 569 504 569 635 l 569 196 m 289 125 q 332 143 313 125 q 364 194 351 161 l 364 338 l 339 338 q 256 310 282 338 q 231 225 231 283 q 246 151 231 176 q 289 125 261 125 m 171 1188 l 283 918 l 186 869 l 40 1118 l 171 1188 m 381 1188 l 485 918 l 385 876 l 249 1122 l 381 1188 z "},"ä":{"ha":635,"x_min":25,"x_max":607,"o":"m 569 196 q 578 144 569 161 q 607 118 586 128 l 564 -19 q 466 9 504 -14 q 407 81 428 32 q 225 -24 343 -24 q 79 40 133 -24 q 25 207 25 103 q 100 391 25 328 q 319 454 175 454 l 364 454 l 364 493 q 344 585 364 560 q 272 611 324 611 q 114 574 208 611 l 67 707 q 188 747 124 733 q 311 761 253 761 q 506 698 442 761 q 569 504 569 635 l 569 196 m 289 125 q 332 143 313 125 q 364 194 351 161 l 364 338 l 339 338 q 256 310 282 338 q 231 225 231 283 q 246 151 231 176 q 289 125 261 125 m 178 1104 q 251 1074 222 1104 q 281 999 281 1043 q 252 923 281 953 q 178 893 224 893 q 103 924 133 893 q 74 999 74 954 q 103 1074 74 1043 q 178 1104 133 1104 m 450 1104 q 524 1074 494 1104 q 553 999 553 1043 q 524 923 553 953 q 450 893 496 893 q 377 924 407 893 q 347 999 347 954 q 377 1074 347 1043 q 450 1104 407 1104 z "},"ǟ":{"ha":635,"x_min":25,"x_max":607,"o":"m 569 196 q 578 144 569 161 q 607 118 586 128 l 564 -19 q 466 9 504 -14 q 407 81 428 32 q 225 -24 343 -24 q 79 40 133 -24 q 25 207 25 103 q 100 391 25 328 q 319 454 175 454 l 364 454 l 364 493 q 344 585 364 560 q 272 611 324 611 q 114 574 208 611 l 67 707 q 188 747 124 733 q 311 761 253 761 q 506 698 442 761 q 569 504 569 635 l 569 196 m 289 125 q 332 143 313 125 q 364 194 351 161 l 364 338 l 339 338 q 256 310 282 338 q 231 225 231 283 q 246 151 231 176 q 289 125 261 125 m 179 1050 q 253 1019 224 1050 q 282 944 282 989 q 253 869 282 899 q 179 839 225 839 q 105 869 135 839 q 75 944 75 900 q 105 1019 75 989 q 179 1050 135 1050 m 451 1050 q 525 1019 496 1050 q 554 944 554 989 q 526 869 554 899 q 451 839 497 839 q 378 869 408 839 q 349 944 349 900 q 378 1019 349 989 q 451 1050 408 1050 m 496 1117 l 135 1117 l 135 1258 l 496 1258 l 496 1117 z "},"ȧ":{"ha":635,"x_min":25,"x_max":607,"o":"m 569 196 q 578 144 569 161 q 607 118 586 128 l 564 -19 q 466 9 504 -14 q 407 81 428 32 q 225 -24 343 -24 q 79 40 133 -24 q 25 207 25 103 q 100 391 25 328 q 319 454 175 454 l 364 454 l 364 493 q 344 585 364 560 q 272 611 324 611 q 114 574 208 611 l 67 707 q 188 747 124 733 q 311 761 253 761 q 506 698 442 761 q 569 504 569 635 l 569 196 m 289 125 q 332 143 313 125 q 364 194 351 161 l 364 338 l 339 338 q 256 310 282 338 q 231 225 231 283 q 246 151 231 176 q 289 125 261 125 m 313 1121 q 399 1087 367 1121 q 432 1000 432 1053 q 399 915 432 949 q 313 881 365 881 q 226 915 260 881 q 193 1000 193 949 q 226 1087 193 1053 q 313 1121 260 1121 z "},"ạ":{"ha":635,"x_min":25,"x_max":607,"o":"m 569 196 q 578 144 569 161 q 607 118 586 128 l 564 -19 q 466 9 504 -14 q 407 81 428 32 q 225 -24 343 -24 q 79 40 133 -24 q 25 207 25 103 q 100 391 25 328 q 319 454 175 454 l 364 454 l 364 493 q 344 585 364 560 q 272 611 324 611 q 114 574 208 611 l 67 707 q 188 747 124 733 q 311 761 253 761 q 506 698 442 761 q 569 504 569 635 l 569 196 m 289 125 q 332 143 313 125 q 364 194 351 161 l 364 338 l 339 338 q 256 310 282 338 q 231 225 231 283 q 246 151 231 176 q 289 125 261 125 m 317 -326 q 230 -292 263 -326 q 197 -206 197 -258 q 231 -120 197 -154 q 317 -86 264 -86 q 403 -120 369 -86 q 436 -206 436 -154 q 403 -292 436 -258 q 317 -326 369 -326 z "},"ǡ":{"ha":635,"x_min":25,"x_max":607,"o":"m 569 196 q 578 144 569 161 q 607 118 586 128 l 564 -19 q 466 9 504 -14 q 407 81 428 32 q 225 -24 343 -24 q 79 40 133 -24 q 25 207 25 103 q 100 391 25 328 q 319 454 175 454 l 364 454 l 364 493 q 344 585 364 560 q 272 611 324 611 q 114 574 208 611 l 67 707 q 188 747 124 733 q 311 761 253 761 q 506 698 442 761 q 569 504 569 635 l 569 196 m 289 125 q 332 143 313 125 q 364 194 351 161 l 364 338 l 339 338 q 256 310 282 338 q 231 225 231 283 q 246 151 231 176 q 289 125 261 125 m 313 1067 q 399 1033 367 1067 q 432 946 432 999 q 399 860 432 894 q 313 826 365 826 q 226 860 260 826 q 193 946 193 894 q 226 1033 193 999 q 313 1067 260 1067 m 494 1119 l 133 1119 l 133 1261 l 494 1261 l 494 1119 z "},"à":{"ha":635,"x_min":25,"x_max":607,"o":"m 569 196 q 578 144 569 161 q 607 118 586 128 l 564 -19 q 466 9 504 -14 q 407 81 428 32 q 225 -24 343 -24 q 79 40 133 -24 q 25 207 25 103 q 100 391 25 328 q 319 454 175 454 l 364 454 l 364 493 q 344 585 364 560 q 272 611 324 611 q 114 574 208 611 l 67 707 q 188 747 124 733 q 311 761 253 761 q 506 698 442 761 q 569 504 569 635 l 569 196 m 289 125 q 332 143 313 125 q 364 194 351 161 l 364 338 l 339 338 q 256 310 282 338 q 231 225 231 283 q 246 151 231 176 q 289 125 261 125 m 239 1146 l 493 968 l 436 867 l 157 997 l 239 1146 z "},"ả":{"ha":635,"x_min":25,"x_max":607,"o":"m 569 196 q 578 144 569 161 q 607 118 586 128 l 564 -19 q 466 9 504 -14 q 407 81 428 32 q 225 -24 343 -24 q 79 40 133 -24 q 25 207 25 103 q 100 391 25 328 q 319 454 175 454 l 364 454 l 364 493 q 344 585 364 560 q 272 611 324 611 q 114 574 208 611 l 67 707 q 188 747 124 733 q 311 761 253 761 q 506 698 442 761 q 569 504 569 635 l 569 196 m 289 125 q 332 143 313 125 q 364 194 351 161 l 364 338 l 339 338 q 256 310 282 338 q 231 225 231 283 q 246 151 231 176 q 289 125 261 125 m 256 978 q 318 993 300 982 q 336 1032 336 1004 q 293 1076 336 1076 q 259 1072 274 1076 q 224 1060 244 1068 l 192 1147 q 322 1182 247 1182 q 432 1144 393 1182 q 471 1043 471 1106 q 446 957 471 989 q 374 915 421 925 l 374 842 l 256 842 l 256 978 z "},"ȃ":{"ha":635,"x_min":25,"x_max":607,"o":"m 569 196 q 578 144 569 161 q 607 118 586 128 l 564 -19 q 466 9 504 -14 q 407 81 428 32 q 225 -24 343 -24 q 79 40 133 -24 q 25 207 25 103 q 100 391 25 328 q 319 454 175 454 l 364 454 l 364 493 q 344 585 364 560 q 272 611 324 611 q 114 574 208 611 l 67 707 q 188 747 124 733 q 311 761 253 761 q 506 698 442 761 q 569 504 569 635 l 569 196 m 289 125 q 332 143 313 125 q 364 194 351 161 l 364 338 l 339 338 q 256 310 282 338 q 231 225 231 283 q 246 151 231 176 q 289 125 261 125 m 315 1092 q 461 1030 410 1092 q 519 858 513 968 l 408 838 q 315 949 389 949 q 219 838 242 949 l 110 858 q 169 1030 117 968 q 315 1092 221 1092 z "},"ɑ":{"ha":697,"x_min":36,"x_max":676,"o":"m 629 224 q 639 165 629 185 q 676 128 649 144 l 617 -24 q 512 13 551 -11 q 449 79 472 38 q 272 -24 382 -24 q 97 76 158 -24 q 36 369 36 176 q 67 580 36 492 q 155 715 99 668 q 282 761 211 761 q 436 681 376 761 l 446 738 l 629 738 l 629 224 m 332 131 q 419 203 381 131 l 419 554 q 384 594 401 581 q 342 607 367 607 q 275 555 299 607 q 251 369 251 503 q 272 180 251 229 q 332 131 293 131 z "},"ɒ":{"ha":697,"x_min":21,"x_max":661,"o":"m 425 761 q 600 661 539 761 q 661 368 661 561 q 630 158 661 246 q 542 23 599 69 q 415 -24 486 -24 q 261 57 321 -24 l 251 0 l 68 0 l 68 514 q 58 573 68 553 q 21 610 49 593 l 81 761 q 185 724 146 749 q 249 658 225 700 q 425 761 315 761 m 356 131 q 422 183 399 131 q 446 368 446 235 q 425 558 446 508 q 365 607 404 607 q 278 535 317 607 l 278 183 q 313 144 296 157 q 356 131 331 131 z "},"ā":{"ha":635,"x_min":25,"x_max":607,"o":"m 569 196 q 578 144 569 161 q 607 118 586 128 l 564 -19 q 466 9 504 -14 q 407 81 428 32 q 225 -24 343 -24 q 79 40 133 -24 q 25 207 25 103 q 100 391 25 328 q 319 454 175 454 l 364 454 l 364 493 q 344 585 364 560 q 272 611 324 611 q 114 574 208 611 l 67 707 q 188 747 124 733 q 311 761 253 761 q 506 698 442 761 q 569 504 569 635 l 569 196 m 289 125 q 332 143 313 125 q 364 194 351 161 l 364 338 l 339 338 q 256 310 282 338 q 231 225 231 283 q 246 151 231 176 q 289 125 261 125 m 494 914 l 133 914 l 133 1056 l 494 1056 l 494 914 z "},"ą":{"ha":635,"x_min":25,"x_max":607,"o":"m 564 -19 q 460 -90 488 -56 q 432 -164 432 -125 q 493 -228 432 -228 q 560 -218 525 -228 l 547 -347 q 467 -358 507 -358 q 335 -317 386 -358 q 285 -200 285 -275 q 329 -75 285 -128 q 456 17 374 -22 q 407 81 426 39 q 225 -24 343 -24 q 79 40 133 -24 q 25 207 25 103 q 100 391 25 328 q 319 454 175 454 l 364 454 l 364 493 q 344 585 364 560 q 272 611 324 611 q 114 574 208 611 l 67 707 q 188 747 124 733 q 311 761 253 761 q 506 698 442 761 q 569 504 569 635 l 569 196 q 578 144 569 161 q 607 118 586 128 l 564 -19 m 289 125 q 332 143 313 125 q 364 194 351 161 l 364 338 l 339 338 q 256 310 282 338 q 231 225 231 283 q 246 151 231 176 q 289 125 261 125 z "},"å":{"ha":635,"x_min":25,"x_max":607,"o":"m 569 196 q 578 144 569 161 q 607 118 586 128 l 564 -19 q 466 9 504 -14 q 407 81 428 32 q 225 -24 343 -24 q 79 40 133 -24 q 25 207 25 103 q 100 391 25 328 q 319 454 175 454 l 364 454 l 364 493 q 344 585 364 560 q 272 611 324 611 q 114 574 208 611 l 67 707 q 188 747 124 733 q 311 761 253 761 q 506 698 442 761 q 569 504 569 635 l 569 196 m 289 125 q 332 143 313 125 q 364 194 351 161 l 364 338 l 339 338 q 256 310 282 338 q 231 225 231 283 q 246 151 231 176 q 289 125 261 125 m 314 1200 q 438 1151 392 1200 q 483 1022 483 1101 q 438 892 483 942 q 314 842 392 842 q 190 892 235 842 q 144 1022 144 942 q 190 1151 144 1101 q 314 1200 235 1200 m 314 1096 q 265 1022 265 1096 q 278 965 265 982 q 314 947 290 947 q 364 1022 364 947 q 314 1096 364 1096 z "},"ǻ":{"ha":635,"x_min":25,"x_max":607,"o":"m 482 1289 l 200 1171 l 147 1274 l 403 1440 l 482 1289 m 315 801 q 191 851 236 801 q 146 982 146 901 q 191 1110 146 1061 q 315 1160 236 1160 q 439 1110 393 1160 q 485 982 485 1061 q 439 851 485 901 q 315 801 393 801 m 315 1056 q 267 982 267 1056 q 279 924 267 942 q 315 907 292 907 q 365 982 365 907 q 315 1056 365 1056 m 569 196 q 578 144 569 161 q 607 118 586 128 l 564 -19 q 466 9 504 -14 q 407 81 428 32 q 225 -24 343 -24 q 79 40 133 -24 q 25 207 25 103 q 100 391 25 328 q 319 454 175 454 l 364 454 l 364 493 q 344 585 364 560 q 272 611 324 611 q 114 574 208 611 l 67 707 q 188 747 124 733 q 311 761 253 761 q 506 698 442 761 q 569 504 569 635 l 569 196 m 289 125 q 332 143 313 125 q 364 194 351 161 l 364 338 l 339 338 q 256 310 282 338 q 231 225 231 283 q 246 151 231 176 q 289 125 261 125 z "},"ⱥ":{"ha":635,"x_min":25,"x_max":607,"o":"m 569 196 q 578 144 569 161 q 607 118 586 128 l 564 -19 q 466 9 504 -14 q 407 81 428 32 q 264 -21 356 -4 l 247 -103 l 182 -87 l 196 -22 q 71 50 117 -11 q 25 207 25 111 q 92 379 25 319 q 289 444 158 439 l 324 617 q 289 619 301 619 q 203 610 243 619 q 114 582 163 601 l 67 707 q 188 747 124 733 q 311 761 253 761 q 351 760 339 761 l 367 833 l 432 819 l 418 747 q 569 504 569 704 l 569 196 m 390 493 q 382 568 390 542 l 357 446 l 390 446 l 390 493 m 292 118 q 390 197 346 128 l 390 338 l 339 338 l 335 338 l 292 118 m 204 222 q 226 135 204 158 l 265 326 q 219 290 233 315 q 204 222 204 264 z "},"ã":{"ha":635,"x_min":25,"x_max":607,"o":"m 569 196 q 578 144 569 161 q 607 118 586 128 l 564 -19 q 466 9 504 -14 q 407 81 428 32 q 225 -24 343 -24 q 79 40 133 -24 q 25 207 25 103 q 100 391 25 328 q 319 454 175 454 l 364 454 l 364 493 q 344 585 364 560 q 272 611 324 611 q 114 574 208 611 l 67 707 q 188 747 124 733 q 311 761 253 761 q 506 698 442 761 q 569 504 569 635 l 569 196 m 289 125 q 332 143 313 125 q 364 194 351 161 l 364 338 l 339 338 q 256 310 282 338 q 231 225 231 283 q 246 151 231 176 q 289 125 261 125 m 383 892 q 338 901 357 892 q 296 925 319 910 q 247 947 267 947 q 217 934 229 947 q 188 890 204 921 l 90 936 q 153 1048 113 1006 q 244 1090 193 1090 q 288 1082 269 1090 q 332 1057 306 1074 q 358 1039 347 1044 q 382 1033 369 1033 q 412 1047 400 1033 q 439 1089 424 1060 l 538 1044 q 475 933 515 974 q 383 892 435 892 z "},"ɐ":{"ha":635,"x_min":28,"x_max":610,"o":"m 363 126 q 521 164 426 126 l 568 31 q 447 -10 511 4 q 324 -24 382 -24 q 129 40 193 -24 q 65 233 65 103 l 65 542 q 57 593 65 576 q 28 619 49 610 l 71 757 q 169 728 131 751 q 228 657 207 706 q 410 761 292 761 q 556 698 501 761 q 610 531 610 635 q 535 347 610 410 q 315 283 460 283 l 271 283 l 271 244 q 291 152 271 178 q 363 126 311 126 m 346 613 q 303 594 322 613 q 271 543 283 576 l 271 400 l 296 400 q 378 427 353 400 q 404 513 404 454 q 389 587 404 561 q 346 613 374 613 z "},"æ":{"ha":990,"x_min":25,"x_max":961,"o":"m 961 383 q 956 307 961 349 l 583 307 q 622 171 590 210 q 713 132 654 132 q 778 146 746 132 q 851 190 811 160 l 936 78 q 693 -24 832 -24 q 549 8 611 -24 q 446 99 488 40 q 238 -24 365 -24 q 83 40 140 -24 q 25 207 25 104 q 102 385 25 322 q 328 447 179 447 l 374 447 l 372 488 q 352 584 372 557 q 281 611 332 611 q 209 601 251 611 q 122 572 167 590 l 76 707 q 311 761 197 761 q 425 738 381 761 q 496 669 469 714 q 690 761 572 761 q 888 664 814 761 q 961 383 961 567 m 760 443 q 739 577 760 533 q 675 621 718 621 q 610 578 632 621 q 583 433 589 536 l 760 433 l 760 443 m 297 126 q 393 214 351 126 q 376 331 379 271 l 349 331 q 238 221 238 331 q 297 126 238 126 z "},"ǽ":{"ha":990,"x_min":25,"x_max":961,"o":"m 961 383 q 956 307 961 349 l 583 307 q 622 171 590 210 q 713 132 654 132 q 778 146 746 132 q 851 190 811 160 l 936 78 q 693 -24 832 -24 q 549 8 611 -24 q 446 99 488 40 q 238 -24 365 -24 q 83 40 140 -24 q 25 207 25 104 q 102 385 25 322 q 328 447 179 447 l 374 447 l 372 488 q 352 584 372 557 q 281 611 332 611 q 209 601 251 611 q 122 572 167 590 l 76 707 q 311 761 197 761 q 425 738 381 761 q 496 669 469 714 q 690 761 572 761 q 888 664 814 761 q 961 383 961 567 m 760 443 q 739 577 760 533 q 675 621 718 621 q 610 578 632 621 q 583 433 589 536 l 760 433 l 760 443 m 297 126 q 393 214 351 126 q 376 331 379 271 l 349 331 q 238 221 238 331 q 297 126 238 126 m 567 1146 l 649 997 l 369 867 l 313 968 l 567 1146 z "},"ǣ":{"ha":990,"x_min":25,"x_max":961,"o":"m 961 383 q 956 307 961 349 l 583 307 q 622 171 590 210 q 713 132 654 132 q 778 146 746 132 q 851 190 811 160 l 936 78 q 693 -24 832 -24 q 549 8 611 -24 q 446 99 488 40 q 238 -24 365 -24 q 83 40 140 -24 q 25 207 25 104 q 102 385 25 322 q 328 447 179 447 l 374 447 l 372 488 q 352 584 372 557 q 281 611 332 611 q 209 601 251 611 q 122 572 167 590 l 76 707 q 311 761 197 761 q 425 738 381 761 q 496 669 469 714 q 690 761 572 761 q 888 664 814 761 q 961 383 961 567 m 760 443 q 739 577 760 533 q 675 621 718 621 q 610 578 632 621 q 583 433 589 536 l 760 433 l 760 443 m 297 126 q 393 214 351 126 q 376 331 379 271 l 349 331 q 238 221 238 331 q 297 126 238 126 m 672 914 l 311 914 l 311 1056 l 672 1056 l 672 914 z "},"b":{"ha":693,"x_min":63,"x_max":657,"o":"m 436 761 q 601 663 544 761 q 657 368 657 564 q 592 81 657 186 q 414 -24 528 -24 q 326 0 365 -24 q 258 67 286 24 l 249 0 l 63 0 l 63 1031 l 272 1053 l 272 669 q 344 737 301 713 q 436 761 386 761 m 353 129 q 419 182 396 129 q 442 368 442 235 q 422 558 442 508 q 364 607 401 607 q 272 528 314 607 l 272 194 q 353 129 306 129 z "},"ḃ":{"ha":693,"x_min":63,"x_max":657,"o":"m 436 761 q 601 663 544 761 q 657 368 657 564 q 592 81 657 186 q 414 -24 528 -24 q 326 0 365 -24 q 258 67 286 24 l 249 0 l 63 0 l 63 1031 l 272 1053 l 272 669 q 344 737 301 713 q 436 761 386 761 m 353 129 q 419 182 396 129 q 442 368 442 235 q 422 558 442 508 q 364 607 401 607 q 272 528 314 607 l 272 194 q 353 129 306 129 m 371 1364 q 458 1330 425 1364 q 490 1243 490 1296 q 457 1158 490 1192 q 371 1124 424 1124 q 285 1158 318 1124 q 251 1243 251 1192 q 285 1330 251 1296 q 371 1364 318 1364 z "},"ḅ":{"ha":693,"x_min":63,"x_max":657,"o":"m 436 761 q 601 663 544 761 q 657 368 657 564 q 592 81 657 186 q 414 -24 528 -24 q 326 0 365 -24 q 258 67 286 24 l 249 0 l 63 0 l 63 1031 l 272 1053 l 272 669 q 344 737 301 713 q 436 761 386 761 m 353 129 q 419 182 396 129 q 442 368 442 235 q 422 558 442 508 q 364 607 401 607 q 272 528 314 607 l 272 194 q 353 129 306 129 m 357 -326 q 270 -292 303 -326 q 238 -206 238 -258 q 271 -120 238 -154 q 357 -86 304 -86 q 443 -120 410 -86 q 476 -206 476 -154 q 443 -292 476 -258 q 357 -326 410 -326 z "},"ꞵ":{"ha":708,"x_min":63,"x_max":679,"o":"m 450 563 q 614 490 549 550 q 679 288 679 431 q 646 122 679 192 q 554 15 613 51 q 424 -22 496 -22 q 263 26 331 -22 l 263 -279 l 63 -308 l 63 757 q 139 978 63 903 q 342 1053 215 1053 q 544 983 474 1053 q 614 789 614 913 q 574 638 614 693 q 450 563 535 582 m 357 138 q 468 304 468 138 q 433 439 468 397 q 343 481 397 481 l 307 481 l 318 624 l 339 624 q 411 774 411 624 q 393 876 411 846 q 339 906 375 906 q 281 874 299 906 q 263 760 263 842 l 263 164 q 357 138 303 138 z "},"ɓ":{"ha":693,"x_min":63,"x_max":657,"o":"m 436 761 q 601 663 544 761 q 657 368 657 564 q 592 81 657 186 q 414 -24 528 -24 q 326 0 365 -24 q 258 67 286 24 l 249 0 l 63 0 l 63 819 q 127 987 63 921 q 311 1053 192 1053 q 485 1007 406 1053 l 426 875 q 342 897 383 897 q 289 877 306 897 q 272 814 272 857 l 272 669 q 344 737 301 713 q 436 761 386 761 m 353 129 q 419 182 396 129 q 442 368 442 235 q 422 558 442 508 q 364 607 401 607 q 272 528 314 607 l 272 194 q 353 129 306 129 z "},"ʭ":{"ha":442,"x_min":42,"x_max":400,"o":"m 42 554 l 42 781 l 400 781 l 400 554 l 279 554 l 279 672 l 163 672 l 163 554 l 42 554 m 42 -3 l 42 224 l 400 224 l 400 -3 l 279 -3 l 279 115 l 163 115 l 163 -3 l 42 -3 z "},"ʘ":{"ha":932,"x_min":39,"x_max":894,"o":"m 467 986 q 692 927 596 986 q 842 755 789 868 q 894 482 894 642 q 842 214 894 328 q 692 39 789 100 q 467 -22 594 -22 q 241 37 338 -22 q 92 209 144 96 q 39 482 39 322 q 92 750 39 636 q 242 925 144 864 q 467 986 339 986 m 468 840 q 301 756 358 840 q 243 482 243 671 q 301 208 243 293 q 468 122 358 122 q 634 207 578 122 q 690 482 690 292 q 631 754 690 668 q 468 840 571 840 m 469 576 q 544 547 515 576 q 574 471 574 517 q 544 396 574 425 q 469 367 515 367 q 394 397 424 367 q 364 471 364 426 q 393 547 364 517 q 469 576 422 576 z "},"ʬ":{"ha":533,"x_min":35,"x_max":499,"o":"m 499 926 l 432 556 l 308 556 l 271 826 l 231 556 l 108 556 l 35 926 l 125 926 l 172 639 l 215 926 l 329 926 l 371 638 l 413 926 l 499 926 m 499 371 l 432 0 l 308 0 l 271 271 l 231 0 l 108 0 l 35 371 l 125 371 l 172 83 l 215 371 l 329 371 l 371 82 l 413 371 l 499 371 z "},"ƀ":{"ha":699,"x_min":6,"x_max":664,"o":"m 443 761 q 608 663 551 761 q 664 368 664 564 q 599 81 664 186 q 421 -24 535 -24 q 333 0 372 -24 q 265 67 293 24 l 256 0 l 69 0 l 69 831 l 6 831 l 6 956 l 69 956 l 69 1031 l 279 1053 l 279 956 l 422 956 l 422 831 l 279 831 l 279 669 q 351 737 308 713 q 443 761 393 761 m 360 129 q 426 182 403 129 q 449 368 449 235 q 428 558 449 508 q 371 607 408 607 q 279 528 321 607 l 279 194 q 360 129 313 129 z "},"ƃ":{"ha":693,"x_min":63,"x_max":657,"o":"m 436 761 q 601 663 544 761 q 657 368 657 564 q 592 81 657 186 q 414 -24 528 -24 q 326 0 365 -24 q 258 67 286 24 l 249 0 l 63 0 l 63 1031 l 518 1031 l 496 879 l 272 879 l 272 669 q 344 737 301 713 q 436 761 386 761 m 353 129 q 419 182 396 129 q 442 368 442 235 q 422 558 442 508 q 364 607 401 607 q 272 528 314 607 l 272 194 q 353 129 306 129 z "},"c":{"ha":557,"x_min":36,"x_max":561,"o":"m 350 761 q 465 739 414 761 q 561 671 517 717 l 475 556 q 367 601 418 601 q 282 549 310 601 q 254 364 254 497 q 283 189 254 238 q 365 140 313 140 q 417 150 393 140 q 471 183 440 160 l 561 63 q 353 -24 471 -24 q 119 74 203 -24 q 36 363 36 172 q 74 576 36 486 q 183 713 113 665 q 350 761 254 761 z "},"ć":{"ha":557,"x_min":36,"x_max":561,"o":"m 350 761 q 465 739 414 761 q 561 671 517 717 l 475 556 q 367 601 418 601 q 282 549 310 601 q 254 364 254 497 q 283 189 254 238 q 365 140 313 140 q 417 150 393 140 q 471 183 440 160 l 561 63 q 353 -24 471 -24 q 119 74 203 -24 q 36 363 36 172 q 74 576 36 486 q 183 713 113 665 q 350 761 254 761 m 421 1146 l 503 997 l 224 867 l 167 968 l 421 1146 z "},"č":{"ha":557,"x_min":36,"x_max":572,"o":"m 350 761 q 465 739 414 761 q 561 671 517 717 l 475 556 q 367 601 418 601 q 282 549 310 601 q 254 364 254 497 q 283 189 254 238 q 365 140 313 140 q 417 150 393 140 q 471 183 440 160 l 561 63 q 353 -24 471 -24 q 119 74 203 -24 q 36 363 36 172 q 74 576 36 486 q 183 713 113 665 q 350 761 254 761 m 500 1121 l 572 1044 l 408 851 l 283 851 l 119 1044 l 192 1121 l 346 992 l 500 1121 z "},"ç":{"ha":557,"x_min":36,"x_max":561,"o":"m 561 63 q 389 -21 485 -11 l 389 -74 q 510 -206 510 -93 q 463 -317 510 -275 q 331 -360 415 -360 q 193 -319 250 -360 l 240 -228 q 315 -246 276 -246 q 364 -203 364 -246 q 339 -165 364 -176 q 258 -154 314 -154 l 272 -15 q 97 105 158 10 q 36 363 36 200 q 74 576 36 486 q 183 713 113 665 q 350 761 254 761 q 465 739 414 761 q 561 671 517 717 l 475 556 q 367 601 418 601 q 282 549 310 601 q 254 364 254 497 q 283 189 254 238 q 365 140 313 140 q 417 150 393 140 q 471 183 440 160 l 561 63 z "},"ĉ":{"ha":557,"x_min":36,"x_max":572,"o":"m 350 761 q 465 739 414 761 q 561 671 517 717 l 475 556 q 367 601 418 601 q 282 549 310 601 q 254 364 254 497 q 283 189 254 238 q 365 140 313 140 q 417 150 393 140 q 471 183 440 160 l 561 63 q 353 -24 471 -24 q 119 74 203 -24 q 36 363 36 172 q 74 576 36 486 q 183 713 113 665 q 350 761 254 761 m 192 869 l 119 944 l 283 1138 l 408 1138 l 572 944 l 500 869 l 346 996 l 192 869 z "},"ɕ":{"ha":588,"x_min":36,"x_max":589,"o":"m 438 347 q 547 305 504 347 q 589 186 589 263 q 526 31 589 85 q 367 -22 463 -22 q 285 -14 329 -22 l 247 -115 l 149 -76 l 192 26 q 76 158 117 71 q 36 363 36 244 q 74 576 36 486 q 183 713 113 665 q 350 761 254 761 q 465 739 414 761 q 561 671 517 717 l 475 556 q 367 601 418 601 q 282 549 310 601 q 254 364 254 497 q 272 208 254 272 q 340 315 299 282 q 438 347 381 347 m 393 129 q 451 190 451 129 q 418 236 451 236 q 379 213 397 236 q 344 135 361 189 q 393 129 367 129 z "},"ċ":{"ha":557,"x_min":36,"x_max":561,"o":"m 350 761 q 465 739 414 761 q 561 671 517 717 l 475 556 q 367 601 418 601 q 282 549 310 601 q 254 364 254 497 q 283 189 254 238 q 365 140 313 140 q 417 150 393 140 q 471 183 440 160 l 561 63 q 353 -24 471 -24 q 119 74 203 -24 q 36 363 36 172 q 74 576 36 486 q 183 713 113 665 q 350 761 254 761 m 344 1121 q 431 1087 399 1121 q 464 1000 464 1053 q 431 915 464 949 q 344 881 397 881 q 258 915 292 881 q 225 1000 225 949 q 258 1087 225 1053 q 344 1121 292 1121 z "},"ƈ":{"ha":557,"x_min":36,"x_max":746,"o":"m 581 1053 q 746 1001 669 1053 l 688 875 q 615 897 647 897 q 574 881 588 897 q 561 825 561 864 l 561 671 l 478 557 q 420 590 446 579 q 367 601 394 601 q 282 549 310 601 q 254 364 254 497 q 283 189 254 238 q 365 140 313 140 q 417 150 393 140 q 471 183 440 160 l 561 63 q 353 -24 471 -24 q 119 74 203 -24 q 36 363 36 172 q 73 575 36 485 q 175 713 110 665 q 324 761 240 761 q 382 753 351 761 l 382 846 q 435 998 382 943 q 581 1053 489 1053 z "},"ʗ":{"ha":581,"x_min":47,"x_max":585,"o":"m 374 761 q 489 739 438 761 q 585 671 540 717 l 499 551 q 386 599 440 599 q 319 565 344 599 q 279 449 293 532 q 265 222 265 367 q 279 1 265 79 q 318 -108 293 -78 q 383 -139 343 -139 q 435 -129 411 -139 q 489 -97 460 -119 l 581 -219 q 371 -306 490 -306 q 47 222 47 -306 q 132 625 47 489 q 374 761 217 761 z "},"ȼ":{"ha":557,"x_min":36,"x_max":561,"o":"m 365 140 q 417 150 393 140 q 471 183 440 160 l 561 63 q 353 -24 471 -24 q 301 -21 335 -24 l 283 -103 l 218 -87 l 236 -6 q 88 121 140 28 q 36 363 36 214 q 74 576 36 486 q 183 713 113 665 q 350 761 254 761 q 403 757 378 761 l 419 833 l 485 819 l 467 738 q 561 671 517 715 l 475 556 q 433 583 451 574 l 338 143 q 365 140 354 140 m 254 364 q 281 196 254 249 l 368 601 l 367 601 q 282 549 310 601 q 254 364 254 497 z "},"d":{"ha":694,"x_min":36,"x_max":633,"o":"m 633 1031 l 633 0 l 446 0 l 439 78 q 367 3 407 31 q 269 -24 326 -24 q 96 78 156 -24 q 36 369 36 181 q 68 576 36 488 q 157 713 100 665 q 286 761 214 761 q 424 693 369 761 l 424 1053 l 633 1031 m 338 131 q 424 203 386 131 l 424 547 q 388 592 406 578 q 346 607 369 607 q 251 369 251 607 q 274 183 251 235 q 338 131 297 131 z "},"ð":{"ha":685,"x_min":36,"x_max":642,"o":"m 424 929 q 592 699 542 832 q 642 385 642 567 q 562 90 642 201 q 335 -22 482 -22 q 181 18 249 -22 q 75 137 114 58 q 36 325 36 215 q 69 502 36 425 q 156 622 101 579 q 272 664 210 664 q 355 648 319 664 q 422 600 390 632 q 381 721 406 671 q 311 814 357 771 l 244 733 l 119 796 l 196 885 q 92 918 157 901 l 131 1051 q 300 999 210 1035 l 386 1104 l 497 1022 l 424 929 m 339 131 q 408 180 386 131 q 431 342 431 229 q 429 457 431 424 q 338 517 390 517 q 269 470 292 517 q 246 328 246 424 q 269 175 246 219 q 339 131 293 131 z "},"ȸ":{"ha":1008,"x_min":36,"x_max":972,"o":"m 769 760 q 972 368 972 760 q 910 80 972 182 q 742 -22 847 -22 q 661 3 699 -22 q 599 72 624 28 l 588 0 l 424 0 l 413 79 q 349 6 388 33 q 257 -22 310 -22 q 93 78 150 -22 q 36 369 36 179 q 65 581 36 493 q 146 715 94 669 q 263 760 197 760 q 341 739 306 760 q 401 679 376 718 l 401 1031 l 611 1053 l 611 669 q 679 735 639 711 q 769 760 719 760 m 322 131 q 401 194 364 131 l 401 550 q 331 607 371 607 q 273 555 294 607 q 251 369 251 503 q 269 180 251 229 q 322 131 288 131 m 682 131 q 737 181 717 131 q 757 368 757 231 q 749 518 757 467 q 725 588 740 569 q 688 606 710 606 q 611 542 643 606 l 611 193 q 682 131 642 131 z "},"ď":{"ha":825,"x_min":36,"x_max":854,"o":"m 633 1031 l 633 0 l 446 0 l 439 78 q 367 3 407 31 q 269 -24 326 -24 q 96 78 156 -24 q 36 369 36 181 q 68 576 36 488 q 157 713 100 665 q 286 761 214 761 q 424 693 369 761 l 424 1053 l 633 1031 m 338 131 q 424 203 386 131 l 424 547 q 388 592 406 578 q 346 607 369 607 q 251 369 251 607 q 274 183 251 235 q 338 131 297 131 m 790 735 l 854 1029 l 703 1053 l 675 753 l 790 735 z "},"ḓ":{"ha":694,"x_min":36,"x_max":633,"o":"m 633 1031 l 633 0 l 446 0 l 439 78 q 367 3 407 31 q 269 -24 326 -24 q 96 78 156 -24 q 36 369 36 181 q 68 576 36 488 q 157 713 100 665 q 286 761 214 761 q 424 693 369 761 l 424 1053 l 633 1031 m 338 131 q 424 203 386 131 l 424 547 q 388 592 406 578 q 346 607 369 607 q 251 369 251 607 q 274 183 251 235 q 338 131 297 131 m 199 -357 l 126 -282 l 290 -89 l 415 -89 l 579 -282 l 507 -357 l 353 -231 l 199 -357 z "},"đ":{"ha":700,"x_min":36,"x_max":694,"o":"m 694 956 l 694 831 l 633 831 l 633 0 l 446 0 l 439 78 q 367 3 407 31 q 269 -24 326 -24 q 96 78 156 -24 q 36 369 36 181 q 68 576 36 488 q 157 713 100 665 q 286 761 214 761 q 424 693 369 761 l 424 831 l 276 831 l 276 956 l 424 956 l 424 1053 l 633 1031 l 633 956 l 694 956 m 338 131 q 424 203 386 131 l 424 547 q 388 592 406 578 q 346 607 369 607 q 251 369 251 607 q 274 183 251 235 q 338 131 297 131 z "},"ȡ":{"ha":919,"x_min":36,"x_max":928,"o":"m 789 333 q 889 292 850 333 q 928 176 928 250 q 865 28 928 78 q 701 -22 801 -22 q 649 -19 682 -22 l 610 -115 l 517 -76 l 551 8 q 458 94 489 40 q 269 -24 383 -24 q 96 78 156 -24 q 36 369 36 181 q 68 576 36 488 q 157 713 100 665 q 286 761 214 761 q 424 693 369 761 l 424 1053 l 633 1031 l 633 235 q 635 201 633 211 q 701 303 665 274 q 789 333 736 333 m 338 131 q 425 206 388 131 q 424 240 424 217 l 424 547 q 388 592 406 578 q 346 607 369 607 q 251 369 251 607 q 274 183 251 235 q 338 131 297 131 m 729 128 q 789 186 789 128 q 764 222 789 222 q 735 203 747 222 q 703 129 722 185 q 729 128 711 128 z "},"ḋ":{"ha":694,"x_min":36,"x_max":633,"o":"m 633 1031 l 633 0 l 446 0 l 439 78 q 367 3 407 31 q 269 -24 326 -24 q 96 78 156 -24 q 36 369 36 181 q 68 576 36 488 q 157 713 100 665 q 286 761 214 761 q 424 693 369 761 l 424 1053 l 633 1031 m 338 131 q 424 203 386 131 l 424 547 q 388 592 406 578 q 346 607 369 607 q 251 369 251 607 q 274 183 251 235 q 338 131 297 131 m 340 1364 q 427 1330 394 1364 q 460 1243 460 1296 q 426 1158 460 1192 q 340 1124 393 1124 q 254 1158 288 1124 q 221 1243 221 1192 q 254 1330 221 1296 q 340 1364 288 1364 z "},"ḍ":{"ha":694,"x_min":36,"x_max":633,"o":"m 633 1031 l 633 0 l 446 0 l 439 78 q 367 3 407 31 q 269 -24 326 -24 q 96 78 156 -24 q 36 369 36 181 q 68 576 36 488 q 157 713 100 665 q 286 761 214 761 q 424 693 369 761 l 424 1053 l 633 1031 m 338 131 q 424 203 386 131 l 424 547 q 388 592 406 578 q 346 607 369 607 q 251 369 251 607 q 274 183 251 235 q 338 131 297 131 m 356 -326 q 269 -292 301 -326 q 236 -206 236 -258 q 269 -120 236 -154 q 356 -86 303 -86 q 442 -120 408 -86 q 475 -206 475 -154 q 442 -292 475 -258 q 356 -326 408 -326 z "},"ƍ":{"ha":678,"x_min":36,"x_max":642,"o":"m 642 407 q 464 101 642 196 q 556 14 532 58 q 581 -93 581 -31 q 515 -248 581 -186 q 321 -310 450 -310 q 194 -286 253 -310 q 94 -226 135 -262 l 182 -121 q 243 -153 214 -143 q 307 -162 272 -162 q 363 -144 344 -162 q 382 -92 382 -125 q 375 -51 382 -67 q 346 -17 368 -35 q 278 24 324 0 q 137 117 189 69 q 60 230 85 165 q 36 389 36 294 q 117 665 36 569 q 339 761 197 761 q 563 673 483 761 q 642 407 642 585 m 251 403 q 259 288 251 329 q 290 217 267 247 q 361 157 313 186 q 415 256 401 200 q 429 404 428 311 q 408 564 429 521 q 340 607 388 607 q 290 590 308 607 q 261 528 271 572 q 251 403 251 483 z "},"ʤ":{"ha":1194,"x_min":36,"x_max":1181,"o":"m 932 293 q 1181 13 1181 272 q 1143 -152 1181 -79 q 1033 -266 1106 -225 q 863 -307 961 -307 q 582 -167 682 -307 l 693 -64 q 771 -127 736 -108 q 849 -146 806 -146 q 967 21 967 -146 q 933 135 967 100 q 828 169 899 169 l 726 169 l 726 293 l 921 581 l 633 581 l 633 0 l 446 0 l 439 78 q 367 3 407 31 q 269 -24 326 -24 q 96 78 156 -24 q 36 369 36 181 q 68 576 36 488 q 157 713 100 665 q 286 761 214 761 q 424 693 369 761 l 424 1053 l 633 1031 l 633 738 l 1140 738 l 1140 593 l 932 293 m 338 131 q 424 203 386 131 l 424 547 q 388 592 406 578 q 346 607 369 607 q 251 369 251 607 q 274 183 251 235 q 338 131 297 131 z "},"ɗ":{"ha":694,"x_min":36,"x_max":818,"o":"m 653 1053 q 818 1001 740 1053 l 760 875 q 722 892 738 886 q 688 897 706 897 q 646 881 658 897 q 633 825 633 864 l 633 0 l 446 0 l 439 78 q 367 3 407 31 q 271 -24 328 -24 q 95 78 154 -24 q 36 369 36 179 q 68 576 36 488 q 157 713 100 665 q 286 761 214 761 q 424 693 369 761 l 424 819 q 483 991 424 929 q 653 1053 542 1053 m 338 131 q 424 203 386 131 l 424 547 q 388 592 406 578 q 346 607 369 607 q 251 369 251 607 q 274 183 251 235 q 338 131 297 131 z "},"ḏ":{"ha":694,"x_min":36,"x_max":633,"o":"m 633 1031 l 633 0 l 446 0 l 439 78 q 367 3 407 31 q 269 -24 326 -24 q 96 78 156 -24 q 36 369 36 181 q 68 576 36 488 q 157 713 100 665 q 286 761 214 761 q 424 693 369 761 l 424 1053 l 633 1031 m 338 131 q 424 203 386 131 l 424 547 q 388 592 406 578 q 346 607 369 607 q 251 369 251 607 q 274 183 251 235 q 338 131 297 131 m 538 -260 l 176 -260 l 176 -118 l 538 -118 l 538 -260 z "},"ɖ":{"ha":694,"x_min":36,"x_max":840,"o":"m 840 -249 q 663 -307 768 -307 q 490 -247 556 -307 q 424 -74 424 -186 l 424 57 q 271 -24 363 -24 q 95 78 154 -24 q 36 369 36 179 q 68 576 36 488 q 157 713 100 665 q 286 761 214 761 q 424 693 369 761 l 424 1053 l 633 1031 l 633 -85 q 692 -153 633 -153 q 729 -148 713 -153 q 768 -131 746 -143 l 840 -249 m 338 131 q 424 203 386 131 l 424 547 q 388 592 406 578 q 346 607 369 607 q 251 369 251 607 q 274 183 251 235 q 338 131 297 131 z "},"ƌ":{"ha":694,"x_min":36,"x_max":633,"o":"m 633 0 l 446 0 l 439 78 q 367 3 407 31 q 271 -24 328 -24 q 95 76 154 -24 q 36 361 36 176 q 68 563 36 476 q 157 697 100 650 q 286 744 214 744 q 424 676 367 744 l 424 879 l 189 879 l 189 1031 l 633 1031 l 633 0 m 338 131 q 424 203 386 131 l 424 531 q 386 576 404 561 q 346 590 368 590 q 277 536 303 590 q 251 361 251 482 q 274 181 251 232 q 338 131 297 131 z "},"ǳ":{"ha":1229,"x_min":36,"x_max":1215,"o":"m 633 1031 l 633 0 l 446 0 l 439 78 q 367 3 407 31 q 269 -24 326 -24 q 96 78 156 -24 q 36 369 36 181 q 68 576 36 488 q 157 713 100 665 q 286 761 214 761 q 424 693 369 761 l 424 1053 l 633 1031 m 338 131 q 424 203 386 131 l 424 547 q 388 592 406 578 q 346 607 369 607 q 251 369 251 607 q 274 183 251 235 q 338 131 297 131 m 1210 738 l 1210 589 l 935 160 l 1215 160 l 1199 0 l 707 0 l 707 149 l 982 579 l 731 579 l 731 738 l 1210 738 z "},"ʣ":{"ha":1147,"x_min":36,"x_max":1133,"o":"m 1133 160 l 1115 0 l 446 0 l 439 78 q 367 3 407 31 q 269 -24 326 -24 q 96 78 156 -24 q 36 369 36 181 q 68 576 36 488 q 157 713 100 665 q 286 761 214 761 q 424 693 369 761 l 424 1053 l 633 1031 l 633 738 l 1128 738 l 1128 589 l 853 160 l 1133 160 m 338 131 q 424 203 386 131 l 424 547 q 388 592 406 578 q 346 607 369 607 q 251 369 251 607 q 274 183 251 235 q 338 131 297 131 m 633 579 l 633 161 l 899 579 l 633 579 z "},"ǆ":{"ha":1229,"x_min":36,"x_max":1215,"o":"m 633 1031 l 633 0 l 446 0 l 439 78 q 367 3 407 31 q 269 -24 326 -24 q 96 78 156 -24 q 36 369 36 181 q 68 576 36 488 q 157 713 100 665 q 286 761 214 761 q 424 693 369 761 l 424 1053 l 633 1031 m 338 131 q 424 203 386 131 l 424 547 q 388 592 406 578 q 346 607 369 607 q 251 369 251 607 q 274 183 251 235 q 338 131 297 131 m 1210 738 l 1210 589 l 935 160 l 1215 160 l 1199 0 l 707 0 l 707 149 l 982 579 l 731 579 l 731 738 l 1210 738 m 1124 1121 l 1196 1044 l 1032 851 l 907 851 l 743 1044 l 815 1121 l 969 992 l 1124 1121 z "},"ʥ":{"ha":1276,"x_min":36,"x_max":1294,"o":"m 1142 363 q 1252 320 1210 363 q 1294 203 1294 278 q 1233 50 1294 101 q 1042 0 1171 -1 l 1043 8 l 1043 6 q 1036 -126 1036 -44 l 1036 -176 l 922 -176 q 929 0 922 -67 l 446 0 l 439 78 q 367 3 407 31 q 269 -24 326 -24 q 96 78 156 -24 q 36 369 36 181 q 68 576 36 488 q 157 713 100 665 q 286 761 214 761 q 424 693 369 761 l 424 1053 l 633 1031 l 633 738 l 1126 738 l 1126 597 l 851 160 l 950 160 q 1025 315 978 267 q 1142 363 1072 363 m 338 131 q 424 203 386 131 l 424 547 q 388 592 406 578 q 346 607 369 607 q 251 369 251 607 q 274 183 251 235 q 338 131 297 131 m 633 579 l 633 164 l 897 579 l 633 579 m 1078 160 q 1138 171 1119 160 q 1157 213 1157 182 q 1125 251 1157 251 q 1063 160 1079 251 l 1078 160 z "},"e":{"ha":653,"x_min":36,"x_max":624,"o":"m 624 383 q 619 307 624 339 l 244 307 q 281 169 251 207 q 368 131 311 131 q 440 145 406 131 q 515 190 475 160 l 601 76 q 353 -24 499 -24 q 117 78 197 -24 q 36 364 36 181 q 113 654 36 547 q 333 761 190 761 q 547 665 469 761 q 624 383 624 568 m 419 443 q 401 580 419 538 q 335 622 382 622 q 272 581 293 622 q 244 433 250 540 l 419 433 l 419 443 z "},"é":{"ha":653,"x_min":36,"x_max":624,"o":"m 624 383 q 619 307 624 339 l 244 307 q 281 169 251 207 q 368 131 311 131 q 440 145 406 131 q 515 190 475 160 l 601 76 q 353 -24 499 -24 q 117 78 197 -24 q 36 364 36 181 q 113 654 36 547 q 333 761 190 761 q 547 665 469 761 q 624 383 624 568 m 419 443 q 401 580 419 538 q 335 622 382 622 q 272 581 293 622 q 244 433 250 540 l 419 433 l 419 443 m 410 1146 l 492 997 l 213 867 l 156 968 l 410 1146 z "},"ĕ":{"ha":653,"x_min":36,"x_max":624,"o":"m 624 383 q 619 307 624 339 l 244 307 q 281 169 251 207 q 368 131 311 131 q 440 145 406 131 q 515 190 475 160 l 601 76 q 353 -24 499 -24 q 117 78 197 -24 q 36 364 36 181 q 113 654 36 547 q 333 761 190 761 q 547 665 469 761 q 624 383 624 568 m 419 443 q 401 580 419 538 q 335 622 382 622 q 272 581 293 622 q 244 433 250 540 l 419 433 l 419 443 m 336 881 q 190 942 242 881 q 131 1114 138 1004 l 240 1135 q 336 1024 263 1024 q 429 1135 410 1024 l 540 1114 q 482 942 533 1004 q 336 881 431 881 z "},"ě":{"ha":653,"x_min":36,"x_max":624,"o":"m 624 383 q 619 307 624 339 l 244 307 q 281 169 251 207 q 368 131 311 131 q 440 145 406 131 q 515 190 475 160 l 601 76 q 353 -24 499 -24 q 117 78 197 -24 q 36 364 36 181 q 113 654 36 547 q 333 761 190 761 q 547 665 469 761 q 624 383 624 568 m 419 443 q 401 580 419 538 q 335 622 382 622 q 272 581 293 622 q 244 433 250 540 l 419 433 l 419 443 m 489 1121 l 561 1044 l 397 851 l 272 851 l 108 1044 l 181 1121 l 335 992 l 489 1121 z "},"ȩ":{"ha":653,"x_min":36,"x_max":624,"o":"m 624 383 q 619 307 624 339 l 244 307 q 281 169 251 207 q 368 131 311 131 q 440 145 406 131 q 515 190 475 160 l 601 76 q 407 -19 521 -4 l 407 -74 q 528 -206 528 -93 q 481 -317 528 -275 q 349 -360 433 -360 q 211 -319 268 -360 l 258 -228 q 333 -246 294 -246 q 382 -203 382 -246 q 357 -165 382 -176 q 276 -154 332 -154 l 290 -19 q 101 101 165 1 q 36 364 36 201 q 113 654 36 547 q 333 761 190 761 q 547 665 469 761 q 624 383 624 568 m 419 443 q 401 580 419 538 q 335 622 382 622 q 272 581 293 622 q 244 433 250 540 l 419 433 l 419 443 z "},"ê":{"ha":653,"x_min":36,"x_max":624,"o":"m 624 383 q 619 307 624 339 l 244 307 q 281 169 251 207 q 368 131 311 131 q 440 145 406 131 q 515 190 475 160 l 601 76 q 353 -24 499 -24 q 117 78 197 -24 q 36 364 36 181 q 113 654 36 547 q 333 761 190 761 q 547 665 469 761 q 624 383 624 568 m 419 443 q 401 580 419 538 q 335 622 382 622 q 272 581 293 622 q 244 433 250 540 l 419 433 l 419 443 m 181 869 l 108 944 l 272 1138 l 397 1138 l 561 944 l 489 869 l 335 996 l 181 869 z "},"ế":{"ha":653,"x_min":36,"x_max":735,"o":"m 624 383 q 619 307 624 339 l 244 307 q 281 169 251 207 q 368 131 311 131 q 440 145 406 131 q 515 190 475 160 l 601 76 q 353 -24 499 -24 q 117 78 197 -24 q 36 364 36 181 q 113 654 36 547 q 333 761 190 761 q 547 665 469 761 q 624 383 624 568 m 419 443 q 401 580 419 538 q 335 622 382 622 q 272 581 293 622 q 244 433 250 540 l 419 433 l 419 443 m 181 819 l 108 894 l 272 1076 l 397 1076 l 561 894 l 489 819 l 335 935 l 181 819 m 613 1319 l 735 1214 l 535 1014 l 453 1081 l 613 1319 z "},"ệ":{"ha":653,"x_min":36,"x_max":624,"o":"m 624 383 q 619 307 624 339 l 244 307 q 281 169 251 207 q 368 131 311 131 q 440 145 406 131 q 515 190 475 160 l 601 76 q 353 -24 499 -24 q 117 78 197 -24 q 36 364 36 181 q 113 654 36 547 q 333 761 190 761 q 547 665 469 761 q 624 383 624 568 m 419 443 q 401 580 419 538 q 335 622 382 622 q 272 581 293 622 q 244 433 250 540 l 419 433 l 419 443 m 181 869 l 108 944 l 272 1138 l 397 1138 l 561 944 l 489 869 l 335 996 l 181 869 m 346 -326 q 259 -292 292 -326 q 226 -206 226 -258 q 260 -120 226 -154 q 346 -86 293 -86 q 432 -120 399 -86 q 465 -206 465 -154 q 432 -292 465 -258 q 346 -326 399 -326 z "},"ề":{"ha":653,"x_min":-68,"x_max":624,"o":"m 624 383 q 619 307 624 339 l 244 307 q 281 169 251 207 q 368 131 311 131 q 440 145 406 131 q 515 190 475 160 l 601 76 q 353 -24 499 -24 q 117 78 197 -24 q 36 364 36 181 q 113 654 36 547 q 333 761 190 761 q 547 665 469 761 q 624 383 624 568 m 419 443 q 401 580 419 538 q 335 622 382 622 q 272 581 293 622 q 244 433 250 540 l 419 433 l 419 443 m 176 819 l 104 894 l 268 1076 l 393 1076 l 557 894 l 485 819 l 331 935 l 176 819 m 54 1319 l 215 1081 l 133 1014 l -68 1214 l 54 1319 z "},"ể":{"ha":653,"x_min":36,"x_max":671,"o":"m 624 383 q 619 307 624 339 l 244 307 q 281 169 251 207 q 368 131 311 131 q 440 145 406 131 q 515 190 475 160 l 601 76 q 353 -24 499 -24 q 117 78 197 -24 q 36 364 36 181 q 113 654 36 547 q 333 761 190 761 q 547 665 469 761 q 624 383 624 568 m 419 443 q 401 580 419 538 q 335 622 382 622 q 272 581 293 622 q 244 433 250 540 l 419 433 l 419 443 m 179 819 l 107 894 l 271 1076 l 396 1076 l 560 894 l 488 819 l 333 935 l 179 819 m 456 1178 q 518 1193 500 1182 q 536 1232 536 1204 q 493 1276 536 1276 q 459 1272 474 1276 q 424 1260 444 1268 l 392 1347 q 522 1382 447 1382 q 632 1344 593 1382 q 671 1243 671 1306 q 646 1157 671 1189 q 574 1115 621 1125 l 574 1042 l 456 1042 l 456 1178 z "},"ễ":{"ha":653,"x_min":36,"x_max":624,"o":"m 624 383 q 619 307 624 339 l 244 307 q 281 169 251 207 q 368 131 311 131 q 440 145 406 131 q 515 190 475 160 l 601 76 q 353 -24 499 -24 q 117 78 197 -24 q 36 364 36 181 q 113 654 36 547 q 333 761 190 761 q 547 665 469 761 q 624 383 624 568 m 419 443 q 401 580 419 538 q 335 622 382 622 q 272 581 293 622 q 244 433 250 540 l 419 433 l 419 443 m 179 813 l 107 888 l 271 1069 l 396 1069 l 560 888 l 488 813 l 333 928 l 179 813 m 403 1117 q 357 1125 376 1117 q 315 1149 338 1133 q 267 1169 283 1169 q 236 1157 249 1169 q 207 1115 224 1144 l 110 1158 q 173 1264 133 1224 q 264 1304 213 1304 q 308 1296 290 1304 q 351 1272 326 1288 q 401 1250 381 1250 q 431 1263 419 1250 q 458 1303 443 1275 l 557 1261 q 494 1156 535 1194 q 403 1117 454 1117 z "},"ȅ":{"ha":653,"x_min":36,"x_max":624,"o":"m 624 383 q 619 307 624 339 l 244 307 q 281 169 251 207 q 368 131 311 131 q 440 145 406 131 q 515 190 475 160 l 601 76 q 353 -24 499 -24 q 117 78 197 -24 q 36 364 36 181 q 113 654 36 547 q 333 761 190 761 q 547 665 469 761 q 624 383 624 568 m 419 443 q 401 580 419 538 q 335 622 382 622 q 272 581 293 622 q 244 433 250 540 l 419 433 l 419 443 m 192 1188 l 304 918 l 207 869 l 61 1118 l 192 1188 m 401 1188 l 506 918 l 406 876 l 269 1122 l 401 1188 z "},"ë":{"ha":653,"x_min":36,"x_max":624,"o":"m 624 383 q 619 307 624 339 l 244 307 q 281 169 251 207 q 368 131 311 131 q 440 145 406 131 q 515 190 475 160 l 601 76 q 353 -24 499 -24 q 117 78 197 -24 q 36 364 36 181 q 113 654 36 547 q 333 761 190 761 q 547 665 469 761 q 624 383 624 568 m 419 443 q 401 580 419 538 q 335 622 382 622 q 272 581 293 622 q 244 433 250 540 l 419 433 l 419 443 m 199 1104 q 272 1074 243 1104 q 301 999 301 1043 q 273 923 301 953 q 199 893 244 893 q 124 924 154 893 q 94 999 94 954 q 124 1074 94 1043 q 199 1104 154 1104 m 471 1104 q 544 1074 515 1104 q 574 999 574 1043 q 545 923 574 953 q 471 893 517 893 q 398 924 428 893 q 368 999 368 954 q 398 1074 368 1043 q 471 1104 428 1104 z "},"ė":{"ha":653,"x_min":36,"x_max":624,"o":"m 624 383 q 619 307 624 339 l 244 307 q 281 169 251 207 q 368 131 311 131 q 440 145 406 131 q 515 190 475 160 l 601 76 q 353 -24 499 -24 q 117 78 197 -24 q 36 364 36 181 q 113 654 36 547 q 333 761 190 761 q 547 665 469 761 q 624 383 624 568 m 419 443 q 401 580 419 538 q 335 622 382 622 q 272 581 293 622 q 244 433 250 540 l 419 433 l 419 443 m 333 1121 q 420 1087 388 1121 q 453 1000 453 1053 q 419 915 453 949 q 333 881 386 881 q 247 915 281 881 q 214 1000 214 949 q 247 1087 214 1053 q 333 1121 281 1121 z "},"ẹ":{"ha":653,"x_min":36,"x_max":624,"o":"m 624 383 q 619 307 624 339 l 244 307 q 281 169 251 207 q 368 131 311 131 q 440 145 406 131 q 515 190 475 160 l 601 76 q 353 -24 499 -24 q 117 78 197 -24 q 36 364 36 181 q 113 654 36 547 q 333 761 190 761 q 547 665 469 761 q 624 383 624 568 m 419 443 q 401 580 419 538 q 335 622 382 622 q 272 581 293 622 q 244 433 250 540 l 419 433 l 419 443 m 346 -326 q 259 -292 292 -326 q 226 -206 226 -258 q 260 -120 226 -154 q 346 -86 293 -86 q 432 -120 399 -86 q 465 -206 465 -154 q 432 -292 465 -258 q 346 -326 399 -326 z "},"è":{"ha":653,"x_min":36,"x_max":624,"o":"m 624 383 q 619 307 624 339 l 244 307 q 281 169 251 207 q 368 131 311 131 q 440 145 406 131 q 515 190 475 160 l 601 76 q 353 -24 499 -24 q 117 78 197 -24 q 36 364 36 181 q 113 654 36 547 q 333 761 190 761 q 547 665 469 761 q 624 383 624 568 m 419 443 q 401 580 419 538 q 335 622 382 622 q 272 581 293 622 q 244 433 250 540 l 419 433 l 419 443 m 260 1146 l 514 968 l 457 867 l 178 997 l 260 1146 z "},"ẻ":{"ha":653,"x_min":36,"x_max":624,"o":"m 624 383 q 619 307 624 339 l 244 307 q 281 169 251 207 q 368 131 311 131 q 440 145 406 131 q 515 190 475 160 l 601 76 q 353 -24 499 -24 q 117 78 197 -24 q 36 364 36 181 q 113 654 36 547 q 333 761 190 761 q 547 665 469 761 q 624 383 624 568 m 419 443 q 401 580 419 538 q 335 622 382 622 q 272 581 293 622 q 244 433 250 540 l 419 433 l 419 443 m 276 978 q 339 993 321 982 q 357 1032 357 1004 q 314 1076 357 1076 q 280 1072 294 1076 q 244 1060 265 1068 l 213 1147 q 343 1182 268 1182 q 453 1144 414 1182 q 492 1043 492 1106 q 467 957 492 989 q 394 915 442 925 l 394 842 l 276 842 l 276 978 z "},"ȇ":{"ha":653,"x_min":36,"x_max":624,"o":"m 624 383 q 619 307 624 339 l 244 307 q 281 169 251 207 q 368 131 311 131 q 440 145 406 131 q 515 190 475 160 l 601 76 q 353 -24 499 -24 q 117 78 197 -24 q 36 364 36 181 q 113 654 36 547 q 333 761 190 761 q 547 665 469 761 q 624 383 624 568 m 419 443 q 401 580 419 538 q 335 622 382 622 q 272 581 293 622 q 244 433 250 540 l 419 433 l 419 443 m 336 1092 q 482 1030 431 1092 q 540 858 533 968 l 429 838 q 336 949 410 949 q 240 838 263 949 l 131 858 q 190 1030 138 968 q 336 1092 242 1092 z "},"ē":{"ha":653,"x_min":36,"x_max":624,"o":"m 624 383 q 619 307 624 339 l 244 307 q 281 169 251 207 q 368 131 311 131 q 440 145 406 131 q 515 190 475 160 l 601 76 q 353 -24 499 -24 q 117 78 197 -24 q 36 364 36 181 q 113 654 36 547 q 333 761 190 761 q 547 665 469 761 q 624 383 624 568 m 419 443 q 401 580 419 538 q 335 622 382 622 q 272 581 293 622 q 244 433 250 540 l 419 433 l 419 443 m 515 914 l 154 914 l 154 1056 l 515 1056 l 515 914 z "},"ę":{"ha":653,"x_min":36,"x_max":624,"o":"m 624 383 q 619 307 624 339 l 244 307 q 281 169 251 207 q 368 131 311 131 q 440 145 406 131 q 515 190 475 160 l 601 76 q 483 0 553 26 q 376 -131 376 -58 q 392 -178 376 -161 q 436 -194 408 -194 q 506 -185 471 -194 l 493 -315 q 410 -326 451 -326 q 283 -283 333 -326 q 233 -167 233 -239 q 318 -22 233 -78 q 108 90 179 -11 q 36 364 36 192 q 113 654 36 547 q 333 761 190 761 q 547 665 469 761 q 624 383 624 568 m 419 443 q 401 580 419 538 q 335 622 382 622 q 272 581 293 622 q 244 433 250 540 l 419 433 l 419 443 z "},"ɛ":{"ha":564,"x_min":36,"x_max":565,"o":"m 311 761 q 550 679 447 761 l 471 572 q 406 604 436 594 q 344 614 376 614 q 290 593 310 614 q 269 532 269 572 q 290 468 269 490 q 350 446 310 446 l 421 446 l 401 313 l 342 313 q 272 289 293 313 q 251 219 251 265 q 342 128 251 128 q 406 140 374 128 q 479 179 439 151 l 565 65 q 453 1 518 24 q 306 -22 388 -22 q 111 37 186 -22 q 36 201 36 96 q 80 328 36 282 q 215 392 124 375 q 58 558 58 428 q 129 706 58 650 q 311 761 200 761 z "},"ʚ":{"ha":676,"x_min":36,"x_max":640,"o":"m 329 -22 q 115 40 194 -22 q 36 213 36 103 q 78 336 36 293 q 208 393 119 379 q 65 556 65 432 q 137 703 65 646 q 324 761 208 761 q 558 660 475 761 q 640 369 640 558 q 560 78 640 178 q 329 -22 479 -22 m 329 128 q 393 150 371 128 q 424 224 415 172 q 433 369 433 275 q 410 560 433 506 q 335 614 388 614 q 288 593 304 614 q 271 533 271 572 q 338 447 271 447 l 353 447 l 364 311 l 331 311 q 267 292 288 311 q 246 225 246 272 q 266 151 246 174 q 329 128 286 128 z "},"ɜ":{"ha":576,"x_min":-1,"x_max":540,"o":"m 267 761 q 442 705 372 761 q 511 557 511 649 q 474 454 511 494 q 361 393 438 414 q 497 336 453 379 q 540 213 540 293 q 463 38 540 97 q 251 -22 385 -22 q -1 67 100 -22 l 93 178 q 166 138 136 149 q 235 128 196 128 q 325 224 325 128 q 301 292 325 271 q 222 313 276 313 l 143 313 l 154 446 l 207 446 q 278 468 256 446 q 300 536 300 490 q 281 595 300 576 q 226 614 261 614 q 169 603 196 614 q 110 569 143 593 l 15 675 q 267 761 121 761 z "},"ɞ":{"ha":676,"x_min":36,"x_max":640,"o":"m 347 -22 q 117 78 197 -22 q 36 369 36 178 q 119 660 36 558 q 353 761 201 761 q 540 703 468 761 q 611 556 611 646 q 468 393 611 432 q 599 336 557 379 q 640 213 640 293 q 561 40 640 103 q 347 -22 482 -22 m 347 128 q 410 151 390 128 q 431 225 431 174 q 410 292 431 272 q 346 311 389 311 l 313 311 l 324 447 l 339 447 q 406 533 406 447 q 389 593 406 572 q 342 614 372 614 q 266 560 289 614 q 243 369 243 506 q 252 224 243 275 q 283 150 261 172 q 347 128 306 128 z "},"ɝ":{"ha":928,"x_min":-1,"x_max":944,"o":"m 944 479 q 796 428 876 428 q 672 469 718 428 q 615 581 625 510 l 613 606 l 510 533 q 361 393 497 429 q 497 336 453 379 q 540 213 540 293 q 463 38 540 97 q 251 -22 385 -22 q -1 67 100 -22 l 93 178 q 166 138 136 149 q 235 128 196 128 q 325 224 325 128 q 301 292 325 271 q 222 313 276 313 l 143 313 l 154 446 l 207 446 q 278 468 256 446 q 300 536 300 490 q 281 595 300 576 q 226 614 261 614 q 169 603 196 614 q 110 569 143 593 l 15 675 q 267 761 121 761 q 396 734 339 761 q 483 658 453 707 l 603 738 l 771 738 l 771 635 q 785 589 771 604 q 822 574 799 574 q 853 578 840 574 q 886 593 865 582 l 944 479 z "},"ɘ":{"ha":653,"x_min":29,"x_max":617,"o":"m 326 761 q 617 364 617 761 q 535 77 617 178 q 296 -24 454 -24 q 51 75 154 -24 l 138 190 q 213 145 178 160 q 286 131 247 131 q 372 169 342 131 q 408 307 401 207 l 33 307 q 29 383 29 339 q 110 664 29 567 q 326 761 190 761 m 233 433 l 408 433 q 396 553 406 513 q 369 608 386 593 q 322 622 351 622 q 255 578 276 622 q 233 443 233 533 l 233 433 z "},"ʃ":{"ha":331,"x_min":-146,"x_max":457,"o":"m 292 1053 q 457 1001 379 1053 l 399 875 q 360 892 376 886 q 326 897 344 897 q 285 881 297 897 q 272 825 272 864 l 272 0 l 271 0 l 271 -74 q 205 -247 271 -186 q 32 -307 139 -307 q -146 -249 -74 -307 l -74 -131 q -35 -148 -51 -143 q 3 -153 -18 -153 q 61 -85 61 -153 l 61 1 l 63 1 l 63 819 q 122 991 63 929 q 292 1053 181 1053 z "},"ʆ":{"ha":406,"x_min":-87,"x_max":531,"o":"m 346 -12 q 454 -62 404 -32 l 414 -146 q 338 -112 378 -126 q 94 -307 300 -307 q -41 -264 6 -307 q -87 -144 -87 -221 q -39 -17 -87 -61 q 94 26 10 26 q 136 24 114 26 l 136 819 q 195 991 136 929 q 365 1053 254 1053 q 531 1001 453 1053 l 472 875 q 434 892 450 886 q 400 897 418 897 q 358 881 371 897 q 346 825 346 864 l 346 -12 m 78 -196 q 122 -173 107 -196 q 136 -99 136 -150 l 136 -74 q 93 -71 124 -71 q 29 -137 29 -71 q 78 -196 29 -196 z "},"ƪ":{"ha":510,"x_min":-28,"x_max":656,"o":"m 656 -249 q 478 -307 583 -307 q 305 -247 371 -307 q 239 -74 239 -186 l 239 0 l 238 0 l 238 603 q 168 589 206 589 q 26 651 79 589 q -28 819 -28 713 q 33 990 -28 926 q 203 1053 93 1053 q 381 988 315 1053 q 447 822 447 924 l 447 1 l 449 1 l 449 -85 q 507 -153 449 -153 q 544 -148 528 -153 q 583 -131 561 -143 l 656 -249 m 203 735 q 238 740 222 735 l 238 832 q 228 890 238 874 q 194 906 218 906 q 159 887 171 906 q 147 822 147 868 q 160 754 147 774 q 203 735 174 735 z "},"ʅ":{"ha":571,"x_min":-17,"x_max":586,"o":"m 586 36 q 408 -22 514 -22 q 235 38 301 -22 q 169 211 169 99 l 169 285 l 168 285 l 168 533 q 156 589 168 572 q 114 606 143 606 q 80 600 96 606 q 42 583 64 594 l -17 710 q 149 761 61 761 q 319 699 260 761 q 378 528 378 638 l 378 286 l 379 286 l 379 200 q 438 132 379 132 q 475 137 458 132 q 514 154 492 142 l 586 36 z "},"ɇ":{"ha":653,"x_min":36,"x_max":624,"o":"m 350 310 l 311 135 q 368 128 339 128 q 441 142 407 128 q 515 189 475 157 l 601 78 q 353 -24 497 -24 q 279 -17 317 -24 l 260 -103 l 194 -87 l 214 3 q 81 135 126 43 q 36 364 36 228 q 113 654 36 547 q 333 761 190 761 q 379 758 349 761 l 396 833 l 461 819 l 444 742 q 576 617 529 707 q 624 383 624 526 q 619 310 624 343 l 350 310 m 335 626 q 256 583 283 626 q 224 429 229 540 l 307 429 l 350 625 q 335 626 346 626 m 446 440 q 413 594 446 553 l 376 429 l 446 429 l 446 440 m 282 310 l 224 310 q 254 183 229 224 l 282 310 z "},"ẽ":{"ha":653,"x_min":36,"x_max":624,"o":"m 624 383 q 619 307 624 339 l 244 307 q 281 169 251 207 q 368 131 311 131 q 440 145 406 131 q 515 190 475 160 l 601 76 q 353 -24 499 -24 q 117 78 197 -24 q 36 364 36 181 q 113 654 36 547 q 333 761 190 761 q 547 665 469 761 q 624 383 624 568 m 419 443 q 401 580 419 538 q 335 622 382 622 q 272 581 293 622 q 244 433 250 540 l 419 433 l 419 443 m 404 892 q 359 901 378 892 q 317 925 340 910 q 268 947 288 947 q 238 934 250 947 q 208 890 225 921 l 111 936 q 174 1048 133 1006 q 265 1090 214 1090 q 308 1082 290 1090 q 353 1057 326 1074 q 379 1039 368 1044 q 403 1033 390 1033 q 433 1047 421 1033 q 460 1089 444 1060 l 558 1044 q 496 933 536 974 q 404 892 456 892 z "},"ǝ":{"ha":654,"x_min":29,"x_max":618,"o":"m 317 761 q 618 369 618 761 q 542 81 618 183 q 319 -22 465 -22 q 106 72 183 -22 q 29 354 29 165 q 33 432 29 397 l 421 432 q 389 570 417 531 q 307 610 361 610 q 229 597 265 610 q 153 554 193 585 l 69 667 q 317 761 172 761 m 321 126 q 393 163 369 126 q 421 303 417 200 l 222 303 l 222 293 q 247 165 222 204 q 321 126 272 126 z "},"ə":{"ha":654,"x_min":29,"x_max":618,"o":"m 317 761 q 618 369 618 761 q 542 81 618 183 q 319 -22 465 -22 q 106 72 183 -22 q 29 354 29 165 q 33 432 29 397 l 421 432 q 389 570 417 531 q 307 610 361 610 q 229 597 265 610 q 153 554 193 585 l 69 667 q 317 761 172 761 m 321 126 q 393 163 369 126 q 421 303 417 200 l 222 303 l 222 293 q 247 165 222 204 q 321 126 272 126 z "},"ɚ":{"ha":989,"x_min":29,"x_max":1006,"o":"m 1006 479 q 857 428 938 428 q 733 469 779 428 q 676 581 686 510 l 674 606 l 596 551 q 618 369 618 475 q 542 81 618 183 q 319 -22 465 -22 q 106 72 183 -22 q 29 354 29 165 q 33 432 29 397 l 421 432 q 389 570 417 531 q 307 610 361 610 q 229 597 265 610 q 153 554 193 585 l 69 667 q 317 761 172 761 q 546 658 469 761 l 664 738 l 832 738 l 832 635 q 846 589 832 604 q 883 574 860 574 q 914 578 901 574 q 947 593 926 582 l 1006 479 m 321 126 q 393 163 369 126 q 421 303 417 200 l 222 303 l 222 293 q 247 165 222 204 q 321 126 272 126 z "},"ʒ":{"ha":592,"x_min":-22,"x_max":576,"o":"m 328 293 q 576 13 576 272 q 539 -152 576 -79 q 429 -266 501 -225 q 258 -307 357 -307 q -22 -167 78 -307 l 89 -64 q 167 -127 132 -108 q 244 -146 201 -146 q 363 21 363 -146 q 328 135 363 100 q 224 169 294 169 l 122 169 l 122 293 l 317 581 l 28 581 l 28 738 l 536 738 l 536 593 l 328 293 z "},"ǯ":{"ha":592,"x_min":-22,"x_max":576,"o":"m 328 293 q 576 13 576 272 q 539 -152 576 -79 q 429 -266 501 -225 q 258 -307 357 -307 q -22 -167 78 -307 l 89 -64 q 167 -127 132 -108 q 244 -146 201 -146 q 363 21 363 -146 q 328 135 363 100 q 224 169 294 169 l 122 169 l 122 293 l 317 581 l 28 581 l 28 738 l 536 738 l 536 593 l 328 293 m 436 1121 l 508 1044 l 344 851 l 219 851 l 56 1044 l 128 1121 l 282 992 l 436 1121 z "},"ʓ":{"ha":592,"x_min":-25,"x_max":576,"o":"m 576 17 q 526 -170 576 -92 q 379 -283 476 -249 l 411 -361 l 315 -401 l 279 -304 q 224 -307 243 -307 q 42 -252 110 -307 q -25 -96 -25 -197 q 17 26 -25 -18 q 122 71 58 71 q 228 29 188 71 q 310 -121 269 -12 q 363 28 363 -81 q 330 143 363 108 q 232 178 297 178 l 122 178 l 122 300 l 317 581 l 28 581 l 28 738 l 536 738 l 536 593 l 329 301 q 576 17 576 285 m 113 -86 q 135 -132 113 -118 q 217 -146 158 -146 l 218 -146 q 179 -62 194 -83 q 144 -40 164 -40 q 113 -86 113 -40 z "},"ƹ":{"ha":592,"x_min":14,"x_max":613,"o":"m 613 -167 q 331 -307 514 -307 q 160 -267 232 -307 q 51 -155 89 -226 q 14 10 14 -83 q 78 211 14 140 q 263 293 142 282 l 54 593 l 54 738 l 564 738 l 564 581 l 274 581 l 469 293 l 469 169 l 368 169 q 263 133 297 169 q 229 14 229 96 q 346 -146 229 -146 q 425 -127 390 -146 q 501 -64 460 -108 l 613 -167 z "},"ƺ":{"ha":596,"x_min":24,"x_max":574,"o":"m 225 -307 q 83 -221 135 -274 q 31 -99 31 -168 q 78 17 31 -26 q 222 82 125 60 q 332 123 303 100 q 361 193 361 146 q 340 248 361 231 q 268 265 318 265 l 128 265 l 128 381 l 313 589 l 24 589 l 24 738 l 532 738 l 532 600 l 336 388 l 358 388 q 515 335 457 388 q 574 188 574 282 q 513 31 572 85 q 347 -49 453 -22 q 267 -72 293 -62 q 231 -93 240 -82 q 221 -121 221 -104 q 269 -190 221 -158 l 225 -307 z "},"f":{"ha":425,"x_min":6,"x_max":513,"o":"m 368 899 q 299 821 299 899 l 299 738 l 433 738 l 410 590 l 299 590 l 299 0 l 89 0 l 89 590 l 6 590 l 6 738 l 89 738 l 89 813 q 153 988 89 922 q 336 1053 217 1053 q 513 1008 431 1053 l 457 875 q 368 899 410 899 z "},"ḟ":{"ha":425,"x_min":6,"x_max":513,"o":"m 368 899 q 299 821 299 899 l 299 738 l 433 738 l 410 590 l 299 590 l 299 0 l 89 0 l 89 590 l 6 590 l 6 738 l 89 738 l 89 813 q 153 988 89 922 q 336 1053 217 1053 q 513 1008 431 1053 l 457 875 q 368 899 410 899 m 310 1364 q 397 1330 364 1364 q 429 1243 429 1296 q 396 1158 429 1192 q 310 1124 363 1124 q 224 1158 257 1124 q 190 1243 190 1192 q 224 1330 190 1296 q 310 1364 257 1364 z "},"ʩ":{"ha":1026,"x_min":6,"x_max":969,"o":"m 800 761 q 924 704 879 761 q 969 551 969 647 l 969 -74 q 903 -247 969 -186 q 731 -307 838 -307 q 553 -249 626 -307 l 625 -131 q 664 -148 647 -143 q 701 -153 681 -153 q 760 -85 760 -153 l 760 529 q 719 601 760 601 q 632 513 679 601 l 632 0 l 422 0 l 422 590 l 299 590 l 299 0 l 89 0 l 89 590 l 6 590 l 6 738 l 89 738 l 89 813 q 153 988 89 922 q 336 1053 217 1053 q 513 1008 431 1053 l 457 875 q 368 899 410 899 q 299 821 299 899 l 299 738 l 604 738 l 619 650 q 699 733 656 706 q 800 761 742 761 z "},"g":{"ha":631,"x_min":-3,"x_max":639,"o":"m 639 696 q 467 668 588 668 q 557 594 528 640 q 586 476 586 547 q 515 299 586 367 q 319 231 443 231 q 253 239 281 231 q 231 192 231 224 q 245 156 231 168 q 299 143 260 143 l 374 143 q 560 85 493 143 q 628 -65 628 26 q 542 -241 628 -175 q 299 -307 457 -307 q 63 -247 128 -307 q -3 -71 -3 -187 l 183 -71 q 208 -147 183 -124 q 300 -169 232 -169 q 419 -81 419 -169 q 397 -20 419 -40 q 326 0 374 0 l 271 0 q 111 38 161 0 q 61 143 61 76 q 82 219 61 183 q 139 279 103 254 q 52 367 79 317 q 25 492 25 417 q 101 688 25 617 q 310 758 178 758 q 458 781 397 758 q 588 846 518 803 l 639 696 m 311 622 q 251 592 271 622 q 231 494 231 563 q 310 365 231 365 q 368 394 349 365 q 388 497 388 424 q 369 593 388 564 q 311 622 350 622 z "},"ǵ":{"ha":631,"x_min":-3,"x_max":639,"o":"m 639 696 q 467 668 588 668 q 557 594 528 640 q 586 476 586 547 q 515 299 586 367 q 319 231 443 231 q 253 239 281 231 q 231 192 231 224 q 245 156 231 168 q 299 143 260 143 l 374 143 q 560 85 493 143 q 628 -65 628 26 q 542 -241 628 -175 q 299 -307 457 -307 q 63 -247 128 -307 q -3 -71 -3 -187 l 183 -71 q 208 -147 183 -124 q 300 -169 232 -169 q 419 -81 419 -169 q 397 -20 419 -40 q 326 0 374 0 l 271 0 q 111 38 161 0 q 61 143 61 76 q 82 219 61 183 q 139 279 103 254 q 52 367 79 317 q 25 492 25 417 q 101 688 25 617 q 310 758 178 758 q 458 781 397 758 q 588 846 518 803 l 639 696 m 311 622 q 251 592 271 622 q 231 494 231 563 q 310 365 231 365 q 368 394 349 365 q 388 497 388 424 q 369 593 388 564 q 311 622 350 622 m 393 1146 l 475 997 l 196 867 l 139 968 l 393 1146 z "},"ɣ":{"ha":613,"x_min":-7,"x_max":621,"o":"m 408 111 q 472 -26 453 29 q 492 -142 492 -82 q 447 -263 492 -219 q 310 -307 403 -307 q 173 -263 218 -307 q 128 -142 128 -219 q 147 -32 128 -89 q 210 111 165 25 l -7 738 l 207 738 l 310 242 l 417 738 l 621 738 l 408 111 m 342 -133 q 334 -76 342 -104 q 310 -6 326 -47 q 278 -135 278 -83 q 310 -175 278 -175 q 342 -133 342 -175 z "},"ğ":{"ha":631,"x_min":-3,"x_max":639,"o":"m 639 696 q 467 668 588 668 q 557 594 528 640 q 586 476 586 547 q 515 299 586 367 q 319 231 443 231 q 253 239 281 231 q 231 192 231 224 q 245 156 231 168 q 299 143 260 143 l 374 143 q 560 85 493 143 q 628 -65 628 26 q 542 -241 628 -175 q 299 -307 457 -307 q 63 -247 128 -307 q -3 -71 -3 -187 l 183 -71 q 208 -147 183 -124 q 300 -169 232 -169 q 419 -81 419 -169 q 397 -20 419 -40 q 326 0 374 0 l 271 0 q 111 38 161 0 q 61 143 61 76 q 82 219 61 183 q 139 279 103 254 q 52 367 79 317 q 25 492 25 417 q 101 688 25 617 q 310 758 178 758 q 458 781 397 758 q 588 846 518 803 l 639 696 m 311 622 q 251 592 271 622 q 231 494 231 563 q 310 365 231 365 q 368 394 349 365 q 388 497 388 424 q 369 593 388 564 q 311 622 350 622 m 319 881 q 173 942 225 881 q 114 1114 121 1004 l 224 1135 q 319 1024 246 1024 q 413 1135 393 1024 l 524 1114 q 465 942 517 1004 q 319 881 414 881 z "}}}
